%TF.GenerationSoftware,KiCad,Pcbnew,9.0.7*%
%TF.CreationDate,2026-03-01T11:20:14+10:00*%
%TF.ProjectId,stm32board,73746d33-3262-46f6-9172-642e6b696361,rev?*%
%TF.SameCoordinates,Original*%
%TF.FileFunction,Soldermask,Top*%
%TF.FilePolarity,Negative*%
%FSLAX46Y46*%
G04 Gerber Fmt 4.6, Leading zero omitted, Abs format (unit mm)*
G04 Created by KiCad (PCBNEW 9.0.7) date 2026-03-01 11:20:14*
%MOMM*%
%LPD*%
G01*
G04 APERTURE LIST*
G04 Aperture macros list*
%AMRoundRect*
0 Rectangle with rounded corners*
0 $1 Rounding radius*
0 $2 $3 $4 $5 $6 $7 $8 $9 X,Y pos of 4 corners*
0 Add a 4 corners polygon primitive as box body*
4,1,4,$2,$3,$4,$5,$6,$7,$8,$9,$2,$3,0*
0 Add four circle primitives for the rounded corners*
1,1,$1+$1,$2,$3*
1,1,$1+$1,$4,$5*
1,1,$1+$1,$6,$7*
1,1,$1+$1,$8,$9*
0 Add four rect primitives between the rounded corners*
20,1,$1+$1,$2,$3,$4,$5,0*
20,1,$1+$1,$4,$5,$6,$7,0*
20,1,$1+$1,$6,$7,$8,$9,0*
20,1,$1+$1,$8,$9,$2,$3,0*%
G04 Aperture macros list end*
%ADD10RoundRect,0.250000X0.250000X0.475000X-0.250000X0.475000X-0.250000X-0.475000X0.250000X-0.475000X0*%
%ADD11RoundRect,0.250000X-0.262500X-0.450000X0.262500X-0.450000X0.262500X0.450000X-0.262500X0.450000X0*%
%ADD12RoundRect,0.243750X-0.243750X-0.456250X0.243750X-0.456250X0.243750X0.456250X-0.243750X0.456250X0*%
%ADD13RoundRect,0.150000X0.512500X0.150000X-0.512500X0.150000X-0.512500X-0.150000X0.512500X-0.150000X0*%
%ADD14RoundRect,0.250000X-0.250000X-0.475000X0.250000X-0.475000X0.250000X0.475000X-0.250000X0.475000X0*%
%ADD15RoundRect,0.250000X0.262500X0.450000X-0.262500X0.450000X-0.262500X-0.450000X0.262500X-0.450000X0*%
%ADD16R,0.558800X1.981200*%
%ADD17R,1.700000X1.700000*%
%ADD18C,1.700000*%
%ADD19RoundRect,0.250000X0.475000X-0.250000X0.475000X0.250000X-0.475000X0.250000X-0.475000X-0.250000X0*%
%ADD20RoundRect,0.250000X-0.475000X0.250000X-0.475000X-0.250000X0.475000X-0.250000X0.475000X0.250000X0*%
%ADD21RoundRect,0.100000X-0.100000X0.217500X-0.100000X-0.217500X0.100000X-0.217500X0.100000X0.217500X0*%
%ADD22R,2.209800X8.001000*%
%ADD23RoundRect,0.243750X0.243750X0.456250X-0.243750X0.456250X-0.243750X-0.456250X0.243750X-0.456250X0*%
%ADD24RoundRect,0.250000X0.450000X-0.262500X0.450000X0.262500X-0.450000X0.262500X-0.450000X-0.262500X0*%
%ADD25RoundRect,0.250000X-0.450000X0.262500X-0.450000X-0.262500X0.450000X-0.262500X0.450000X0.262500X0*%
%ADD26C,0.650000*%
%ADD27RoundRect,0.150000X0.425000X-0.150000X0.425000X0.150000X-0.425000X0.150000X-0.425000X-0.150000X0*%
%ADD28RoundRect,0.075000X0.500000X-0.075000X0.500000X0.075000X-0.500000X0.075000X-0.500000X-0.075000X0*%
%ADD29O,2.100000X1.000000*%
%ADD30O,1.800000X1.000000*%
%ADD31RoundRect,0.250000X0.275000X0.750000X-0.275000X0.750000X-0.275000X-0.750000X0.275000X-0.750000X0*%
%ADD32RoundRect,0.200000X-0.200000X0.250000X-0.200000X-0.250000X0.200000X-0.250000X0.200000X0.250000X0*%
%ADD33RoundRect,0.249999X-0.450001X-1.800001X0.450001X-1.800001X0.450001X1.800001X-0.450001X1.800001X0*%
%ADD34RoundRect,0.075000X-0.662500X-0.075000X0.662500X-0.075000X0.662500X0.075000X-0.662500X0.075000X0*%
%ADD35RoundRect,0.075000X-0.075000X-0.662500X0.075000X-0.662500X0.075000X0.662500X-0.075000X0.662500X0*%
%ADD36R,1.000000X1.800000*%
%ADD37RoundRect,0.250000X0.350000X-0.350000X0.350000X0.350000X-0.350000X0.350000X-0.350000X-0.350000X0*%
%ADD38C,1.200000*%
%ADD39RoundRect,0.250000X0.650000X-1.000000X0.650000X1.000000X-0.650000X1.000000X-0.650000X-1.000000X0*%
%ADD40R,1.000000X1.000000*%
%ADD41C,1.000000*%
%ADD42R,1.500000X4.200000*%
%ADD43RoundRect,0.250000X0.625000X-0.375000X0.625000X0.375000X-0.625000X0.375000X-0.625000X-0.375000X0*%
%ADD44RoundRect,0.250000X1.450000X-0.312500X1.450000X0.312500X-1.450000X0.312500X-1.450000X-0.312500X0*%
G04 APERTURE END LIST*
D10*
%TO.C,C18*%
X97850000Y-83700000D03*
X95950000Y-83700000D03*
%TD*%
D11*
%TO.C,R8*%
X59250000Y-65000000D03*
X61075000Y-65000000D03*
%TD*%
D12*
%TO.C,D2*%
X85912500Y-70907500D03*
X87787500Y-70907500D03*
%TD*%
D13*
%TO.C,U5*%
X68912500Y-71150000D03*
X68912500Y-70200000D03*
X68912500Y-69250000D03*
X66637500Y-69250000D03*
X66637500Y-71150000D03*
%TD*%
D14*
%TO.C,FB1*%
X71862500Y-73407500D03*
X73762500Y-73407500D03*
%TD*%
D15*
%TO.C,R14*%
X76450000Y-81750000D03*
X74625000Y-81750000D03*
%TD*%
D10*
%TO.C,C4*%
X81612500Y-70907500D03*
X79712500Y-70907500D03*
%TD*%
%TO.C,C8*%
X68312500Y-58407500D03*
X66412500Y-58407500D03*
%TD*%
%TO.C,C23*%
X75350000Y-84223600D03*
X73450000Y-84223600D03*
%TD*%
D16*
%TO.C,U2*%
X96640000Y-91302000D03*
X97910000Y-91302000D03*
X99180000Y-91302000D03*
X100450000Y-91302000D03*
X100450000Y-86374400D03*
X99180000Y-86374400D03*
X97910000Y-86374400D03*
X96640000Y-86374400D03*
%TD*%
D17*
%TO.C,H6*%
X94112500Y-44000000D03*
D18*
X91572500Y-44000000D03*
X89032500Y-44000000D03*
X86492500Y-44000000D03*
X83952500Y-44000000D03*
X81412500Y-44000000D03*
X78872500Y-44000000D03*
X76332500Y-44000000D03*
X73792500Y-44000000D03*
X71252500Y-44000000D03*
X68712500Y-44000000D03*
X66172500Y-44000000D03*
X63632500Y-44000000D03*
X61092500Y-44000000D03*
%TD*%
D17*
%TO.C,H7*%
X42250000Y-86250000D03*
D18*
X42250000Y-88790000D03*
X42250000Y-91330000D03*
X42250000Y-93870000D03*
%TD*%
D10*
%TO.C,C2*%
X81612500Y-75927500D03*
X79712500Y-75927500D03*
%TD*%
D19*
%TO.C,C28*%
X62750000Y-84700000D03*
X62750000Y-82800000D03*
%TD*%
D14*
%TO.C,C19*%
X67800000Y-89000000D03*
X69700000Y-89000000D03*
%TD*%
D10*
%TO.C,C29*%
X56000000Y-84025000D03*
X54100000Y-84025000D03*
%TD*%
D20*
%TO.C,C22*%
X80700000Y-84750000D03*
X80700000Y-86650000D03*
%TD*%
D17*
%TO.C,H1*%
X100912500Y-58947500D03*
D18*
X100912500Y-56407500D03*
X100912500Y-53867500D03*
X100912500Y-51327500D03*
%TD*%
D10*
%TO.C,C14*%
X77662500Y-70907500D03*
X75762500Y-70907500D03*
%TD*%
D21*
%TO.C,R26*%
X74000000Y-50342500D03*
X74000000Y-51157500D03*
%TD*%
D22*
%TO.C,L1*%
X90200000Y-88700000D03*
X84485000Y-88700000D03*
%TD*%
D11*
%TO.C,R2*%
X85962500Y-73407500D03*
X87787500Y-73407500D03*
%TD*%
D15*
%TO.C,R13*%
X80450000Y-94750000D03*
X78625000Y-94750000D03*
%TD*%
D23*
%TO.C,D1*%
X77662500Y-75907500D03*
X75787500Y-75907500D03*
%TD*%
D11*
%TO.C,R25*%
X50425000Y-73000000D03*
X52250000Y-73000000D03*
%TD*%
%TO.C,R24*%
X52675000Y-70000000D03*
X54500000Y-70000000D03*
%TD*%
D10*
%TO.C,C3*%
X81612500Y-73407500D03*
X79712500Y-73407500D03*
%TD*%
D14*
%TO.C,C6*%
X61100000Y-60907500D03*
X63000000Y-60907500D03*
%TD*%
%TO.C,C20*%
X78450000Y-92223600D03*
X80350000Y-92223600D03*
%TD*%
%TO.C,C11*%
X59175000Y-67250000D03*
X61075000Y-67250000D03*
%TD*%
%TO.C,C9*%
X62512500Y-58407500D03*
X64412500Y-58407500D03*
%TD*%
D17*
%TO.C,H4*%
X42250000Y-73460000D03*
D18*
X42250000Y-76000000D03*
X42250000Y-78540000D03*
X42250000Y-81080000D03*
%TD*%
D20*
%TO.C,C15*%
X105500000Y-79250000D03*
X105500000Y-81150000D03*
%TD*%
D24*
%TO.C,R9*%
X76162500Y-55407500D03*
X76162500Y-53582500D03*
%TD*%
D16*
%TO.C,U3*%
X72140000Y-91927600D03*
X73410000Y-91927600D03*
X74680000Y-91927600D03*
X75950000Y-91927600D03*
X75950000Y-87000000D03*
X74680000Y-87000000D03*
X73410000Y-87000000D03*
X72140000Y-87000000D03*
%TD*%
D25*
%TO.C,R21*%
X59500000Y-86587500D03*
X59500000Y-88412500D03*
%TD*%
D15*
%TO.C,R18*%
X60100000Y-94627000D03*
X58275000Y-94627000D03*
%TD*%
D26*
%TO.C,J2*%
X101737500Y-71902500D03*
X101737500Y-66122500D03*
D27*
X100662500Y-72212500D03*
X100662500Y-71412500D03*
D28*
X100662500Y-70262500D03*
X100662500Y-69262500D03*
X100662500Y-68762500D03*
X100662500Y-67762500D03*
D27*
X100662500Y-66612500D03*
X100662500Y-65812500D03*
X100662500Y-65812500D03*
X100662500Y-66612500D03*
D28*
X100662500Y-67262500D03*
X100662500Y-68262500D03*
X100662500Y-69762500D03*
X100662500Y-70762500D03*
D27*
X100662500Y-71412500D03*
X100662500Y-72212500D03*
D29*
X101237500Y-73332500D03*
D30*
X105417500Y-73332500D03*
D29*
X101237500Y-64692500D03*
D30*
X105417500Y-64692500D03*
%TD*%
D25*
%TO.C,R16*%
X78450000Y-86925000D03*
X78450000Y-88750000D03*
%TD*%
D20*
%TO.C,C27*%
X52600000Y-80125000D03*
X52600000Y-82025000D03*
%TD*%
D14*
%TO.C,C13*%
X75762500Y-73407500D03*
X77662500Y-73407500D03*
%TD*%
D11*
%TO.C,R22*%
X49425000Y-49000000D03*
X51250000Y-49000000D03*
%TD*%
D19*
%TO.C,C26*%
X59500000Y-92400000D03*
X59500000Y-90500000D03*
%TD*%
D31*
%TO.C,SW1*%
X61075000Y-70250000D03*
X56625000Y-70250000D03*
%TD*%
D24*
%TO.C,R12*%
X96450000Y-81700000D03*
X96450000Y-79875000D03*
%TD*%
D25*
%TO.C,R20*%
X59100000Y-82200000D03*
X59100000Y-84025000D03*
%TD*%
D20*
%TO.C,C25*%
X50600000Y-88125000D03*
X50600000Y-90025000D03*
%TD*%
D32*
%TO.C,Y1*%
X63062500Y-63007500D03*
X63062500Y-64407500D03*
X64162500Y-64407500D03*
X64162500Y-63007500D03*
%TD*%
D11*
%TO.C,R1*%
X71837500Y-75907500D03*
X73662500Y-75907500D03*
%TD*%
D10*
%TO.C,C21*%
X72950000Y-81750000D03*
X71050000Y-81750000D03*
%TD*%
D33*
%TO.C,L3*%
X59300000Y-78500000D03*
X62000000Y-78500000D03*
%TD*%
D11*
%TO.C,R23*%
X49675000Y-61500000D03*
X51500000Y-61500000D03*
%TD*%
D34*
%TO.C,U1*%
X73337500Y-59657500D03*
X73337500Y-60157500D03*
X73337500Y-60657500D03*
X73337500Y-61157500D03*
X73337500Y-61657500D03*
X73337500Y-62157500D03*
X73337500Y-62657500D03*
X73337500Y-63157500D03*
X73337500Y-63657500D03*
X73337500Y-64157500D03*
X73337500Y-64657500D03*
X73337500Y-65157500D03*
D35*
X74750000Y-66570000D03*
X75250000Y-66570000D03*
X75750000Y-66570000D03*
X76250000Y-66570000D03*
X76750000Y-66570000D03*
X77250000Y-66570000D03*
X77750000Y-66570000D03*
X78250000Y-66570000D03*
X78750000Y-66570000D03*
X79250000Y-66570000D03*
X79750000Y-66570000D03*
X80250000Y-66570000D03*
D34*
X81662500Y-65157500D03*
X81662500Y-64657500D03*
X81662500Y-64157500D03*
X81662500Y-63657500D03*
X81662500Y-63157500D03*
X81662500Y-62657500D03*
X81662500Y-62157500D03*
X81662500Y-61657500D03*
X81662500Y-61157500D03*
X81662500Y-60657500D03*
X81662500Y-60157500D03*
X81662500Y-59657500D03*
D35*
X80250000Y-58245000D03*
X79750000Y-58245000D03*
X79250000Y-58245000D03*
X78750000Y-58245000D03*
X78250000Y-58245000D03*
X77750000Y-58245000D03*
X77250000Y-58245000D03*
X76750000Y-58245000D03*
X76250000Y-58245000D03*
X75750000Y-58245000D03*
X75250000Y-58245000D03*
X74750000Y-58245000D03*
%TD*%
D20*
%TO.C,C12*%
X93950000Y-87300000D03*
X93950000Y-89200000D03*
%TD*%
D10*
%TO.C,C1*%
X81612500Y-78407500D03*
X79712500Y-78407500D03*
%TD*%
D14*
%TO.C,C10*%
X82500000Y-94750000D03*
X84400000Y-94750000D03*
%TD*%
D36*
%TO.C,Y2*%
X64162500Y-55907500D03*
X66662500Y-55907500D03*
%TD*%
D37*
%TO.C,C30*%
X51250000Y-54222600D03*
D38*
X51250000Y-52222600D03*
%TD*%
D16*
%TO.C,U4*%
X53275000Y-91692800D03*
X54545000Y-91692800D03*
X55815000Y-91692800D03*
X57085000Y-91692800D03*
X57085000Y-86765200D03*
X55815000Y-86765200D03*
X54545000Y-86765200D03*
X53275000Y-86765200D03*
%TD*%
D39*
%TO.C,D4*%
X67700000Y-86250000D03*
X67700000Y-82250000D03*
%TD*%
D17*
%TO.C,H2*%
X46750000Y-43920000D03*
D18*
X46750000Y-46460000D03*
X46750000Y-49000000D03*
X46750000Y-51540000D03*
%TD*%
D25*
%TO.C,R11*%
X100450000Y-81375000D03*
X100450000Y-83200000D03*
%TD*%
D20*
%TO.C,C17*%
X93950000Y-79837500D03*
X93950000Y-81737500D03*
%TD*%
D15*
%TO.C,R3*%
X99465000Y-94302000D03*
X97640000Y-94302000D03*
%TD*%
D14*
%TO.C,C7*%
X84550000Y-82700000D03*
X86450000Y-82700000D03*
%TD*%
D15*
%TO.C,R5*%
X90412500Y-62907500D03*
X88587500Y-62907500D03*
%TD*%
D20*
%TO.C,C24*%
X62250000Y-93000000D03*
X62250000Y-94900000D03*
%TD*%
D37*
%TO.C,C31*%
X56000000Y-54222600D03*
D38*
X56000000Y-52222600D03*
%TD*%
D11*
%TO.C,R6*%
X88587500Y-60657500D03*
X90412500Y-60657500D03*
%TD*%
D24*
%TO.C,R19*%
X55000000Y-82025000D03*
X55000000Y-80200000D03*
%TD*%
D40*
%TO.C,H5*%
X46750000Y-67500000D03*
D41*
X46750000Y-68770000D03*
X46750000Y-70040000D03*
X46750000Y-71310000D03*
%TD*%
D42*
%TO.C,L2*%
X68700000Y-93000000D03*
X65100000Y-93000000D03*
%TD*%
D43*
%TO.C,D3*%
X90700000Y-82700000D03*
X90700000Y-79900000D03*
%TD*%
D25*
%TO.C,R15*%
X78450000Y-82398600D03*
X78450000Y-84223600D03*
%TD*%
D15*
%TO.C,R7*%
X74862500Y-94825600D03*
X73037500Y-94825600D03*
%TD*%
D19*
%TO.C,C16*%
X102700000Y-91900000D03*
X102700000Y-90000000D03*
%TD*%
D17*
%TO.C,H3*%
X46750000Y-56500000D03*
D18*
X46750000Y-59040000D03*
X46750000Y-61580000D03*
X46750000Y-64120000D03*
%TD*%
D44*
%TO.C,D5*%
X49000000Y-81525000D03*
X49000000Y-77250000D03*
%TD*%
D25*
%TO.C,R10*%
X102700000Y-86375000D03*
X102700000Y-88200000D03*
%TD*%
D15*
%TO.C,R17*%
X56100000Y-94627000D03*
X54275000Y-94627000D03*
%TD*%
D19*
%TO.C,C5*%
X66162500Y-66307500D03*
X66162500Y-64407500D03*
%TD*%
D15*
%TO.C,R4*%
X103465000Y-94302000D03*
X101640000Y-94302000D03*
%TD*%
M02*
