<?xml version="1.0" standalone="no"?>
 <!DOCTYPE svg PUBLIC "-//W3C//DTD SVG 1.1//EN" 
 "http://www.w3.org/Graphics/SVG/1.1/DTD/svg11.dtd"> 
<svg
  xmlns:svg="http://www.w3.org/2000/svg"
  xmlns="http://www.w3.org/2000/svg"
  xmlns:xlink="http://www.w3.org/1999/xlink"
  version="1.1"
  width="297.0022mm" height="210.0072mm" viewBox="0.0000 0.0000 297.0022 210.0072">
<title>SVG Image created as stm32board-F_Paste.svg date 2026/03/05 14:05:50 </title>
  <desc>Image generated by PCBNEW </desc>
<g style="fill:#000000; fill-opacity:1.0000;stroke:#000000; stroke-opacity:1.0000;
stroke-linecap:round; stroke-linejoin:round;"
 transform="translate(0 0) scale(1 1)">
<path style="fill:#000000; fill-opacity:1.0000; stroke:none;fill-rule:evenodd;"
d="M 98.3500,84.1750
98.3310,84.2707
98.2768,84.3518
98.1957,84.4060
98.1000,84.4250
97.6000,84.4250
97.5043,84.4060
97.4232,84.3518
97.3690,84.2707
97.3500,84.1750
97.3500,83.2250
97.3690,83.1293
97.4232,83.0482
97.5043,82.9940
97.6000,82.9750
98.1000,82.9750
98.1957,82.9940
98.2768,83.0482
98.3310,83.1293
98.3500,83.2250
Z" /> 
<path style="fill:#000000; fill-opacity:1.0000; stroke:none;fill-rule:evenodd;"
d="M 96.4500,84.1750
96.4310,84.2707
96.3768,84.3518
96.2957,84.4060
96.2000,84.4250
95.7000,84.4250
95.6043,84.4060
95.5232,84.3518
95.4690,84.2707
95.4500,84.1750
95.4500,83.2250
95.4690,83.1293
95.5232,83.0482
95.6043,82.9940
95.7000,82.9750
96.2000,82.9750
96.2957,82.9940
96.3768,83.0482
96.4310,83.1293
96.4500,83.2250
Z" /> 
<path style="fill:#000000; fill-opacity:1.0000; stroke:none;fill-rule:evenodd;"
d="M 58.7375,64.5500
58.7565,64.4543
58.8107,64.3732
58.8918,64.3190
58.9875,64.3000
59.5125,64.3000
59.6082,64.3190
59.6893,64.3732
59.7435,64.4543
59.7625,64.5500
59.7625,65.4500
59.7435,65.5457
59.6893,65.6268
59.6082,65.6810
59.5125,65.7000
58.9875,65.7000
58.8918,65.6810
58.8107,65.6268
58.7565,65.5457
58.7375,65.4500
Z" /> 
<path style="fill:#000000; fill-opacity:1.0000; stroke:none;fill-rule:evenodd;"
d="M 60.5625,64.5500
60.5815,64.4543
60.6357,64.3732
60.7168,64.3190
60.8125,64.3000
61.3375,64.3000
61.4332,64.3190
61.5143,64.3732
61.5685,64.4543
61.5875,64.5500
61.5875,65.4500
61.5685,65.5457
61.5143,65.6268
61.4332,65.6810
61.3375,65.7000
60.8125,65.7000
60.7168,65.6810
60.6357,65.6268
60.5815,65.5457
60.5625,65.4500
Z" /> 
<path style="fill:#000000; fill-opacity:1.0000; stroke:none;fill-rule:evenodd;"
d="M 85.4250,70.4513
85.4436,70.3580
85.4964,70.2789
85.5755,70.2261
85.6688,70.2075
86.1562,70.2075
86.2495,70.2261
86.3286,70.2789
86.3814,70.3580
86.4000,70.4513
86.4000,71.3637
86.3814,71.4570
86.3286,71.5361
86.2495,71.5889
86.1562,71.6075
85.6688,71.6075
85.5755,71.5889
85.4964,71.5361
85.4436,71.4570
85.4250,71.3637
Z" /> 
<path style="fill:#000000; fill-opacity:1.0000; stroke:none;fill-rule:evenodd;"
d="M 87.3000,70.4513
87.3186,70.3580
87.3714,70.2789
87.4505,70.2261
87.5438,70.2075
88.0312,70.2075
88.1245,70.2261
88.2036,70.2789
88.2564,70.3580
88.2750,70.4513
88.2750,71.3637
88.2564,71.4570
88.2036,71.5361
88.1245,71.5889
88.0312,71.6075
87.5438,71.6075
87.4505,71.5889
87.3714,71.5361
87.3186,71.4570
87.3000,71.3637
Z" /> 
<path style="fill:#000000; fill-opacity:1.0000; stroke:none;fill-rule:evenodd;"
d="M 69.5750,71.3000
69.5636,71.3574
69.5311,71.4061
69.4824,71.4386
69.4250,71.4500
68.4000,71.4500
68.3426,71.4386
68.2939,71.4061
68.2614,71.3574
68.2500,71.3000
68.2500,71.0000
68.2614,70.9426
68.2939,70.8939
68.3426,70.8614
68.4000,70.8500
69.4250,70.8500
69.4824,70.8614
69.5311,70.8939
69.5636,70.9426
69.5750,71.0000
Z" /> 
<path style="fill:#000000; fill-opacity:1.0000; stroke:none;fill-rule:evenodd;"
d="M 69.5750,70.3500
69.5636,70.4074
69.5311,70.4561
69.4824,70.4886
69.4250,70.5000
68.4000,70.5000
68.3426,70.4886
68.2939,70.4561
68.2614,70.4074
68.2500,70.3500
68.2500,70.0500
68.2614,69.9926
68.2939,69.9439
68.3426,69.9114
68.4000,69.9000
69.4250,69.9000
69.4824,69.9114
69.5311,69.9439
69.5636,69.9926
69.5750,70.0500
Z" /> 
<path style="fill:#000000; fill-opacity:1.0000; stroke:none;fill-rule:evenodd;"
d="M 69.5750,69.4000
69.5636,69.4574
69.5311,69.5061
69.4824,69.5386
69.4250,69.5500
68.4000,69.5500
68.3426,69.5386
68.2939,69.5061
68.2614,69.4574
68.2500,69.4000
68.2500,69.1000
68.2614,69.0426
68.2939,68.9939
68.3426,68.9614
68.4000,68.9500
69.4250,68.9500
69.4824,68.9614
69.5311,68.9939
69.5636,69.0426
69.5750,69.1000
Z" /> 
<path style="fill:#000000; fill-opacity:1.0000; stroke:none;fill-rule:evenodd;"
d="M 67.3000,69.4000
67.2886,69.4574
67.2561,69.5061
67.2074,69.5386
67.1500,69.5500
66.1250,69.5500
66.0676,69.5386
66.0189,69.5061
65.9864,69.4574
65.9750,69.4000
65.9750,69.1000
65.9864,69.0426
66.0189,68.9939
66.0676,68.9614
66.1250,68.9500
67.1500,68.9500
67.2074,68.9614
67.2561,68.9939
67.2886,69.0426
67.3000,69.1000
Z" /> 
<path style="fill:#000000; fill-opacity:1.0000; stroke:none;fill-rule:evenodd;"
d="M 67.3000,71.3000
67.2886,71.3574
67.2561,71.4061
67.2074,71.4386
67.1500,71.4500
66.1250,71.4500
66.0676,71.4386
66.0189,71.4061
65.9864,71.3574
65.9750,71.3000
65.9750,71.0000
65.9864,70.9426
66.0189,70.8939
66.0676,70.8614
66.1250,70.8500
67.1500,70.8500
67.2074,70.8614
67.2561,70.8939
67.2886,70.9426
67.3000,71.0000
Z" /> 
<path style="fill:#000000; fill-opacity:1.0000; stroke:none;fill-rule:evenodd;"
d="M 71.3625,72.9325
71.3815,72.8368
71.4357,72.7557
71.5168,72.7015
71.6125,72.6825
72.1125,72.6825
72.2082,72.7015
72.2893,72.7557
72.3435,72.8368
72.3625,72.9325
72.3625,73.8825
72.3435,73.9782
72.2893,74.0593
72.2082,74.1135
72.1125,74.1325
71.6125,74.1325
71.5168,74.1135
71.4357,74.0593
71.3815,73.9782
71.3625,73.8825
Z" /> 
<path style="fill:#000000; fill-opacity:1.0000; stroke:none;fill-rule:evenodd;"
d="M 73.2625,72.9325
73.2815,72.8368
73.3357,72.7557
73.4168,72.7015
73.5125,72.6825
74.0125,72.6825
74.1082,72.7015
74.1893,72.7557
74.2435,72.8368
74.2625,72.9325
74.2625,73.8825
74.2435,73.9782
74.1893,74.0593
74.1082,74.1135
74.0125,74.1325
73.5125,74.1325
73.4168,74.1135
73.3357,74.0593
73.2815,73.9782
73.2625,73.8825
Z" /> 
<path style="fill:#000000; fill-opacity:1.0000; stroke:none;fill-rule:evenodd;"
d="M 76.9625,82.2000
76.9435,82.2957
76.8893,82.3768
76.8082,82.4310
76.7125,82.4500
76.1875,82.4500
76.0918,82.4310
76.0107,82.3768
75.9565,82.2957
75.9375,82.2000
75.9375,81.3000
75.9565,81.2043
76.0107,81.1232
76.0918,81.0690
76.1875,81.0500
76.7125,81.0500
76.8082,81.0690
76.8893,81.1232
76.9435,81.2043
76.9625,81.3000
Z" /> 
<path style="fill:#000000; fill-opacity:1.0000; stroke:none;fill-rule:evenodd;"
d="M 75.1375,82.2000
75.1185,82.2957
75.0643,82.3768
74.9832,82.4310
74.8875,82.4500
74.3625,82.4500
74.2668,82.4310
74.1857,82.3768
74.1315,82.2957
74.1125,82.2000
74.1125,81.3000
74.1315,81.2043
74.1857,81.1232
74.2668,81.0690
74.3625,81.0500
74.8875,81.0500
74.9832,81.0690
75.0643,81.1232
75.1185,81.2043
75.1375,81.3000
Z" /> 
<path style="fill:#000000; fill-opacity:1.0000; stroke:none;fill-rule:evenodd;"
d="M 82.1125,71.3825
82.0935,71.4782
82.0393,71.5593
81.9582,71.6135
81.8625,71.6325
81.3625,71.6325
81.2668,71.6135
81.1857,71.5593
81.1315,71.4782
81.1125,71.3825
81.1125,70.4325
81.1315,70.3368
81.1857,70.2557
81.2668,70.2015
81.3625,70.1825
81.8625,70.1825
81.9582,70.2015
82.0393,70.2557
82.0935,70.3368
82.1125,70.4325
Z" /> 
<path style="fill:#000000; fill-opacity:1.0000; stroke:none;fill-rule:evenodd;"
d="M 80.2125,71.3825
80.1935,71.4782
80.1393,71.5593
80.0582,71.6135
79.9625,71.6325
79.4625,71.6325
79.3668,71.6135
79.2857,71.5593
79.2315,71.4782
79.2125,71.3825
79.2125,70.4325
79.2315,70.3368
79.2857,70.2557
79.3668,70.2015
79.4625,70.1825
79.9625,70.1825
80.0582,70.2015
80.1393,70.2557
80.1935,70.3368
80.2125,70.4325
Z" /> 
<path style="fill:#000000; fill-opacity:1.0000; stroke:none;fill-rule:evenodd;"
d="M 68.8125,58.8825
68.7935,58.9782
68.7393,59.0593
68.6582,59.1135
68.5625,59.1325
68.0625,59.1325
67.9668,59.1135
67.8857,59.0593
67.8315,58.9782
67.8125,58.8825
67.8125,57.9325
67.8315,57.8368
67.8857,57.7557
67.9668,57.7015
68.0625,57.6825
68.5625,57.6825
68.6582,57.7015
68.7393,57.7557
68.7935,57.8368
68.8125,57.9325
Z" /> 
<path style="fill:#000000; fill-opacity:1.0000; stroke:none;fill-rule:evenodd;"
d="M 66.9125,58.8825
66.8935,58.9782
66.8393,59.0593
66.7582,59.1135
66.6625,59.1325
66.1625,59.1325
66.0668,59.1135
65.9857,59.0593
65.9315,58.9782
65.9125,58.8825
65.9125,57.9325
65.9315,57.8368
65.9857,57.7557
66.0668,57.7015
66.1625,57.6825
66.6625,57.6825
66.7582,57.7015
66.8393,57.7557
66.8935,57.8368
66.9125,57.9325
Z" /> 
<path style="fill:#000000; fill-opacity:1.0000; stroke:none;fill-rule:evenodd;"
d="M 75.8500,84.6986
75.8310,84.7943
75.7768,84.8754
75.6957,84.9296
75.6000,84.9486
75.1000,84.9486
75.0043,84.9296
74.9232,84.8754
74.8690,84.7943
74.8500,84.6986
74.8500,83.7486
74.8690,83.6529
74.9232,83.5718
75.0043,83.5176
75.1000,83.4986
75.6000,83.4986
75.6957,83.5176
75.7768,83.5718
75.8310,83.6529
75.8500,83.7486
Z" /> 
<path style="fill:#000000; fill-opacity:1.0000; stroke:none;fill-rule:evenodd;"
d="M 73.9500,84.6986
73.9310,84.7943
73.8768,84.8754
73.7957,84.9296
73.7000,84.9486
73.2000,84.9486
73.1043,84.9296
73.0232,84.8754
72.9690,84.7943
72.9500,84.6986
72.9500,83.7486
72.9690,83.6529
73.0232,83.5718
73.1043,83.5176
73.2000,83.4986
73.7000,83.4986
73.7957,83.5176
73.8768,83.5718
73.9310,83.6529
73.9500,83.7486
Z" /> 
<path style="fill:#000000; fill-opacity:1.0000; stroke:none;fill-rule:evenodd;"
d="M 96.9194,92.2926
96.3606,92.2926
96.3606,90.3114
96.9194,90.3114
Z" /> 
<path style="fill:#000000; fill-opacity:1.0000; stroke:none;fill-rule:evenodd;"
d="M 98.1894,92.2926
97.6306,92.2926
97.6306,90.3114
98.1894,90.3114
Z" /> 
<path style="fill:#000000; fill-opacity:1.0000; stroke:none;fill-rule:evenodd;"
d="M 99.4594,92.2926
98.9006,92.2926
98.9006,90.3114
99.4594,90.3114
Z" /> 
<path style="fill:#000000; fill-opacity:1.0000; stroke:none;fill-rule:evenodd;"
d="M 100.7294,92.2926
100.1706,92.2926
100.1706,90.3114
100.7294,90.3114
Z" /> 
<path style="fill:#000000; fill-opacity:1.0000; stroke:none;fill-rule:evenodd;"
d="M 100.7294,87.3650
100.1706,87.3650
100.1706,85.3838
100.7294,85.3838
Z" /> 
<path style="fill:#000000; fill-opacity:1.0000; stroke:none;fill-rule:evenodd;"
d="M 99.4594,87.3650
98.9006,87.3650
98.9006,85.3838
99.4594,85.3838
Z" /> 
<path style="fill:#000000; fill-opacity:1.0000; stroke:none;fill-rule:evenodd;"
d="M 98.1894,87.3650
97.6306,87.3650
97.6306,85.3838
98.1894,85.3838
Z" /> 
<path style="fill:#000000; fill-opacity:1.0000; stroke:none;fill-rule:evenodd;"
d="M 96.9194,87.3650
96.3606,87.3650
96.3606,85.3838
96.9194,85.3838
Z" /> 
<path style="fill:#000000; fill-opacity:1.0000; stroke:none;fill-rule:evenodd;"
d="M 82.1125,76.4025
82.0935,76.4982
82.0393,76.5793
81.9582,76.6335
81.8625,76.6525
81.3625,76.6525
81.2668,76.6335
81.1857,76.5793
81.1315,76.4982
81.1125,76.4025
81.1125,75.4525
81.1315,75.3568
81.1857,75.2757
81.2668,75.2215
81.3625,75.2025
81.8625,75.2025
81.9582,75.2215
82.0393,75.2757
82.0935,75.3568
82.1125,75.4525
Z" /> 
<path style="fill:#000000; fill-opacity:1.0000; stroke:none;fill-rule:evenodd;"
d="M 80.2125,76.4025
80.1935,76.4982
80.1393,76.5793
80.0582,76.6335
79.9625,76.6525
79.4625,76.6525
79.3668,76.6335
79.2857,76.5793
79.2315,76.4982
79.2125,76.4025
79.2125,75.4525
79.2315,75.3568
79.2857,75.2757
79.3668,75.2215
79.4625,75.2025
79.9625,75.2025
80.0582,75.2215
80.1393,75.2757
80.1935,75.3568
80.2125,75.4525
Z" /> 
<path style="fill:#000000; fill-opacity:1.0000; stroke:none;fill-rule:evenodd;"
d="M 62.2750,85.2000
62.1793,85.1810
62.0982,85.1268
62.0440,85.0457
62.0250,84.9500
62.0250,84.4500
62.0440,84.3543
62.0982,84.2732
62.1793,84.2190
62.2750,84.2000
63.2250,84.2000
63.3207,84.2190
63.4018,84.2732
63.4560,84.3543
63.4750,84.4500
63.4750,84.9500
63.4560,85.0457
63.4018,85.1268
63.3207,85.1810
63.2250,85.2000
Z" /> 
<path style="fill:#000000; fill-opacity:1.0000; stroke:none;fill-rule:evenodd;"
d="M 62.2750,83.3000
62.1793,83.2810
62.0982,83.2268
62.0440,83.1457
62.0250,83.0500
62.0250,82.5500
62.0440,82.4543
62.0982,82.3732
62.1793,82.3190
62.2750,82.3000
63.2250,82.3000
63.3207,82.3190
63.4018,82.3732
63.4560,82.4543
63.4750,82.5500
63.4750,83.0500
63.4560,83.1457
63.4018,83.2268
63.3207,83.2810
63.2250,83.3000
Z" /> 
<path style="fill:#000000; fill-opacity:1.0000; stroke:none;fill-rule:evenodd;"
d="M 67.3000,88.5250
67.3190,88.4293
67.3732,88.3482
67.4543,88.2940
67.5500,88.2750
68.0500,88.2750
68.1457,88.2940
68.2268,88.3482
68.2810,88.4293
68.3000,88.5250
68.3000,89.4750
68.2810,89.5707
68.2268,89.6518
68.1457,89.7060
68.0500,89.7250
67.5500,89.7250
67.4543,89.7060
67.3732,89.6518
67.3190,89.5707
67.3000,89.4750
Z" /> 
<path style="fill:#000000; fill-opacity:1.0000; stroke:none;fill-rule:evenodd;"
d="M 69.2000,88.5250
69.2190,88.4293
69.2732,88.3482
69.3543,88.2940
69.4500,88.2750
69.9500,88.2750
70.0457,88.2940
70.1268,88.3482
70.1810,88.4293
70.2000,88.5250
70.2000,89.4750
70.1810,89.5707
70.1268,89.6518
70.0457,89.7060
69.9500,89.7250
69.4500,89.7250
69.3543,89.7060
69.2732,89.6518
69.2190,89.5707
69.2000,89.4750
Z" /> 
<path style="fill:#000000; fill-opacity:1.0000; stroke:none;fill-rule:evenodd;"
d="M 56.5000,84.5000
56.4810,84.5957
56.4268,84.6768
56.3457,84.7310
56.2500,84.7500
55.7500,84.7500
55.6543,84.7310
55.5732,84.6768
55.5190,84.5957
55.5000,84.5000
55.5000,83.5500
55.5190,83.4543
55.5732,83.3732
55.6543,83.3190
55.7500,83.3000
56.2500,83.3000
56.3457,83.3190
56.4268,83.3732
56.4810,83.4543
56.5000,83.5500
Z" /> 
<path style="fill:#000000; fill-opacity:1.0000; stroke:none;fill-rule:evenodd;"
d="M 54.6000,84.5000
54.5810,84.5957
54.5268,84.6768
54.4457,84.7310
54.3500,84.7500
53.8500,84.7500
53.7543,84.7310
53.6732,84.6768
53.6190,84.5957
53.6000,84.5000
53.6000,83.5500
53.6190,83.4543
53.6732,83.3732
53.7543,83.3190
53.8500,83.3000
54.3500,83.3000
54.4457,83.3190
54.5268,83.3732
54.5810,83.4543
54.6000,83.5500
Z" /> 
<path style="fill:#000000; fill-opacity:1.0000; stroke:none;fill-rule:evenodd;"
d="M 81.1750,84.2500
81.2707,84.2690
81.3518,84.3232
81.4060,84.4043
81.4250,84.5000
81.4250,85.0000
81.4060,85.0957
81.3518,85.1768
81.2707,85.2310
81.1750,85.2500
80.2250,85.2500
80.1293,85.2310
80.0482,85.1768
79.9940,85.0957
79.9750,85.0000
79.9750,84.5000
79.9940,84.4043
80.0482,84.3232
80.1293,84.2690
80.2250,84.2500
Z" /> 
<path style="fill:#000000; fill-opacity:1.0000; stroke:none;fill-rule:evenodd;"
d="M 81.1750,86.1500
81.2707,86.1690
81.3518,86.2232
81.4060,86.3043
81.4250,86.4000
81.4250,86.9000
81.4060,86.9957
81.3518,87.0768
81.2707,87.1310
81.1750,87.1500
80.2250,87.1500
80.1293,87.1310
80.0482,87.0768
79.9940,86.9957
79.9750,86.9000
79.9750,86.4000
79.9940,86.3043
80.0482,86.2232
80.1293,86.1690
80.2250,86.1500
Z" /> 
<path style="fill:#000000; fill-opacity:1.0000; stroke:none;fill-rule:evenodd;"
d="M 78.1625,71.3825
78.1435,71.4782
78.0893,71.5593
78.0082,71.6135
77.9125,71.6325
77.4125,71.6325
77.3168,71.6135
77.2357,71.5593
77.1815,71.4782
77.1625,71.3825
77.1625,70.4325
77.1815,70.3368
77.2357,70.2557
77.3168,70.2015
77.4125,70.1825
77.9125,70.1825
78.0082,70.2015
78.0893,70.2557
78.1435,70.3368
78.1625,70.4325
Z" /> 
<path style="fill:#000000; fill-opacity:1.0000; stroke:none;fill-rule:evenodd;"
d="M 76.2625,71.3825
76.2435,71.4782
76.1893,71.5593
76.1082,71.6135
76.0125,71.6325
75.5125,71.6325
75.4168,71.6135
75.3357,71.5593
75.2815,71.4782
75.2625,71.3825
75.2625,70.4325
75.2815,70.3368
75.3357,70.2557
75.4168,70.2015
75.5125,70.1825
76.0125,70.1825
76.1082,70.2015
76.1893,70.2557
76.2435,70.3368
76.2625,70.4325
Z" /> 
<path style="fill:#000000; fill-opacity:1.0000; stroke:none;fill-rule:evenodd;"
d="M 74.0900,50.0885
74.1244,50.0954
74.1536,50.1149
74.1731,50.1441
74.1800,50.1785
74.1800,50.4565
74.1731,50.4909
74.1536,50.5201
74.1244,50.5396
74.0900,50.5465
73.9100,50.5465
73.8756,50.5396
73.8464,50.5201
73.8269,50.4909
73.8200,50.4565
73.8200,50.1785
73.8269,50.1441
73.8464,50.1149
73.8756,50.0954
73.9100,50.0885
Z" /> 
<path style="fill:#000000; fill-opacity:1.0000; stroke:none;fill-rule:evenodd;"
d="M 74.0900,50.9535
74.1244,50.9604
74.1536,50.9799
74.1731,51.0091
74.1800,51.0435
74.1800,51.3215
74.1731,51.3559
74.1536,51.3851
74.1244,51.4046
74.0900,51.4115
73.9100,51.4115
73.8756,51.4046
73.8464,51.3851
73.8269,51.3559
73.8200,51.3215
73.8200,51.0435
73.8269,51.0091
73.8464,50.9799
73.8756,50.9604
73.9100,50.9535
Z" /> 
<path style="fill:#000000; fill-opacity:1.0000; stroke:none;fill-rule:evenodd;"
d="M 91.3049,84.6995
91.3049,92.7005
89.0951,92.7005
89.0951,84.6995
Z" /> 
<path style="fill:#000000; fill-opacity:1.0000; stroke:none;fill-rule:evenodd;"
d="M 85.5899,84.6995
85.5899,92.7005
83.3801,92.7005
83.3801,84.6995
Z" /> 
<path style="fill:#000000; fill-opacity:1.0000; stroke:none;fill-rule:evenodd;"
d="M 85.4500,72.9575
85.4690,72.8618
85.5232,72.7807
85.6043,72.7265
85.7000,72.7075
86.2250,72.7075
86.3207,72.7265
86.4018,72.7807
86.4560,72.8618
86.4750,72.9575
86.4750,73.8575
86.4560,73.9532
86.4018,74.0343
86.3207,74.0885
86.2250,74.1075
85.7000,74.1075
85.6043,74.0885
85.5232,74.0343
85.4690,73.9532
85.4500,73.8575
Z" /> 
<path style="fill:#000000; fill-opacity:1.0000; stroke:none;fill-rule:evenodd;"
d="M 87.2750,72.9575
87.2940,72.8618
87.3482,72.7807
87.4293,72.7265
87.5250,72.7075
88.0500,72.7075
88.1457,72.7265
88.2268,72.7807
88.2810,72.8618
88.3000,72.9575
88.3000,73.8575
88.2810,73.9532
88.2268,74.0343
88.1457,74.0885
88.0500,74.1075
87.5250,74.1075
87.4293,74.0885
87.3482,74.0343
87.2940,73.9532
87.2750,73.8575
Z" /> 
<path style="fill:#000000; fill-opacity:1.0000; stroke:none;fill-rule:evenodd;"
d="M 80.9625,95.2000
80.9435,95.2957
80.8893,95.3768
80.8082,95.4310
80.7125,95.4500
80.1875,95.4500
80.0918,95.4310
80.0107,95.3768
79.9565,95.2957
79.9375,95.2000
79.9375,94.3000
79.9565,94.2043
80.0107,94.1232
80.0918,94.0690
80.1875,94.0500
80.7125,94.0500
80.8082,94.0690
80.8893,94.1232
80.9435,94.2043
80.9625,94.3000
Z" /> 
<path style="fill:#000000; fill-opacity:1.0000; stroke:none;fill-rule:evenodd;"
d="M 79.1375,95.2000
79.1185,95.2957
79.0643,95.3768
78.9832,95.4310
78.8875,95.4500
78.3625,95.4500
78.2668,95.4310
78.1857,95.3768
78.1315,95.2957
78.1125,95.2000
78.1125,94.3000
78.1315,94.2043
78.1857,94.1232
78.2668,94.0690
78.3625,94.0500
78.8875,94.0500
78.9832,94.0690
79.0643,94.1232
79.1185,94.2043
79.1375,94.3000
Z" /> 
<path style="fill:#000000; fill-opacity:1.0000; stroke:none;fill-rule:evenodd;"
d="M 78.1500,76.3637
78.1314,76.4570
78.0786,76.5361
77.9995,76.5889
77.9062,76.6075
77.4188,76.6075
77.3255,76.5889
77.2464,76.5361
77.1936,76.4570
77.1750,76.3637
77.1750,75.4513
77.1936,75.3580
77.2464,75.2789
77.3255,75.2261
77.4188,75.2075
77.9062,75.2075
77.9995,75.2261
78.0786,75.2789
78.1314,75.3580
78.1500,75.4513
Z" /> 
<path style="fill:#000000; fill-opacity:1.0000; stroke:none;fill-rule:evenodd;"
d="M 76.2750,76.3637
76.2564,76.4570
76.2036,76.5361
76.1245,76.5889
76.0312,76.6075
75.5438,76.6075
75.4505,76.5889
75.3714,76.5361
75.3186,76.4570
75.3000,76.3637
75.3000,75.4513
75.3186,75.3580
75.3714,75.2789
75.4505,75.2261
75.5438,75.2075
76.0312,75.2075
76.1245,75.2261
76.2036,75.2789
76.2564,75.3580
76.2750,75.4513
Z" /> 
<path style="fill:#000000; fill-opacity:1.0000; stroke:none;fill-rule:evenodd;"
d="M 49.9125,72.5500
49.9315,72.4543
49.9857,72.3732
50.0668,72.3190
50.1625,72.3000
50.6875,72.3000
50.7832,72.3190
50.8643,72.3732
50.9185,72.4543
50.9375,72.5500
50.9375,73.4500
50.9185,73.5457
50.8643,73.6268
50.7832,73.6810
50.6875,73.7000
50.1625,73.7000
50.0668,73.6810
49.9857,73.6268
49.9315,73.5457
49.9125,73.4500
Z" /> 
<path style="fill:#000000; fill-opacity:1.0000; stroke:none;fill-rule:evenodd;"
d="M 51.7375,72.5500
51.7565,72.4543
51.8107,72.3732
51.8918,72.3190
51.9875,72.3000
52.5125,72.3000
52.6082,72.3190
52.6893,72.3732
52.7435,72.4543
52.7625,72.5500
52.7625,73.4500
52.7435,73.5457
52.6893,73.6268
52.6082,73.6810
52.5125,73.7000
51.9875,73.7000
51.8918,73.6810
51.8107,73.6268
51.7565,73.5457
51.7375,73.4500
Z" /> 
<path style="fill:#000000; fill-opacity:1.0000; stroke:none;fill-rule:evenodd;"
d="M 52.1625,69.5500
52.1815,69.4543
52.2357,69.3732
52.3168,69.3190
52.4125,69.3000
52.9375,69.3000
53.0332,69.3190
53.1143,69.3732
53.1685,69.4543
53.1875,69.5500
53.1875,70.4500
53.1685,70.5457
53.1143,70.6268
53.0332,70.6810
52.9375,70.7000
52.4125,70.7000
52.3168,70.6810
52.2357,70.6268
52.1815,70.5457
52.1625,70.4500
Z" /> 
<path style="fill:#000000; fill-opacity:1.0000; stroke:none;fill-rule:evenodd;"
d="M 53.9875,69.5500
54.0065,69.4543
54.0607,69.3732
54.1418,69.3190
54.2375,69.3000
54.7625,69.3000
54.8582,69.3190
54.9393,69.3732
54.9935,69.4543
55.0125,69.5500
55.0125,70.4500
54.9935,70.5457
54.9393,70.6268
54.8582,70.6810
54.7625,70.7000
54.2375,70.7000
54.1418,70.6810
54.0607,70.6268
54.0065,70.5457
53.9875,70.4500
Z" /> 
<path style="fill:#000000; fill-opacity:1.0000; stroke:none;fill-rule:evenodd;"
d="M 82.1125,73.8825
82.0935,73.9782
82.0393,74.0593
81.9582,74.1135
81.8625,74.1325
81.3625,74.1325
81.2668,74.1135
81.1857,74.0593
81.1315,73.9782
81.1125,73.8825
81.1125,72.9325
81.1315,72.8368
81.1857,72.7557
81.2668,72.7015
81.3625,72.6825
81.8625,72.6825
81.9582,72.7015
82.0393,72.7557
82.0935,72.8368
82.1125,72.9325
Z" /> 
<path style="fill:#000000; fill-opacity:1.0000; stroke:none;fill-rule:evenodd;"
d="M 80.2125,73.8825
80.1935,73.9782
80.1393,74.0593
80.0582,74.1135
79.9625,74.1325
79.4625,74.1325
79.3668,74.1135
79.2857,74.0593
79.2315,73.9782
79.2125,73.8825
79.2125,72.9325
79.2315,72.8368
79.2857,72.7557
79.3668,72.7015
79.4625,72.6825
79.9625,72.6825
80.0582,72.7015
80.1393,72.7557
80.1935,72.8368
80.2125,72.9325
Z" /> 
<path style="fill:#000000; fill-opacity:1.0000; stroke:none;fill-rule:evenodd;"
d="M 60.6000,60.4325
60.6190,60.3368
60.6732,60.2557
60.7543,60.2015
60.8500,60.1825
61.3500,60.1825
61.4457,60.2015
61.5268,60.2557
61.5810,60.3368
61.6000,60.4325
61.6000,61.3825
61.5810,61.4782
61.5268,61.5593
61.4457,61.6135
61.3500,61.6325
60.8500,61.6325
60.7543,61.6135
60.6732,61.5593
60.6190,61.4782
60.6000,61.3825
Z" /> 
<path style="fill:#000000; fill-opacity:1.0000; stroke:none;fill-rule:evenodd;"
d="M 62.5000,60.4325
62.5190,60.3368
62.5732,60.2557
62.6543,60.2015
62.7500,60.1825
63.2500,60.1825
63.3457,60.2015
63.4268,60.2557
63.4810,60.3368
63.5000,60.4325
63.5000,61.3825
63.4810,61.4782
63.4268,61.5593
63.3457,61.6135
63.2500,61.6325
62.7500,61.6325
62.6543,61.6135
62.5732,61.5593
62.5190,61.4782
62.5000,61.3825
Z" /> 
<path style="fill:#000000; fill-opacity:1.0000; stroke:none;fill-rule:evenodd;"
d="M 77.9500,91.7486
77.9690,91.6529
78.0232,91.5718
78.1043,91.5176
78.2000,91.4986
78.7000,91.4986
78.7957,91.5176
78.8768,91.5718
78.9310,91.6529
78.9500,91.7486
78.9500,92.6986
78.9310,92.7943
78.8768,92.8754
78.7957,92.9296
78.7000,92.9486
78.2000,92.9486
78.1043,92.9296
78.0232,92.8754
77.9690,92.7943
77.9500,92.6986
Z" /> 
<path style="fill:#000000; fill-opacity:1.0000; stroke:none;fill-rule:evenodd;"
d="M 79.8500,91.7486
79.8690,91.6529
79.9232,91.5718
80.0043,91.5176
80.1000,91.4986
80.6000,91.4986
80.6957,91.5176
80.7768,91.5718
80.8310,91.6529
80.8500,91.7486
80.8500,92.6986
80.8310,92.7943
80.7768,92.8754
80.6957,92.9296
80.6000,92.9486
80.1000,92.9486
80.0043,92.9296
79.9232,92.8754
79.8690,92.7943
79.8500,92.6986
Z" /> 
<path style="fill:#000000; fill-opacity:1.0000; stroke:none;fill-rule:evenodd;"
d="M 58.6750,66.7750
58.6940,66.6793
58.7482,66.5982
58.8293,66.5440
58.9250,66.5250
59.4250,66.5250
59.5207,66.5440
59.6018,66.5982
59.6560,66.6793
59.6750,66.7750
59.6750,67.7250
59.6560,67.8207
59.6018,67.9018
59.5207,67.9560
59.4250,67.9750
58.9250,67.9750
58.8293,67.9560
58.7482,67.9018
58.6940,67.8207
58.6750,67.7250
Z" /> 
<path style="fill:#000000; fill-opacity:1.0000; stroke:none;fill-rule:evenodd;"
d="M 60.5750,66.7750
60.5940,66.6793
60.6482,66.5982
60.7293,66.5440
60.8250,66.5250
61.3250,66.5250
61.4207,66.5440
61.5018,66.5982
61.5560,66.6793
61.5750,66.7750
61.5750,67.7250
61.5560,67.8207
61.5018,67.9018
61.4207,67.9560
61.3250,67.9750
60.8250,67.9750
60.7293,67.9560
60.6482,67.9018
60.5940,67.8207
60.5750,67.7250
Z" /> 
<path style="fill:#000000; fill-opacity:1.0000; stroke:none;fill-rule:evenodd;"
d="M 62.0125,57.9325
62.0315,57.8368
62.0857,57.7557
62.1668,57.7015
62.2625,57.6825
62.7625,57.6825
62.8582,57.7015
62.9393,57.7557
62.9935,57.8368
63.0125,57.9325
63.0125,58.8825
62.9935,58.9782
62.9393,59.0593
62.8582,59.1135
62.7625,59.1325
62.2625,59.1325
62.1668,59.1135
62.0857,59.0593
62.0315,58.9782
62.0125,58.8825
Z" /> 
<path style="fill:#000000; fill-opacity:1.0000; stroke:none;fill-rule:evenodd;"
d="M 63.9125,57.9325
63.9315,57.8368
63.9857,57.7557
64.0668,57.7015
64.1625,57.6825
64.6625,57.6825
64.7582,57.7015
64.8393,57.7557
64.8935,57.8368
64.9125,57.9325
64.9125,58.8825
64.8935,58.9782
64.8393,59.0593
64.7582,59.1135
64.6625,59.1325
64.1625,59.1325
64.0668,59.1135
63.9857,59.0593
63.9315,58.9782
63.9125,58.8825
Z" /> 
<path style="fill:#000000; fill-opacity:1.0000; stroke:none;fill-rule:evenodd;"
d="M 105.9750,78.7500
106.0707,78.7690
106.1518,78.8232
106.2060,78.9043
106.2250,79.0000
106.2250,79.5000
106.2060,79.5957
106.1518,79.6768
106.0707,79.7310
105.9750,79.7500
105.0250,79.7500
104.9293,79.7310
104.8482,79.6768
104.7940,79.5957
104.7750,79.5000
104.7750,79.0000
104.7940,78.9043
104.8482,78.8232
104.9293,78.7690
105.0250,78.7500
Z" /> 
<path style="fill:#000000; fill-opacity:1.0000; stroke:none;fill-rule:evenodd;"
d="M 105.9750,80.6500
106.0707,80.6690
106.1518,80.7232
106.2060,80.8043
106.2250,80.9000
106.2250,81.4000
106.2060,81.4957
106.1518,81.5768
106.0707,81.6310
105.9750,81.6500
105.0250,81.6500
104.9293,81.6310
104.8482,81.5768
104.7940,81.4957
104.7750,81.4000
104.7750,80.9000
104.7940,80.8043
104.8482,80.7232
104.9293,80.6690
105.0250,80.6500
Z" /> 
<path style="fill:#000000; fill-opacity:1.0000; stroke:none;fill-rule:evenodd;"
d="M 75.7125,55.9200
75.6168,55.9010
75.5357,55.8468
75.4815,55.7657
75.4625,55.6700
75.4625,55.1450
75.4815,55.0493
75.5357,54.9682
75.6168,54.9140
75.7125,54.8950
76.6125,54.8950
76.7082,54.9140
76.7893,54.9682
76.8435,55.0493
76.8625,55.1450
76.8625,55.6700
76.8435,55.7657
76.7893,55.8468
76.7082,55.9010
76.6125,55.9200
Z" /> 
<path style="fill:#000000; fill-opacity:1.0000; stroke:none;fill-rule:evenodd;"
d="M 75.7125,54.0950
75.6168,54.0760
75.5357,54.0218
75.4815,53.9407
75.4625,53.8450
75.4625,53.3200
75.4815,53.2243
75.5357,53.1432
75.6168,53.0890
75.7125,53.0700
76.6125,53.0700
76.7082,53.0890
76.7893,53.1432
76.8435,53.2243
76.8625,53.3200
76.8625,53.8450
76.8435,53.9407
76.7893,54.0218
76.7082,54.0760
76.6125,54.0950
Z" /> 
<path style="fill:#000000; fill-opacity:1.0000; stroke:none;fill-rule:evenodd;"
d="M 72.4194,92.9182
71.8606,92.9182
71.8606,90.9370
72.4194,90.9370
Z" /> 
<path style="fill:#000000; fill-opacity:1.0000; stroke:none;fill-rule:evenodd;"
d="M 73.6894,92.9182
73.1306,92.9182
73.1306,90.9370
73.6894,90.9370
Z" /> 
<path style="fill:#000000; fill-opacity:1.0000; stroke:none;fill-rule:evenodd;"
d="M 74.9594,92.9182
74.4006,92.9182
74.4006,90.9370
74.9594,90.9370
Z" /> 
<path style="fill:#000000; fill-opacity:1.0000; stroke:none;fill-rule:evenodd;"
d="M 76.2294,92.9182
75.6706,92.9182
75.6706,90.9370
76.2294,90.9370
Z" /> 
<path style="fill:#000000; fill-opacity:1.0000; stroke:none;fill-rule:evenodd;"
d="M 76.2294,87.9906
75.6706,87.9906
75.6706,86.0094
76.2294,86.0094
Z" /> 
<path style="fill:#000000; fill-opacity:1.0000; stroke:none;fill-rule:evenodd;"
d="M 74.9594,87.9906
74.4006,87.9906
74.4006,86.0094
74.9594,86.0094
Z" /> 
<path style="fill:#000000; fill-opacity:1.0000; stroke:none;fill-rule:evenodd;"
d="M 73.6894,87.9906
73.1306,87.9906
73.1306,86.0094
73.6894,86.0094
Z" /> 
<path style="fill:#000000; fill-opacity:1.0000; stroke:none;fill-rule:evenodd;"
d="M 72.4194,87.9906
71.8606,87.9906
71.8606,86.0094
72.4194,86.0094
Z" /> 
<path style="fill:#000000; fill-opacity:1.0000; stroke:none;fill-rule:evenodd;"
d="M 59.9500,86.0750
60.0457,86.0940
60.1268,86.1482
60.1810,86.2293
60.2000,86.3250
60.2000,86.8500
60.1810,86.9457
60.1268,87.0268
60.0457,87.0810
59.9500,87.1000
59.0500,87.1000
58.9543,87.0810
58.8732,87.0268
58.8190,86.9457
58.8000,86.8500
58.8000,86.3250
58.8190,86.2293
58.8732,86.1482
58.9543,86.0940
59.0500,86.0750
Z" /> 
<path style="fill:#000000; fill-opacity:1.0000; stroke:none;fill-rule:evenodd;"
d="M 59.9500,87.9000
60.0457,87.9190
60.1268,87.9732
60.1810,88.0543
60.2000,88.1500
60.2000,88.6750
60.1810,88.7707
60.1268,88.8518
60.0457,88.9060
59.9500,88.9250
59.0500,88.9250
58.9543,88.9060
58.8732,88.8518
58.8190,88.7707
58.8000,88.6750
58.8000,88.1500
58.8190,88.0543
58.8732,87.9732
58.9543,87.9190
59.0500,87.9000
Z" /> 
<path style="fill:#000000; fill-opacity:1.0000; stroke:none;fill-rule:evenodd;"
d="M 60.6125,95.0770
60.5935,95.1727
60.5393,95.2538
60.4582,95.3080
60.3625,95.3270
59.8375,95.3270
59.7418,95.3080
59.6607,95.2538
59.6065,95.1727
59.5875,95.0770
59.5875,94.1770
59.6065,94.0813
59.6607,94.0002
59.7418,93.9460
59.8375,93.9270
60.3625,93.9270
60.4582,93.9460
60.5393,94.0002
60.5935,94.0813
60.6125,94.1770
Z" /> 
<path style="fill:#000000; fill-opacity:1.0000; stroke:none;fill-rule:evenodd;"
d="M 58.7875,95.0770
58.7685,95.1727
58.7143,95.2538
58.6332,95.3080
58.5375,95.3270
58.0125,95.3270
57.9168,95.3080
57.8357,95.2538
57.7815,95.1727
57.7625,95.0770
57.7625,94.1770
57.7815,94.0813
57.8357,94.0002
57.9168,93.9460
58.0125,93.9270
58.5375,93.9270
58.6332,93.9460
58.7143,94.0002
58.7685,94.0813
58.7875,94.1770
Z" /> 
<path style="fill:#000000; fill-opacity:1.0000; stroke:none;fill-rule:evenodd;"
d="M 100.2375,72.5125
100.1801,72.5011
100.1314,72.4686
100.0989,72.4199
100.0875,72.3625
100.0875,72.0625
100.0989,72.0051
100.1314,71.9564
100.1801,71.9239
100.2375,71.9125
101.0875,71.9125
101.1449,71.9239
101.1936,71.9564
101.2261,72.0051
101.2375,72.0625
101.2375,72.3625
101.2261,72.4199
101.1936,72.4686
101.1449,72.5011
101.0875,72.5125
Z" /> 
<path style="fill:#000000; fill-opacity:1.0000; stroke:none;fill-rule:evenodd;"
d="M 100.2375,71.7125
100.1801,71.7011
100.1314,71.6686
100.0989,71.6199
100.0875,71.5625
100.0875,71.2625
100.0989,71.2051
100.1314,71.1564
100.1801,71.1239
100.2375,71.1125
101.0875,71.1125
101.1449,71.1239
101.1936,71.1564
101.2261,71.2051
101.2375,71.2625
101.2375,71.5625
101.2261,71.6199
101.1936,71.6686
101.1449,71.7011
101.0875,71.7125
Z" /> 
<path style="fill:#000000; fill-opacity:1.0000; stroke:none;fill-rule:evenodd;"
d="M 100.1625,70.4125
100.1338,70.4068
100.1095,70.3905
100.0932,70.3662
100.0875,70.3375
100.0875,70.1875
100.0932,70.1588
100.1095,70.1345
100.1338,70.1182
100.1625,70.1125
101.1625,70.1125
101.1912,70.1182
101.2155,70.1345
101.2318,70.1588
101.2375,70.1875
101.2375,70.3375
101.2318,70.3662
101.2155,70.3905
101.1912,70.4068
101.1625,70.4125
Z" /> 
<path style="fill:#000000; fill-opacity:1.0000; stroke:none;fill-rule:evenodd;"
d="M 100.1625,69.4125
100.1338,69.4068
100.1095,69.3905
100.0932,69.3662
100.0875,69.3375
100.0875,69.1875
100.0932,69.1588
100.1095,69.1345
100.1338,69.1182
100.1625,69.1125
101.1625,69.1125
101.1912,69.1182
101.2155,69.1345
101.2318,69.1588
101.2375,69.1875
101.2375,69.3375
101.2318,69.3662
101.2155,69.3905
101.1912,69.4068
101.1625,69.4125
Z" /> 
<path style="fill:#000000; fill-opacity:1.0000; stroke:none;fill-rule:evenodd;"
d="M 100.1625,68.9125
100.1338,68.9068
100.1095,68.8905
100.0932,68.8662
100.0875,68.8375
100.0875,68.6875
100.0932,68.6588
100.1095,68.6345
100.1338,68.6182
100.1625,68.6125
101.1625,68.6125
101.1912,68.6182
101.2155,68.6345
101.2318,68.6588
101.2375,68.6875
101.2375,68.8375
101.2318,68.8662
101.2155,68.8905
101.1912,68.9068
101.1625,68.9125
Z" /> 
<path style="fill:#000000; fill-opacity:1.0000; stroke:none;fill-rule:evenodd;"
d="M 100.1625,67.9125
100.1338,67.9068
100.1095,67.8905
100.0932,67.8662
100.0875,67.8375
100.0875,67.6875
100.0932,67.6588
100.1095,67.6345
100.1338,67.6182
100.1625,67.6125
101.1625,67.6125
101.1912,67.6182
101.2155,67.6345
101.2318,67.6588
101.2375,67.6875
101.2375,67.8375
101.2318,67.8662
101.2155,67.8905
101.1912,67.9068
101.1625,67.9125
Z" /> 
<path style="fill:#000000; fill-opacity:1.0000; stroke:none;fill-rule:evenodd;"
d="M 100.2375,66.9125
100.1801,66.9011
100.1314,66.8686
100.0989,66.8199
100.0875,66.7625
100.0875,66.4625
100.0989,66.4051
100.1314,66.3564
100.1801,66.3239
100.2375,66.3125
101.0875,66.3125
101.1449,66.3239
101.1936,66.3564
101.2261,66.4051
101.2375,66.4625
101.2375,66.7625
101.2261,66.8199
101.1936,66.8686
101.1449,66.9011
101.0875,66.9125
Z" /> 
<path style="fill:#000000; fill-opacity:1.0000; stroke:none;fill-rule:evenodd;"
d="M 100.2375,66.1125
100.1801,66.1011
100.1314,66.0686
100.0989,66.0199
100.0875,65.9625
100.0875,65.6625
100.0989,65.6051
100.1314,65.5564
100.1801,65.5239
100.2375,65.5125
101.0875,65.5125
101.1449,65.5239
101.1936,65.5564
101.2261,65.6051
101.2375,65.6625
101.2375,65.9625
101.2261,66.0199
101.1936,66.0686
101.1449,66.1011
101.0875,66.1125
Z" /> 
<path style="fill:#000000; fill-opacity:1.0000; stroke:none;fill-rule:evenodd;"
d="M 100.2375,66.1125
100.1801,66.1011
100.1314,66.0686
100.0989,66.0199
100.0875,65.9625
100.0875,65.6625
100.0989,65.6051
100.1314,65.5564
100.1801,65.5239
100.2375,65.5125
101.0875,65.5125
101.1449,65.5239
101.1936,65.5564
101.2261,65.6051
101.2375,65.6625
101.2375,65.9625
101.2261,66.0199
101.1936,66.0686
101.1449,66.1011
101.0875,66.1125
Z" /> 
<path style="fill:#000000; fill-opacity:1.0000; stroke:none;fill-rule:evenodd;"
d="M 100.2375,66.9125
100.1801,66.9011
100.1314,66.8686
100.0989,66.8199
100.0875,66.7625
100.0875,66.4625
100.0989,66.4051
100.1314,66.3564
100.1801,66.3239
100.2375,66.3125
101.0875,66.3125
101.1449,66.3239
101.1936,66.3564
101.2261,66.4051
101.2375,66.4625
101.2375,66.7625
101.2261,66.8199
101.1936,66.8686
101.1449,66.9011
101.0875,66.9125
Z" /> 
<path style="fill:#000000; fill-opacity:1.0000; stroke:none;fill-rule:evenodd;"
d="M 100.1625,67.4125
100.1338,67.4068
100.1095,67.3905
100.0932,67.3662
100.0875,67.3375
100.0875,67.1875
100.0932,67.1588
100.1095,67.1345
100.1338,67.1182
100.1625,67.1125
101.1625,67.1125
101.1912,67.1182
101.2155,67.1345
101.2318,67.1588
101.2375,67.1875
101.2375,67.3375
101.2318,67.3662
101.2155,67.3905
101.1912,67.4068
101.1625,67.4125
Z" /> 
<path style="fill:#000000; fill-opacity:1.0000; stroke:none;fill-rule:evenodd;"
d="M 100.1625,68.4125
100.1338,68.4068
100.1095,68.3905
100.0932,68.3662
100.0875,68.3375
100.0875,68.1875
100.0932,68.1588
100.1095,68.1345
100.1338,68.1182
100.1625,68.1125
101.1625,68.1125
101.1912,68.1182
101.2155,68.1345
101.2318,68.1588
101.2375,68.1875
101.2375,68.3375
101.2318,68.3662
101.2155,68.3905
101.1912,68.4068
101.1625,68.4125
Z" /> 
<path style="fill:#000000; fill-opacity:1.0000; stroke:none;fill-rule:evenodd;"
d="M 100.1625,69.9125
100.1338,69.9068
100.1095,69.8905
100.0932,69.8662
100.0875,69.8375
100.0875,69.6875
100.0932,69.6588
100.1095,69.6345
100.1338,69.6182
100.1625,69.6125
101.1625,69.6125
101.1912,69.6182
101.2155,69.6345
101.2318,69.6588
101.2375,69.6875
101.2375,69.8375
101.2318,69.8662
101.2155,69.8905
101.1912,69.9068
101.1625,69.9125
Z" /> 
<path style="fill:#000000; fill-opacity:1.0000; stroke:none;fill-rule:evenodd;"
d="M 100.1625,70.9125
100.1338,70.9068
100.1095,70.8905
100.0932,70.8662
100.0875,70.8375
100.0875,70.6875
100.0932,70.6588
100.1095,70.6345
100.1338,70.6182
100.1625,70.6125
101.1625,70.6125
101.1912,70.6182
101.2155,70.6345
101.2318,70.6588
101.2375,70.6875
101.2375,70.8375
101.2318,70.8662
101.2155,70.8905
101.1912,70.9068
101.1625,70.9125
Z" /> 
<path style="fill:#000000; fill-opacity:1.0000; stroke:none;fill-rule:evenodd;"
d="M 100.2375,71.7125
100.1801,71.7011
100.1314,71.6686
100.0989,71.6199
100.0875,71.5625
100.0875,71.2625
100.0989,71.2051
100.1314,71.1564
100.1801,71.1239
100.2375,71.1125
101.0875,71.1125
101.1449,71.1239
101.1936,71.1564
101.2261,71.2051
101.2375,71.2625
101.2375,71.5625
101.2261,71.6199
101.1936,71.6686
101.1449,71.7011
101.0875,71.7125
Z" /> 
<path style="fill:#000000; fill-opacity:1.0000; stroke:none;fill-rule:evenodd;"
d="M 100.2375,72.5125
100.1801,72.5011
100.1314,72.4686
100.0989,72.4199
100.0875,72.3625
100.0875,72.0625
100.0989,72.0051
100.1314,71.9564
100.1801,71.9239
100.2375,71.9125
101.0875,71.9125
101.1449,71.9239
101.1936,71.9564
101.2261,72.0051
101.2375,72.0625
101.2375,72.3625
101.2261,72.4199
101.1936,72.4686
101.1449,72.5011
101.0875,72.5125
Z" /> 
</g>
<g style="fill:none; 
stroke:#000000; stroke-width:1.0000; stroke-opacity:1; 
stroke-linecap:round; stroke-linejoin:round;">
<path d="M100.6875 73.3325
L101.7875 73.3325
" />
<path d="M105.0175 73.3325
L105.8175 73.3325
" />
<path d="M100.6875 64.6925
L101.7875 64.6925
" />
<path d="M105.0175 64.6925
L105.8175 64.6925
" />
<path style="fill:#000000; fill-opacity:1.0000; stroke:none;fill-rule:evenodd;"
d="M 78.9000,86.4125
78.9957,86.4315
79.0768,86.4857
79.1310,86.5668
79.1500,86.6625
79.1500,87.1875
79.1310,87.2832
79.0768,87.3643
78.9957,87.4185
78.9000,87.4375
78.0000,87.4375
77.9043,87.4185
77.8232,87.3643
77.7690,87.2832
77.7500,87.1875
77.7500,86.6625
77.7690,86.5668
77.8232,86.4857
77.9043,86.4315
78.0000,86.4125
Z" /> 
<path style="fill:#000000; fill-opacity:1.0000; stroke:none;fill-rule:evenodd;"
d="M 78.9000,88.2375
78.9957,88.2565
79.0768,88.3107
79.1310,88.3918
79.1500,88.4875
79.1500,89.0125
79.1310,89.1082
79.0768,89.1893
78.9957,89.2435
78.9000,89.2625
78.0000,89.2625
77.9043,89.2435
77.8232,89.1893
77.7690,89.1082
77.7500,89.0125
77.7500,88.4875
77.7690,88.3918
77.8232,88.3107
77.9043,88.2565
78.0000,88.2375
Z" /> 
<path style="fill:#000000; fill-opacity:1.0000; stroke:none;fill-rule:evenodd;"
d="M 53.0750,79.6250
53.1707,79.6440
53.2518,79.6982
53.3060,79.7793
53.3250,79.8750
53.3250,80.3750
53.3060,80.4707
53.2518,80.5518
53.1707,80.6060
53.0750,80.6250
52.1250,80.6250
52.0293,80.6060
51.9482,80.5518
51.8940,80.4707
51.8750,80.3750
51.8750,79.8750
51.8940,79.7793
51.9482,79.6982
52.0293,79.6440
52.1250,79.6250
Z" /> 
<path style="fill:#000000; fill-opacity:1.0000; stroke:none;fill-rule:evenodd;"
d="M 53.0750,81.5250
53.1707,81.5440
53.2518,81.5982
53.3060,81.6793
53.3250,81.7750
53.3250,82.2750
53.3060,82.3707
53.2518,82.4518
53.1707,82.5060
53.0750,82.5250
52.1250,82.5250
52.0293,82.5060
51.9482,82.4518
51.8940,82.3707
51.8750,82.2750
51.8750,81.7750
51.8940,81.6793
51.9482,81.5982
52.0293,81.5440
52.1250,81.5250
Z" /> 
<path style="fill:#000000; fill-opacity:1.0000; stroke:none;fill-rule:evenodd;"
d="M 75.2625,72.9325
75.2815,72.8368
75.3357,72.7557
75.4168,72.7015
75.5125,72.6825
76.0125,72.6825
76.1082,72.7015
76.1893,72.7557
76.2435,72.8368
76.2625,72.9325
76.2625,73.8825
76.2435,73.9782
76.1893,74.0593
76.1082,74.1135
76.0125,74.1325
75.5125,74.1325
75.4168,74.1135
75.3357,74.0593
75.2815,73.9782
75.2625,73.8825
Z" /> 
<path style="fill:#000000; fill-opacity:1.0000; stroke:none;fill-rule:evenodd;"
d="M 77.1625,72.9325
77.1815,72.8368
77.2357,72.7557
77.3168,72.7015
77.4125,72.6825
77.9125,72.6825
78.0082,72.7015
78.0893,72.7557
78.1435,72.8368
78.1625,72.9325
78.1625,73.8825
78.1435,73.9782
78.0893,74.0593
78.0082,74.1135
77.9125,74.1325
77.4125,74.1325
77.3168,74.1135
77.2357,74.0593
77.1815,73.9782
77.1625,73.8825
Z" /> 
<path style="fill:#000000; fill-opacity:1.0000; stroke:none;fill-rule:evenodd;"
d="M 48.9125,48.5500
48.9315,48.4543
48.9857,48.3732
49.0668,48.3190
49.1625,48.3000
49.6875,48.3000
49.7832,48.3190
49.8643,48.3732
49.9185,48.4543
49.9375,48.5500
49.9375,49.4500
49.9185,49.5457
49.8643,49.6268
49.7832,49.6810
49.6875,49.7000
49.1625,49.7000
49.0668,49.6810
48.9857,49.6268
48.9315,49.5457
48.9125,49.4500
Z" /> 
<path style="fill:#000000; fill-opacity:1.0000; stroke:none;fill-rule:evenodd;"
d="M 50.7375,48.5500
50.7565,48.4543
50.8107,48.3732
50.8918,48.3190
50.9875,48.3000
51.5125,48.3000
51.6082,48.3190
51.6893,48.3732
51.7435,48.4543
51.7625,48.5500
51.7625,49.4500
51.7435,49.5457
51.6893,49.6268
51.6082,49.6810
51.5125,49.7000
50.9875,49.7000
50.8918,49.6810
50.8107,49.6268
50.7565,49.5457
50.7375,49.4500
Z" /> 
<path style="fill:#000000; fill-opacity:1.0000; stroke:none;fill-rule:evenodd;"
d="M 59.0250,92.9000
58.9293,92.8810
58.8482,92.8268
58.7940,92.7457
58.7750,92.6500
58.7750,92.1500
58.7940,92.0543
58.8482,91.9732
58.9293,91.9190
59.0250,91.9000
59.9750,91.9000
60.0707,91.9190
60.1518,91.9732
60.2060,92.0543
60.2250,92.1500
60.2250,92.6500
60.2060,92.7457
60.1518,92.8268
60.0707,92.8810
59.9750,92.9000
Z" /> 
<path style="fill:#000000; fill-opacity:1.0000; stroke:none;fill-rule:evenodd;"
d="M 59.0250,91.0000
58.9293,90.9810
58.8482,90.9268
58.7940,90.8457
58.7750,90.7500
58.7750,90.2500
58.7940,90.1543
58.8482,90.0732
58.9293,90.0190
59.0250,90.0000
59.9750,90.0000
60.0707,90.0190
60.1518,90.0732
60.2060,90.1543
60.2250,90.2500
60.2250,90.7500
60.2060,90.8457
60.1518,90.9268
60.0707,90.9810
59.9750,91.0000
Z" /> 
<path style="fill:#000000; fill-opacity:1.0000; stroke:none;fill-rule:evenodd;"
d="M 61.6000,71.0000
61.5810,71.0957
61.5268,71.1768
61.4457,71.2310
61.3500,71.2500
60.8000,71.2500
60.7043,71.2310
60.6232,71.1768
60.5690,71.0957
60.5500,71.0000
60.5500,69.5000
60.5690,69.4043
60.6232,69.3232
60.7043,69.2690
60.8000,69.2500
61.3500,69.2500
61.4457,69.2690
61.5268,69.3232
61.5810,69.4043
61.6000,69.5000
Z" /> 
<path style="fill:#000000; fill-opacity:1.0000; stroke:none;fill-rule:evenodd;"
d="M 57.1500,71.0000
57.1310,71.0957
57.0768,71.1768
56.9957,71.2310
56.9000,71.2500
56.3500,71.2500
56.2543,71.2310
56.1732,71.1768
56.1190,71.0957
56.1000,71.0000
56.1000,69.5000
56.1190,69.4043
56.1732,69.3232
56.2543,69.2690
56.3500,69.2500
56.9000,69.2500
56.9957,69.2690
57.0768,69.3232
57.1310,69.4043
57.1500,69.5000
Z" /> 
<path style="fill:#000000; fill-opacity:1.0000; stroke:none;fill-rule:evenodd;"
d="M 96.0000,82.2125
95.9043,82.1935
95.8232,82.1393
95.7690,82.0582
95.7500,81.9625
95.7500,81.4375
95.7690,81.3418
95.8232,81.2607
95.9043,81.2065
96.0000,81.1875
96.9000,81.1875
96.9957,81.2065
97.0768,81.2607
97.1310,81.3418
97.1500,81.4375
97.1500,81.9625
97.1310,82.0582
97.0768,82.1393
96.9957,82.1935
96.9000,82.2125
Z" /> 
<path style="fill:#000000; fill-opacity:1.0000; stroke:none;fill-rule:evenodd;"
d="M 96.0000,80.3875
95.9043,80.3685
95.8232,80.3143
95.7690,80.2332
95.7500,80.1375
95.7500,79.6125
95.7690,79.5168
95.8232,79.4357
95.9043,79.3815
96.0000,79.3625
96.9000,79.3625
96.9957,79.3815
97.0768,79.4357
97.1310,79.5168
97.1500,79.6125
97.1500,80.1375
97.1310,80.2332
97.0768,80.3143
96.9957,80.3685
96.9000,80.3875
Z" /> 
<path style="fill:#000000; fill-opacity:1.0000; stroke:none;fill-rule:evenodd;"
d="M 59.5500,81.6875
59.6457,81.7065
59.7268,81.7607
59.7810,81.8418
59.8000,81.9375
59.8000,82.4625
59.7810,82.5582
59.7268,82.6393
59.6457,82.6935
59.5500,82.7125
58.6500,82.7125
58.5543,82.6935
58.4732,82.6393
58.4190,82.5582
58.4000,82.4625
58.4000,81.9375
58.4190,81.8418
58.4732,81.7607
58.5543,81.7065
58.6500,81.6875
Z" /> 
<path style="fill:#000000; fill-opacity:1.0000; stroke:none;fill-rule:evenodd;"
d="M 59.5500,83.5125
59.6457,83.5315
59.7268,83.5857
59.7810,83.6668
59.8000,83.7625
59.8000,84.2875
59.7810,84.3832
59.7268,84.4643
59.6457,84.5185
59.5500,84.5375
58.6500,84.5375
58.5543,84.5185
58.4732,84.4643
58.4190,84.3832
58.4000,84.2875
58.4000,83.7625
58.4190,83.6668
58.4732,83.5857
58.5543,83.5315
58.6500,83.5125
Z" /> 
<path style="fill:#000000; fill-opacity:1.0000; stroke:none;fill-rule:evenodd;"
d="M 51.0750,87.6250
51.1707,87.6440
51.2518,87.6982
51.3060,87.7793
51.3250,87.8750
51.3250,88.3750
51.3060,88.4707
51.2518,88.5518
51.1707,88.6060
51.0750,88.6250
50.1250,88.6250
50.0293,88.6060
49.9482,88.5518
49.8940,88.4707
49.8750,88.3750
49.8750,87.8750
49.8940,87.7793
49.9482,87.6982
50.0293,87.6440
50.1250,87.6250
Z" /> 
<path style="fill:#000000; fill-opacity:1.0000; stroke:none;fill-rule:evenodd;"
d="M 51.0750,89.5250
51.1707,89.5440
51.2518,89.5982
51.3060,89.6793
51.3250,89.7750
51.3250,90.2750
51.3060,90.3707
51.2518,90.4518
51.1707,90.5060
51.0750,90.5250
50.1250,90.5250
50.0293,90.5060
49.9482,90.4518
49.8940,90.3707
49.8750,90.2750
49.8750,89.7750
49.8940,89.6793
49.9482,89.5982
50.0293,89.5440
50.1250,89.5250
Z" /> 
<path style="fill:#000000; fill-opacity:1.0000; stroke:none;fill-rule:evenodd;"
d="M 63.2625,62.5575
63.3390,62.5727
63.4039,62.6161
63.4473,62.6810
63.4625,62.7575
63.4625,63.2575
63.4473,63.3340
63.4039,63.3989
63.3390,63.4423
63.2625,63.4575
62.8625,63.4575
62.7860,63.4423
62.7211,63.3989
62.6777,63.3340
62.6625,63.2575
62.6625,62.7575
62.6777,62.6810
62.7211,62.6161
62.7860,62.5727
62.8625,62.5575
Z" /> 
<path style="fill:#000000; fill-opacity:1.0000; stroke:none;fill-rule:evenodd;"
d="M 63.2625,63.9575
63.3390,63.9727
63.4039,64.0161
63.4473,64.0810
63.4625,64.1575
63.4625,64.6575
63.4473,64.7340
63.4039,64.7989
63.3390,64.8423
63.2625,64.8575
62.8625,64.8575
62.7860,64.8423
62.7211,64.7989
62.6777,64.7340
62.6625,64.6575
62.6625,64.1575
62.6777,64.0810
62.7211,64.0161
62.7860,63.9727
62.8625,63.9575
Z" /> 
<path style="fill:#000000; fill-opacity:1.0000; stroke:none;fill-rule:evenodd;"
d="M 64.3625,63.9575
64.4390,63.9727
64.5039,64.0161
64.5473,64.0810
64.5625,64.1575
64.5625,64.6575
64.5473,64.7340
64.5039,64.7989
64.4390,64.8423
64.3625,64.8575
63.9625,64.8575
63.8860,64.8423
63.8211,64.7989
63.7777,64.7340
63.7625,64.6575
63.7625,64.1575
63.7777,64.0810
63.8211,64.0161
63.8860,63.9727
63.9625,63.9575
Z" /> 
<path style="fill:#000000; fill-opacity:1.0000; stroke:none;fill-rule:evenodd;"
d="M 64.3625,62.5575
64.4390,62.5727
64.5039,62.6161
64.5473,62.6810
64.5625,62.7575
64.5625,63.2575
64.5473,63.3340
64.5039,63.3989
64.4390,63.4423
64.3625,63.4575
63.9625,63.4575
63.8860,63.4423
63.8211,63.3989
63.7777,63.3340
63.7625,63.2575
63.7625,62.7575
63.7777,62.6810
63.8211,62.6161
63.8860,62.5727
63.9625,62.5575
Z" /> 
<path style="fill:#000000; fill-opacity:1.0000; stroke:none;fill-rule:evenodd;"
d="M 71.3250,75.4575
71.3440,75.3618
71.3982,75.2807
71.4793,75.2265
71.5750,75.2075
72.1000,75.2075
72.1957,75.2265
72.2768,75.2807
72.3310,75.3618
72.3500,75.4575
72.3500,76.3575
72.3310,76.4532
72.2768,76.5343
72.1957,76.5885
72.1000,76.6075
71.5750,76.6075
71.4793,76.5885
71.3982,76.5343
71.3440,76.4532
71.3250,76.3575
Z" /> 
<path style="fill:#000000; fill-opacity:1.0000; stroke:none;fill-rule:evenodd;"
d="M 73.1500,75.4575
73.1690,75.3618
73.2232,75.2807
73.3043,75.2265
73.4000,75.2075
73.9250,75.2075
74.0207,75.2265
74.1018,75.2807
74.1560,75.3618
74.1750,75.4575
74.1750,76.3575
74.1560,76.4532
74.1018,76.5343
74.0207,76.5885
73.9250,76.6075
73.4000,76.6075
73.3043,76.5885
73.2232,76.5343
73.1690,76.4532
73.1500,76.3575
Z" /> 
<path style="fill:#000000; fill-opacity:1.0000; stroke:none;fill-rule:evenodd;"
d="M 73.4500,82.2250
73.4310,82.3207
73.3768,82.4018
73.2957,82.4560
73.2000,82.4750
72.7000,82.4750
72.6043,82.4560
72.5232,82.4018
72.4690,82.3207
72.4500,82.2250
72.4500,81.2750
72.4690,81.1793
72.5232,81.0982
72.6043,81.0440
72.7000,81.0250
73.2000,81.0250
73.2957,81.0440
73.3768,81.0982
73.4310,81.1793
73.4500,81.2750
Z" /> 
<path style="fill:#000000; fill-opacity:1.0000; stroke:none;fill-rule:evenodd;"
d="M 71.5500,82.2250
71.5310,82.3207
71.4768,82.4018
71.3957,82.4560
71.3000,82.4750
70.8000,82.4750
70.7043,82.4560
70.6232,82.4018
70.5690,82.3207
70.5500,82.2250
70.5500,81.2750
70.5690,81.1793
70.6232,81.0982
70.7043,81.0440
70.8000,81.0250
71.3000,81.0250
71.3957,81.0440
71.4768,81.0982
71.5310,81.1793
71.5500,81.2750
Z" /> 
<path style="fill:#000000; fill-opacity:1.0000; stroke:none;fill-rule:evenodd;"
d="M 58.6000,76.7000
58.6190,76.6043
58.6732,76.5232
58.7543,76.4690
58.8500,76.4500
59.7500,76.4500
59.8457,76.4690
59.9268,76.5232
59.9810,76.6043
60.0000,76.7000
60.0000,80.3000
59.9810,80.3957
59.9268,80.4768
59.8457,80.5310
59.7500,80.5500
58.8500,80.5500
58.7543,80.5310
58.6732,80.4768
58.6190,80.3957
58.6000,80.3000
Z" /> 
<path style="fill:#000000; fill-opacity:1.0000; stroke:none;fill-rule:evenodd;"
d="M 61.3000,76.7000
61.3190,76.6043
61.3732,76.5232
61.4543,76.4690
61.5500,76.4500
62.4500,76.4500
62.5457,76.4690
62.6268,76.5232
62.6810,76.6043
62.7000,76.7000
62.7000,80.3000
62.6810,80.3957
62.6268,80.4768
62.5457,80.5310
62.4500,80.5500
61.5500,80.5500
61.4543,80.5310
61.3732,80.4768
61.3190,80.3957
61.3000,80.3000
Z" /> 
<path style="fill:#000000; fill-opacity:1.0000; stroke:none;fill-rule:evenodd;"
d="M 49.1625,61.0500
49.1815,60.9543
49.2357,60.8732
49.3168,60.8190
49.4125,60.8000
49.9375,60.8000
50.0332,60.8190
50.1143,60.8732
50.1685,60.9543
50.1875,61.0500
50.1875,61.9500
50.1685,62.0457
50.1143,62.1268
50.0332,62.1810
49.9375,62.2000
49.4125,62.2000
49.3168,62.1810
49.2357,62.1268
49.1815,62.0457
49.1625,61.9500
Z" /> 
<path style="fill:#000000; fill-opacity:1.0000; stroke:none;fill-rule:evenodd;"
d="M 50.9875,61.0500
51.0065,60.9543
51.0607,60.8732
51.1418,60.8190
51.2375,60.8000
51.7625,60.8000
51.8582,60.8190
51.9393,60.8732
51.9935,60.9543
52.0125,61.0500
52.0125,61.9500
51.9935,62.0457
51.9393,62.1268
51.8582,62.1810
51.7625,62.2000
51.2375,62.2000
51.1418,62.1810
51.0607,62.1268
51.0065,62.0457
50.9875,61.9500
Z" /> 
<path style="fill:#000000; fill-opacity:1.0000; stroke:none;fill-rule:evenodd;"
d="M 72.6000,59.5825
72.6057,59.5538
72.6220,59.5295
72.6463,59.5132
72.6750,59.5075
74.0000,59.5075
74.0287,59.5132
74.0530,59.5295
74.0693,59.5538
74.0750,59.5825
74.0750,59.7325
74.0693,59.7612
74.0530,59.7855
74.0287,59.8018
74.0000,59.8075
72.6750,59.8075
72.6463,59.8018
72.6220,59.7855
72.6057,59.7612
72.6000,59.7325
Z" /> 
<path style="fill:#000000; fill-opacity:1.0000; stroke:none;fill-rule:evenodd;"
d="M 72.6000,60.0825
72.6057,60.0538
72.6220,60.0295
72.6463,60.0132
72.6750,60.0075
74.0000,60.0075
74.0287,60.0132
74.0530,60.0295
74.0693,60.0538
74.0750,60.0825
74.0750,60.2325
74.0693,60.2612
74.0530,60.2855
74.0287,60.3018
74.0000,60.3075
72.6750,60.3075
72.6463,60.3018
72.6220,60.2855
72.6057,60.2612
72.6000,60.2325
Z" /> 
<path style="fill:#000000; fill-opacity:1.0000; stroke:none;fill-rule:evenodd;"
d="M 72.6000,60.5825
72.6057,60.5538
72.6220,60.5295
72.6463,60.5132
72.6750,60.5075
74.0000,60.5075
74.0287,60.5132
74.0530,60.5295
74.0693,60.5538
74.0750,60.5825
74.0750,60.7325
74.0693,60.7612
74.0530,60.7855
74.0287,60.8018
74.0000,60.8075
72.6750,60.8075
72.6463,60.8018
72.6220,60.7855
72.6057,60.7612
72.6000,60.7325
Z" /> 
<path style="fill:#000000; fill-opacity:1.0000; stroke:none;fill-rule:evenodd;"
d="M 72.6000,61.0825
72.6057,61.0538
72.6220,61.0295
72.6463,61.0132
72.6750,61.0075
74.0000,61.0075
74.0287,61.0132
74.0530,61.0295
74.0693,61.0538
74.0750,61.0825
74.0750,61.2325
74.0693,61.2612
74.0530,61.2855
74.0287,61.3018
74.0000,61.3075
72.6750,61.3075
72.6463,61.3018
72.6220,61.2855
72.6057,61.2612
72.6000,61.2325
Z" /> 
<path style="fill:#000000; fill-opacity:1.0000; stroke:none;fill-rule:evenodd;"
d="M 72.6000,61.5825
72.6057,61.5538
72.6220,61.5295
72.6463,61.5132
72.6750,61.5075
74.0000,61.5075
74.0287,61.5132
74.0530,61.5295
74.0693,61.5538
74.0750,61.5825
74.0750,61.7325
74.0693,61.7612
74.0530,61.7855
74.0287,61.8018
74.0000,61.8075
72.6750,61.8075
72.6463,61.8018
72.6220,61.7855
72.6057,61.7612
72.6000,61.7325
Z" /> 
<path style="fill:#000000; fill-opacity:1.0000; stroke:none;fill-rule:evenodd;"
d="M 72.6000,62.0825
72.6057,62.0538
72.6220,62.0295
72.6463,62.0132
72.6750,62.0075
74.0000,62.0075
74.0287,62.0132
74.0530,62.0295
74.0693,62.0538
74.0750,62.0825
74.0750,62.2325
74.0693,62.2612
74.0530,62.2855
74.0287,62.3018
74.0000,62.3075
72.6750,62.3075
72.6463,62.3018
72.6220,62.2855
72.6057,62.2612
72.6000,62.2325
Z" /> 
<path style="fill:#000000; fill-opacity:1.0000; stroke:none;fill-rule:evenodd;"
d="M 72.6000,62.5825
72.6057,62.5538
72.6220,62.5295
72.6463,62.5132
72.6750,62.5075
74.0000,62.5075
74.0287,62.5132
74.0530,62.5295
74.0693,62.5538
74.0750,62.5825
74.0750,62.7325
74.0693,62.7612
74.0530,62.7855
74.0287,62.8018
74.0000,62.8075
72.6750,62.8075
72.6463,62.8018
72.6220,62.7855
72.6057,62.7612
72.6000,62.7325
Z" /> 
<path style="fill:#000000; fill-opacity:1.0000; stroke:none;fill-rule:evenodd;"
d="M 72.6000,63.0825
72.6057,63.0538
72.6220,63.0295
72.6463,63.0132
72.6750,63.0075
74.0000,63.0075
74.0287,63.0132
74.0530,63.0295
74.0693,63.0538
74.0750,63.0825
74.0750,63.2325
74.0693,63.2612
74.0530,63.2855
74.0287,63.3018
74.0000,63.3075
72.6750,63.3075
72.6463,63.3018
72.6220,63.2855
72.6057,63.2612
72.6000,63.2325
Z" /> 
<path style="fill:#000000; fill-opacity:1.0000; stroke:none;fill-rule:evenodd;"
d="M 72.6000,63.5825
72.6057,63.5538
72.6220,63.5295
72.6463,63.5132
72.6750,63.5075
74.0000,63.5075
74.0287,63.5132
74.0530,63.5295
74.0693,63.5538
74.0750,63.5825
74.0750,63.7325
74.0693,63.7612
74.0530,63.7855
74.0287,63.8018
74.0000,63.8075
72.6750,63.8075
72.6463,63.8018
72.6220,63.7855
72.6057,63.7612
72.6000,63.7325
Z" /> 
<path style="fill:#000000; fill-opacity:1.0000; stroke:none;fill-rule:evenodd;"
d="M 72.6000,64.0825
72.6057,64.0538
72.6220,64.0295
72.6463,64.0132
72.6750,64.0075
74.0000,64.0075
74.0287,64.0132
74.0530,64.0295
74.0693,64.0538
74.0750,64.0825
74.0750,64.2325
74.0693,64.2612
74.0530,64.2855
74.0287,64.3018
74.0000,64.3075
72.6750,64.3075
72.6463,64.3018
72.6220,64.2855
72.6057,64.2612
72.6000,64.2325
Z" /> 
<path style="fill:#000000; fill-opacity:1.0000; stroke:none;fill-rule:evenodd;"
d="M 72.6000,64.5825
72.6057,64.5538
72.6220,64.5295
72.6463,64.5132
72.6750,64.5075
74.0000,64.5075
74.0287,64.5132
74.0530,64.5295
74.0693,64.5538
74.0750,64.5825
74.0750,64.7325
74.0693,64.7612
74.0530,64.7855
74.0287,64.8018
74.0000,64.8075
72.6750,64.8075
72.6463,64.8018
72.6220,64.7855
72.6057,64.7612
72.6000,64.7325
Z" /> 
<path style="fill:#000000; fill-opacity:1.0000; stroke:none;fill-rule:evenodd;"
d="M 72.6000,65.0825
72.6057,65.0538
72.6220,65.0295
72.6463,65.0132
72.6750,65.0075
74.0000,65.0075
74.0287,65.0132
74.0530,65.0295
74.0693,65.0538
74.0750,65.0825
74.0750,65.2325
74.0693,65.2612
74.0530,65.2855
74.0287,65.3018
74.0000,65.3075
72.6750,65.3075
72.6463,65.3018
72.6220,65.2855
72.6057,65.2612
72.6000,65.2325
Z" /> 
<path style="fill:#000000; fill-opacity:1.0000; stroke:none;fill-rule:evenodd;"
d="M 74.6000,65.9075
74.6057,65.8788
74.6220,65.8545
74.6463,65.8382
74.6750,65.8325
74.8250,65.8325
74.8537,65.8382
74.8780,65.8545
74.8943,65.8788
74.9000,65.9075
74.9000,67.2325
74.8943,67.2612
74.8780,67.2855
74.8537,67.3018
74.8250,67.3075
74.6750,67.3075
74.6463,67.3018
74.6220,67.2855
74.6057,67.2612
74.6000,67.2325
Z" /> 
<path style="fill:#000000; fill-opacity:1.0000; stroke:none;fill-rule:evenodd;"
d="M 75.1000,65.9075
75.1057,65.8788
75.1220,65.8545
75.1463,65.8382
75.1750,65.8325
75.3250,65.8325
75.3537,65.8382
75.3780,65.8545
75.3943,65.8788
75.4000,65.9075
75.4000,67.2325
75.3943,67.2612
75.3780,67.2855
75.3537,67.3018
75.3250,67.3075
75.1750,67.3075
75.1463,67.3018
75.1220,67.2855
75.1057,67.2612
75.1000,67.2325
Z" /> 
<path style="fill:#000000; fill-opacity:1.0000; stroke:none;fill-rule:evenodd;"
d="M 75.6000,65.9075
75.6057,65.8788
75.6220,65.8545
75.6463,65.8382
75.6750,65.8325
75.8250,65.8325
75.8537,65.8382
75.8780,65.8545
75.8943,65.8788
75.9000,65.9075
75.9000,67.2325
75.8943,67.2612
75.8780,67.2855
75.8537,67.3018
75.8250,67.3075
75.6750,67.3075
75.6463,67.3018
75.6220,67.2855
75.6057,67.2612
75.6000,67.2325
Z" /> 
<path style="fill:#000000; fill-opacity:1.0000; stroke:none;fill-rule:evenodd;"
d="M 76.1000,65.9075
76.1057,65.8788
76.1220,65.8545
76.1463,65.8382
76.1750,65.8325
76.3250,65.8325
76.3537,65.8382
76.3780,65.8545
76.3943,65.8788
76.4000,65.9075
76.4000,67.2325
76.3943,67.2612
76.3780,67.2855
76.3537,67.3018
76.3250,67.3075
76.1750,67.3075
76.1463,67.3018
76.1220,67.2855
76.1057,67.2612
76.1000,67.2325
Z" /> 
<path style="fill:#000000; fill-opacity:1.0000; stroke:none;fill-rule:evenodd;"
d="M 76.6000,65.9075
76.6057,65.8788
76.6220,65.8545
76.6463,65.8382
76.6750,65.8325
76.8250,65.8325
76.8537,65.8382
76.8780,65.8545
76.8943,65.8788
76.9000,65.9075
76.9000,67.2325
76.8943,67.2612
76.8780,67.2855
76.8537,67.3018
76.8250,67.3075
76.6750,67.3075
76.6463,67.3018
76.6220,67.2855
76.6057,67.2612
76.6000,67.2325
Z" /> 
<path style="fill:#000000; fill-opacity:1.0000; stroke:none;fill-rule:evenodd;"
d="M 77.1000,65.9075
77.1057,65.8788
77.1220,65.8545
77.1463,65.8382
77.1750,65.8325
77.3250,65.8325
77.3537,65.8382
77.3780,65.8545
77.3943,65.8788
77.4000,65.9075
77.4000,67.2325
77.3943,67.2612
77.3780,67.2855
77.3537,67.3018
77.3250,67.3075
77.1750,67.3075
77.1463,67.3018
77.1220,67.2855
77.1057,67.2612
77.1000,67.2325
Z" /> 
<path style="fill:#000000; fill-opacity:1.0000; stroke:none;fill-rule:evenodd;"
d="M 77.6000,65.9075
77.6057,65.8788
77.6220,65.8545
77.6463,65.8382
77.6750,65.8325
77.8250,65.8325
77.8537,65.8382
77.8780,65.8545
77.8943,65.8788
77.9000,65.9075
77.9000,67.2325
77.8943,67.2612
77.8780,67.2855
77.8537,67.3018
77.8250,67.3075
77.6750,67.3075
77.6463,67.3018
77.6220,67.2855
77.6057,67.2612
77.6000,67.2325
Z" /> 
<path style="fill:#000000; fill-opacity:1.0000; stroke:none;fill-rule:evenodd;"
d="M 78.1000,65.9075
78.1057,65.8788
78.1220,65.8545
78.1463,65.8382
78.1750,65.8325
78.3250,65.8325
78.3537,65.8382
78.3780,65.8545
78.3943,65.8788
78.4000,65.9075
78.4000,67.2325
78.3943,67.2612
78.3780,67.2855
78.3537,67.3018
78.3250,67.3075
78.1750,67.3075
78.1463,67.3018
78.1220,67.2855
78.1057,67.2612
78.1000,67.2325
Z" /> 
<path style="fill:#000000; fill-opacity:1.0000; stroke:none;fill-rule:evenodd;"
d="M 78.6000,65.9075
78.6057,65.8788
78.6220,65.8545
78.6463,65.8382
78.6750,65.8325
78.8250,65.8325
78.8537,65.8382
78.8780,65.8545
78.8943,65.8788
78.9000,65.9075
78.9000,67.2325
78.8943,67.2612
78.8780,67.2855
78.8537,67.3018
78.8250,67.3075
78.6750,67.3075
78.6463,67.3018
78.6220,67.2855
78.6057,67.2612
78.6000,67.2325
Z" /> 
<path style="fill:#000000; fill-opacity:1.0000; stroke:none;fill-rule:evenodd;"
d="M 79.1000,65.9075
79.1057,65.8788
79.1220,65.8545
79.1463,65.8382
79.1750,65.8325
79.3250,65.8325
79.3537,65.8382
79.3780,65.8545
79.3943,65.8788
79.4000,65.9075
79.4000,67.2325
79.3943,67.2612
79.3780,67.2855
79.3537,67.3018
79.3250,67.3075
79.1750,67.3075
79.1463,67.3018
79.1220,67.2855
79.1057,67.2612
79.1000,67.2325
Z" /> 
<path style="fill:#000000; fill-opacity:1.0000; stroke:none;fill-rule:evenodd;"
d="M 79.6000,65.9075
79.6057,65.8788
79.6220,65.8545
79.6463,65.8382
79.6750,65.8325
79.8250,65.8325
79.8537,65.8382
79.8780,65.8545
79.8943,65.8788
79.9000,65.9075
79.9000,67.2325
79.8943,67.2612
79.8780,67.2855
79.8537,67.3018
79.8250,67.3075
79.6750,67.3075
79.6463,67.3018
79.6220,67.2855
79.6057,67.2612
79.6000,67.2325
Z" /> 
<path style="fill:#000000; fill-opacity:1.0000; stroke:none;fill-rule:evenodd;"
d="M 80.1000,65.9075
80.1057,65.8788
80.1220,65.8545
80.1463,65.8382
80.1750,65.8325
80.3250,65.8325
80.3537,65.8382
80.3780,65.8545
80.3943,65.8788
80.4000,65.9075
80.4000,67.2325
80.3943,67.2612
80.3780,67.2855
80.3537,67.3018
80.3250,67.3075
80.1750,67.3075
80.1463,67.3018
80.1220,67.2855
80.1057,67.2612
80.1000,67.2325
Z" /> 
<path style="fill:#000000; fill-opacity:1.0000; stroke:none;fill-rule:evenodd;"
d="M 80.9250,65.0825
80.9307,65.0538
80.9470,65.0295
80.9713,65.0132
81.0000,65.0075
82.3250,65.0075
82.3537,65.0132
82.3780,65.0295
82.3943,65.0538
82.4000,65.0825
82.4000,65.2325
82.3943,65.2612
82.3780,65.2855
82.3537,65.3018
82.3250,65.3075
81.0000,65.3075
80.9713,65.3018
80.9470,65.2855
80.9307,65.2612
80.9250,65.2325
Z" /> 
<path style="fill:#000000; fill-opacity:1.0000; stroke:none;fill-rule:evenodd;"
d="M 80.9250,64.5825
80.9307,64.5538
80.9470,64.5295
80.9713,64.5132
81.0000,64.5075
82.3250,64.5075
82.3537,64.5132
82.3780,64.5295
82.3943,64.5538
82.4000,64.5825
82.4000,64.7325
82.3943,64.7612
82.3780,64.7855
82.3537,64.8018
82.3250,64.8075
81.0000,64.8075
80.9713,64.8018
80.9470,64.7855
80.9307,64.7612
80.9250,64.7325
Z" /> 
<path style="fill:#000000; fill-opacity:1.0000; stroke:none;fill-rule:evenodd;"
d="M 80.9250,64.0825
80.9307,64.0538
80.9470,64.0295
80.9713,64.0132
81.0000,64.0075
82.3250,64.0075
82.3537,64.0132
82.3780,64.0295
82.3943,64.0538
82.4000,64.0825
82.4000,64.2325
82.3943,64.2612
82.3780,64.2855
82.3537,64.3018
82.3250,64.3075
81.0000,64.3075
80.9713,64.3018
80.9470,64.2855
80.9307,64.2612
80.9250,64.2325
Z" /> 
<path style="fill:#000000; fill-opacity:1.0000; stroke:none;fill-rule:evenodd;"
d="M 80.9250,63.5825
80.9307,63.5538
80.9470,63.5295
80.9713,63.5132
81.0000,63.5075
82.3250,63.5075
82.3537,63.5132
82.3780,63.5295
82.3943,63.5538
82.4000,63.5825
82.4000,63.7325
82.3943,63.7612
82.3780,63.7855
82.3537,63.8018
82.3250,63.8075
81.0000,63.8075
80.9713,63.8018
80.9470,63.7855
80.9307,63.7612
80.9250,63.7325
Z" /> 
<path style="fill:#000000; fill-opacity:1.0000; stroke:none;fill-rule:evenodd;"
d="M 80.9250,63.0825
80.9307,63.0538
80.9470,63.0295
80.9713,63.0132
81.0000,63.0075
82.3250,63.0075
82.3537,63.0132
82.3780,63.0295
82.3943,63.0538
82.4000,63.0825
82.4000,63.2325
82.3943,63.2612
82.3780,63.2855
82.3537,63.3018
82.3250,63.3075
81.0000,63.3075
80.9713,63.3018
80.9470,63.2855
80.9307,63.2612
80.9250,63.2325
Z" /> 
<path style="fill:#000000; fill-opacity:1.0000; stroke:none;fill-rule:evenodd;"
d="M 80.9250,62.5825
80.9307,62.5538
80.9470,62.5295
80.9713,62.5132
81.0000,62.5075
82.3250,62.5075
82.3537,62.5132
82.3780,62.5295
82.3943,62.5538
82.4000,62.5825
82.4000,62.7325
82.3943,62.7612
82.3780,62.7855
82.3537,62.8018
82.3250,62.8075
81.0000,62.8075
80.9713,62.8018
80.9470,62.7855
80.9307,62.7612
80.9250,62.7325
Z" /> 
<path style="fill:#000000; fill-opacity:1.0000; stroke:none;fill-rule:evenodd;"
d="M 80.9250,62.0825
80.9307,62.0538
80.9470,62.0295
80.9713,62.0132
81.0000,62.0075
82.3250,62.0075
82.3537,62.0132
82.3780,62.0295
82.3943,62.0538
82.4000,62.0825
82.4000,62.2325
82.3943,62.2612
82.3780,62.2855
82.3537,62.3018
82.3250,62.3075
81.0000,62.3075
80.9713,62.3018
80.9470,62.2855
80.9307,62.2612
80.9250,62.2325
Z" /> 
<path style="fill:#000000; fill-opacity:1.0000; stroke:none;fill-rule:evenodd;"
d="M 80.9250,61.5825
80.9307,61.5538
80.9470,61.5295
80.9713,61.5132
81.0000,61.5075
82.3250,61.5075
82.3537,61.5132
82.3780,61.5295
82.3943,61.5538
82.4000,61.5825
82.4000,61.7325
82.3943,61.7612
82.3780,61.7855
82.3537,61.8018
82.3250,61.8075
81.0000,61.8075
80.9713,61.8018
80.9470,61.7855
80.9307,61.7612
80.9250,61.7325
Z" /> 
<path style="fill:#000000; fill-opacity:1.0000; stroke:none;fill-rule:evenodd;"
d="M 80.9250,61.0825
80.9307,61.0538
80.9470,61.0295
80.9713,61.0132
81.0000,61.0075
82.3250,61.0075
82.3537,61.0132
82.3780,61.0295
82.3943,61.0538
82.4000,61.0825
82.4000,61.2325
82.3943,61.2612
82.3780,61.2855
82.3537,61.3018
82.3250,61.3075
81.0000,61.3075
80.9713,61.3018
80.9470,61.2855
80.9307,61.2612
80.9250,61.2325
Z" /> 
<path style="fill:#000000; fill-opacity:1.0000; stroke:none;fill-rule:evenodd;"
d="M 80.9250,60.5825
80.9307,60.5538
80.9470,60.5295
80.9713,60.5132
81.0000,60.5075
82.3250,60.5075
82.3537,60.5132
82.3780,60.5295
82.3943,60.5538
82.4000,60.5825
82.4000,60.7325
82.3943,60.7612
82.3780,60.7855
82.3537,60.8018
82.3250,60.8075
81.0000,60.8075
80.9713,60.8018
80.9470,60.7855
80.9307,60.7612
80.9250,60.7325
Z" /> 
<path style="fill:#000000; fill-opacity:1.0000; stroke:none;fill-rule:evenodd;"
d="M 80.9250,60.0825
80.9307,60.0538
80.9470,60.0295
80.9713,60.0132
81.0000,60.0075
82.3250,60.0075
82.3537,60.0132
82.3780,60.0295
82.3943,60.0538
82.4000,60.0825
82.4000,60.2325
82.3943,60.2612
82.3780,60.2855
82.3537,60.3018
82.3250,60.3075
81.0000,60.3075
80.9713,60.3018
80.9470,60.2855
80.9307,60.2612
80.9250,60.2325
Z" /> 
<path style="fill:#000000; fill-opacity:1.0000; stroke:none;fill-rule:evenodd;"
d="M 80.9250,59.5825
80.9307,59.5538
80.9470,59.5295
80.9713,59.5132
81.0000,59.5075
82.3250,59.5075
82.3537,59.5132
82.3780,59.5295
82.3943,59.5538
82.4000,59.5825
82.4000,59.7325
82.3943,59.7612
82.3780,59.7855
82.3537,59.8018
82.3250,59.8075
81.0000,59.8075
80.9713,59.8018
80.9470,59.7855
80.9307,59.7612
80.9250,59.7325
Z" /> 
<path style="fill:#000000; fill-opacity:1.0000; stroke:none;fill-rule:evenodd;"
d="M 80.1000,57.5825
80.1057,57.5538
80.1220,57.5295
80.1463,57.5132
80.1750,57.5075
80.3250,57.5075
80.3537,57.5132
80.3780,57.5295
80.3943,57.5538
80.4000,57.5825
80.4000,58.9075
80.3943,58.9362
80.3780,58.9605
80.3537,58.9768
80.3250,58.9825
80.1750,58.9825
80.1463,58.9768
80.1220,58.9605
80.1057,58.9362
80.1000,58.9075
Z" /> 
<path style="fill:#000000; fill-opacity:1.0000; stroke:none;fill-rule:evenodd;"
d="M 79.6000,57.5825
79.6057,57.5538
79.6220,57.5295
79.6463,57.5132
79.6750,57.5075
79.8250,57.5075
79.8537,57.5132
79.8780,57.5295
79.8943,57.5538
79.9000,57.5825
79.9000,58.9075
79.8943,58.9362
79.8780,58.9605
79.8537,58.9768
79.8250,58.9825
79.6750,58.9825
79.6463,58.9768
79.6220,58.9605
79.6057,58.9362
79.6000,58.9075
Z" /> 
<path style="fill:#000000; fill-opacity:1.0000; stroke:none;fill-rule:evenodd;"
d="M 79.1000,57.5825
79.1057,57.5538
79.1220,57.5295
79.1463,57.5132
79.1750,57.5075
79.3250,57.5075
79.3537,57.5132
79.3780,57.5295
79.3943,57.5538
79.4000,57.5825
79.4000,58.9075
79.3943,58.9362
79.3780,58.9605
79.3537,58.9768
79.3250,58.9825
79.1750,58.9825
79.1463,58.9768
79.1220,58.9605
79.1057,58.9362
79.1000,58.9075
Z" /> 
<path style="fill:#000000; fill-opacity:1.0000; stroke:none;fill-rule:evenodd;"
d="M 78.6000,57.5825
78.6057,57.5538
78.6220,57.5295
78.6463,57.5132
78.6750,57.5075
78.8250,57.5075
78.8537,57.5132
78.8780,57.5295
78.8943,57.5538
78.9000,57.5825
78.9000,58.9075
78.8943,58.9362
78.8780,58.9605
78.8537,58.9768
78.8250,58.9825
78.6750,58.9825
78.6463,58.9768
78.6220,58.9605
78.6057,58.9362
78.6000,58.9075
Z" /> 
<path style="fill:#000000; fill-opacity:1.0000; stroke:none;fill-rule:evenodd;"
d="M 78.1000,57.5825
78.1057,57.5538
78.1220,57.5295
78.1463,57.5132
78.1750,57.5075
78.3250,57.5075
78.3537,57.5132
78.3780,57.5295
78.3943,57.5538
78.4000,57.5825
78.4000,58.9075
78.3943,58.9362
78.3780,58.9605
78.3537,58.9768
78.3250,58.9825
78.1750,58.9825
78.1463,58.9768
78.1220,58.9605
78.1057,58.9362
78.1000,58.9075
Z" /> 
<path style="fill:#000000; fill-opacity:1.0000; stroke:none;fill-rule:evenodd;"
d="M 77.6000,57.5825
77.6057,57.5538
77.6220,57.5295
77.6463,57.5132
77.6750,57.5075
77.8250,57.5075
77.8537,57.5132
77.8780,57.5295
77.8943,57.5538
77.9000,57.5825
77.9000,58.9075
77.8943,58.9362
77.8780,58.9605
77.8537,58.9768
77.8250,58.9825
77.6750,58.9825
77.6463,58.9768
77.6220,58.9605
77.6057,58.9362
77.6000,58.9075
Z" /> 
<path style="fill:#000000; fill-opacity:1.0000; stroke:none;fill-rule:evenodd;"
d="M 77.1000,57.5825
77.1057,57.5538
77.1220,57.5295
77.1463,57.5132
77.1750,57.5075
77.3250,57.5075
77.3537,57.5132
77.3780,57.5295
77.3943,57.5538
77.4000,57.5825
77.4000,58.9075
77.3943,58.9362
77.3780,58.9605
77.3537,58.9768
77.3250,58.9825
77.1750,58.9825
77.1463,58.9768
77.1220,58.9605
77.1057,58.9362
77.1000,58.9075
Z" /> 
<path style="fill:#000000; fill-opacity:1.0000; stroke:none;fill-rule:evenodd;"
d="M 76.6000,57.5825
76.6057,57.5538
76.6220,57.5295
76.6463,57.5132
76.6750,57.5075
76.8250,57.5075
76.8537,57.5132
76.8780,57.5295
76.8943,57.5538
76.9000,57.5825
76.9000,58.9075
76.8943,58.9362
76.8780,58.9605
76.8537,58.9768
76.8250,58.9825
76.6750,58.9825
76.6463,58.9768
76.6220,58.9605
76.6057,58.9362
76.6000,58.9075
Z" /> 
<path style="fill:#000000; fill-opacity:1.0000; stroke:none;fill-rule:evenodd;"
d="M 76.1000,57.5825
76.1057,57.5538
76.1220,57.5295
76.1463,57.5132
76.1750,57.5075
76.3250,57.5075
76.3537,57.5132
76.3780,57.5295
76.3943,57.5538
76.4000,57.5825
76.4000,58.9075
76.3943,58.9362
76.3780,58.9605
76.3537,58.9768
76.3250,58.9825
76.1750,58.9825
76.1463,58.9768
76.1220,58.9605
76.1057,58.9362
76.1000,58.9075
Z" /> 
<path style="fill:#000000; fill-opacity:1.0000; stroke:none;fill-rule:evenodd;"
d="M 75.6000,57.5825
75.6057,57.5538
75.6220,57.5295
75.6463,57.5132
75.6750,57.5075
75.8250,57.5075
75.8537,57.5132
75.8780,57.5295
75.8943,57.5538
75.9000,57.5825
75.9000,58.9075
75.8943,58.9362
75.8780,58.9605
75.8537,58.9768
75.8250,58.9825
75.6750,58.9825
75.6463,58.9768
75.6220,58.9605
75.6057,58.9362
75.6000,58.9075
Z" /> 
<path style="fill:#000000; fill-opacity:1.0000; stroke:none;fill-rule:evenodd;"
d="M 75.1000,57.5825
75.1057,57.5538
75.1220,57.5295
75.1463,57.5132
75.1750,57.5075
75.3250,57.5075
75.3537,57.5132
75.3780,57.5295
75.3943,57.5538
75.4000,57.5825
75.4000,58.9075
75.3943,58.9362
75.3780,58.9605
75.3537,58.9768
75.3250,58.9825
75.1750,58.9825
75.1463,58.9768
75.1220,58.9605
75.1057,58.9362
75.1000,58.9075
Z" /> 
<path style="fill:#000000; fill-opacity:1.0000; stroke:none;fill-rule:evenodd;"
d="M 74.6000,57.5825
74.6057,57.5538
74.6220,57.5295
74.6463,57.5132
74.6750,57.5075
74.8250,57.5075
74.8537,57.5132
74.8780,57.5295
74.8943,57.5538
74.9000,57.5825
74.9000,58.9075
74.8943,58.9362
74.8780,58.9605
74.8537,58.9768
74.8250,58.9825
74.6750,58.9825
74.6463,58.9768
74.6220,58.9605
74.6057,58.9362
74.6000,58.9075
Z" /> 
<path style="fill:#000000; fill-opacity:1.0000; stroke:none;fill-rule:evenodd;"
d="M 94.4250,86.8000
94.5207,86.8190
94.6018,86.8732
94.6560,86.9543
94.6750,87.0500
94.6750,87.5500
94.6560,87.6457
94.6018,87.7268
94.5207,87.7810
94.4250,87.8000
93.4750,87.8000
93.3793,87.7810
93.2982,87.7268
93.2440,87.6457
93.2250,87.5500
93.2250,87.0500
93.2440,86.9543
93.2982,86.8732
93.3793,86.8190
93.4750,86.8000
Z" /> 
<path style="fill:#000000; fill-opacity:1.0000; stroke:none;fill-rule:evenodd;"
d="M 94.4250,88.7000
94.5207,88.7190
94.6018,88.7732
94.6560,88.8543
94.6750,88.9500
94.6750,89.4500
94.6560,89.5457
94.6018,89.6268
94.5207,89.6810
94.4250,89.7000
93.4750,89.7000
93.3793,89.6810
93.2982,89.6268
93.2440,89.5457
93.2250,89.4500
93.2250,88.9500
93.2440,88.8543
93.2982,88.7732
93.3793,88.7190
93.4750,88.7000
Z" /> 
<path style="fill:#000000; fill-opacity:1.0000; stroke:none;fill-rule:evenodd;"
d="M 82.1125,78.8825
82.0935,78.9782
82.0393,79.0593
81.9582,79.1135
81.8625,79.1325
81.3625,79.1325
81.2668,79.1135
81.1857,79.0593
81.1315,78.9782
81.1125,78.8825
81.1125,77.9325
81.1315,77.8368
81.1857,77.7557
81.2668,77.7015
81.3625,77.6825
81.8625,77.6825
81.9582,77.7015
82.0393,77.7557
82.0935,77.8368
82.1125,77.9325
Z" /> 
<path style="fill:#000000; fill-opacity:1.0000; stroke:none;fill-rule:evenodd;"
d="M 80.2125,78.8825
80.1935,78.9782
80.1393,79.0593
80.0582,79.1135
79.9625,79.1325
79.4625,79.1325
79.3668,79.1135
79.2857,79.0593
79.2315,78.9782
79.2125,78.8825
79.2125,77.9325
79.2315,77.8368
79.2857,77.7557
79.3668,77.7015
79.4625,77.6825
79.9625,77.6825
80.0582,77.7015
80.1393,77.7557
80.1935,77.8368
80.2125,77.9325
Z" /> 
<path style="fill:#000000; fill-opacity:1.0000; stroke:none;fill-rule:evenodd;"
d="M 82.0000,94.2750
82.0190,94.1793
82.0732,94.0982
82.1543,94.0440
82.2500,94.0250
82.7500,94.0250
82.8457,94.0440
82.9268,94.0982
82.9810,94.1793
83.0000,94.2750
83.0000,95.2250
82.9810,95.3207
82.9268,95.4018
82.8457,95.4560
82.7500,95.4750
82.2500,95.4750
82.1543,95.4560
82.0732,95.4018
82.0190,95.3207
82.0000,95.2250
Z" /> 
<path style="fill:#000000; fill-opacity:1.0000; stroke:none;fill-rule:evenodd;"
d="M 83.9000,94.2750
83.9190,94.1793
83.9732,94.0982
84.0543,94.0440
84.1500,94.0250
84.6500,94.0250
84.7457,94.0440
84.8268,94.0982
84.8810,94.1793
84.9000,94.2750
84.9000,95.2250
84.8810,95.3207
84.8268,95.4018
84.7457,95.4560
84.6500,95.4750
84.1500,95.4750
84.0543,95.4560
83.9732,95.4018
83.9190,95.3207
83.9000,95.2250
Z" /> 
<path style="fill:#000000; fill-opacity:1.0000; stroke:none;fill-rule:evenodd;"
d="M 64.6625,55.0075
64.6625,56.8075
63.6625,56.8075
63.6625,55.0075
Z" /> 
<path style="fill:#000000; fill-opacity:1.0000; stroke:none;fill-rule:evenodd;"
d="M 67.1625,55.0075
67.1625,56.8075
66.1625,56.8075
66.1625,55.0075
Z" /> 
<path style="fill:#000000; fill-opacity:1.0000; stroke:none;fill-rule:evenodd;"
d="M 53.5544,92.6834
52.9956,92.6834
52.9956,90.7022
53.5544,90.7022
Z" /> 
<path style="fill:#000000; fill-opacity:1.0000; stroke:none;fill-rule:evenodd;"
d="M 54.8244,92.6834
54.2656,92.6834
54.2656,90.7022
54.8244,90.7022
Z" /> 
<path style="fill:#000000; fill-opacity:1.0000; stroke:none;fill-rule:evenodd;"
d="M 56.0944,92.6834
55.5356,92.6834
55.5356,90.7022
56.0944,90.7022
Z" /> 
<path style="fill:#000000; fill-opacity:1.0000; stroke:none;fill-rule:evenodd;"
d="M 57.3644,92.6834
56.8056,92.6834
56.8056,90.7022
57.3644,90.7022
Z" /> 
<path style="fill:#000000; fill-opacity:1.0000; stroke:none;fill-rule:evenodd;"
d="M 57.3644,87.7558
56.8056,87.7558
56.8056,85.7746
57.3644,85.7746
Z" /> 
<path style="fill:#000000; fill-opacity:1.0000; stroke:none;fill-rule:evenodd;"
d="M 56.0944,87.7558
55.5356,87.7558
55.5356,85.7746
56.0944,85.7746
Z" /> 
<path style="fill:#000000; fill-opacity:1.0000; stroke:none;fill-rule:evenodd;"
d="M 54.8244,87.7558
54.2656,87.7558
54.2656,85.7746
54.8244,85.7746
Z" /> 
<path style="fill:#000000; fill-opacity:1.0000; stroke:none;fill-rule:evenodd;"
d="M 53.5544,87.7558
52.9956,87.7558
52.9956,85.7746
53.5544,85.7746
Z" /> 
<path style="fill:#000000; fill-opacity:1.0000; stroke:none;fill-rule:evenodd;"
d="M 67.0500,87.5000
66.9543,87.4810
66.8732,87.4268
66.8190,87.3457
66.8000,87.2500
66.8000,85.2500
66.8190,85.1543
66.8732,85.0732
66.9543,85.0190
67.0500,85.0000
68.3500,85.0000
68.4457,85.0190
68.5268,85.0732
68.5810,85.1543
68.6000,85.2500
68.6000,87.2500
68.5810,87.3457
68.5268,87.4268
68.4457,87.4810
68.3500,87.5000
Z" /> 
<path style="fill:#000000; fill-opacity:1.0000; stroke:none;fill-rule:evenodd;"
d="M 67.0500,83.5000
66.9543,83.4810
66.8732,83.4268
66.8190,83.3457
66.8000,83.2500
66.8000,81.2500
66.8190,81.1543
66.8732,81.0732
66.9543,81.0190
67.0500,81.0000
68.3500,81.0000
68.4457,81.0190
68.5268,81.0732
68.5810,81.1543
68.6000,81.2500
68.6000,83.2500
68.5810,83.3457
68.5268,83.4268
68.4457,83.4810
68.3500,83.5000
Z" /> 
<path style="fill:#000000; fill-opacity:1.0000; stroke:none;fill-rule:evenodd;"
d="M 100.9000,80.8625
100.9957,80.8815
101.0768,80.9357
101.1310,81.0168
101.1500,81.1125
101.1500,81.6375
101.1310,81.7332
101.0768,81.8143
100.9957,81.8685
100.9000,81.8875
100.0000,81.8875
99.9043,81.8685
99.8232,81.8143
99.7690,81.7332
99.7500,81.6375
99.7500,81.1125
99.7690,81.0168
99.8232,80.9357
99.9043,80.8815
100.0000,80.8625
Z" /> 
<path style="fill:#000000; fill-opacity:1.0000; stroke:none;fill-rule:evenodd;"
d="M 100.9000,82.6875
100.9957,82.7065
101.0768,82.7607
101.1310,82.8418
101.1500,82.9375
101.1500,83.4625
101.1310,83.5582
101.0768,83.6393
100.9957,83.6935
100.9000,83.7125
100.0000,83.7125
99.9043,83.6935
99.8232,83.6393
99.7690,83.5582
99.7500,83.4625
99.7500,82.9375
99.7690,82.8418
99.8232,82.7607
99.9043,82.7065
100.0000,82.6875
Z" /> 
<path style="fill:#000000; fill-opacity:1.0000; stroke:none;fill-rule:evenodd;"
d="M 94.4250,79.3375
94.5207,79.3565
94.6018,79.4107
94.6560,79.4918
94.6750,79.5875
94.6750,80.0875
94.6560,80.1832
94.6018,80.2643
94.5207,80.3185
94.4250,80.3375
93.4750,80.3375
93.3793,80.3185
93.2982,80.2643
93.2440,80.1832
93.2250,80.0875
93.2250,79.5875
93.2440,79.4918
93.2982,79.4107
93.3793,79.3565
93.4750,79.3375
Z" /> 
<path style="fill:#000000; fill-opacity:1.0000; stroke:none;fill-rule:evenodd;"
d="M 94.4250,81.2375
94.5207,81.2565
94.6018,81.3107
94.6560,81.3918
94.6750,81.4875
94.6750,81.9875
94.6560,82.0832
94.6018,82.1643
94.5207,82.2185
94.4250,82.2375
93.4750,82.2375
93.3793,82.2185
93.2982,82.1643
93.2440,82.0832
93.2250,81.9875
93.2250,81.4875
93.2440,81.3918
93.2982,81.3107
93.3793,81.2565
93.4750,81.2375
Z" /> 
<path style="fill:#000000; fill-opacity:1.0000; stroke:none;fill-rule:evenodd;"
d="M 99.9775,94.7520
99.9585,94.8477
99.9043,94.9288
99.8232,94.9830
99.7275,95.0020
99.2025,95.0020
99.1068,94.9830
99.0257,94.9288
98.9715,94.8477
98.9525,94.7520
98.9525,93.8520
98.9715,93.7563
99.0257,93.6752
99.1068,93.6210
99.2025,93.6020
99.7275,93.6020
99.8232,93.6210
99.9043,93.6752
99.9585,93.7563
99.9775,93.8520
Z" /> 
<path style="fill:#000000; fill-opacity:1.0000; stroke:none;fill-rule:evenodd;"
d="M 98.1525,94.7520
98.1335,94.8477
98.0793,94.9288
97.9982,94.9830
97.9025,95.0020
97.3775,95.0020
97.2818,94.9830
97.2007,94.9288
97.1465,94.8477
97.1275,94.7520
97.1275,93.8520
97.1465,93.7563
97.2007,93.6752
97.2818,93.6210
97.3775,93.6020
97.9025,93.6020
97.9982,93.6210
98.0793,93.6752
98.1335,93.7563
98.1525,93.8520
Z" /> 
<path style="fill:#000000; fill-opacity:1.0000; stroke:none;fill-rule:evenodd;"
d="M 84.0500,82.2250
84.0690,82.1293
84.1232,82.0482
84.2043,81.9940
84.3000,81.9750
84.8000,81.9750
84.8957,81.9940
84.9768,82.0482
85.0310,82.1293
85.0500,82.2250
85.0500,83.1750
85.0310,83.2707
84.9768,83.3518
84.8957,83.4060
84.8000,83.4250
84.3000,83.4250
84.2043,83.4060
84.1232,83.3518
84.0690,83.2707
84.0500,83.1750
Z" /> 
<path style="fill:#000000; fill-opacity:1.0000; stroke:none;fill-rule:evenodd;"
d="M 85.9500,82.2250
85.9690,82.1293
86.0232,82.0482
86.1043,81.9940
86.2000,81.9750
86.7000,81.9750
86.7957,81.9940
86.8768,82.0482
86.9310,82.1293
86.9500,82.2250
86.9500,83.1750
86.9310,83.2707
86.8768,83.3518
86.7957,83.4060
86.7000,83.4250
86.2000,83.4250
86.1043,83.4060
86.0232,83.3518
85.9690,83.2707
85.9500,83.1750
Z" /> 
<path style="fill:#000000; fill-opacity:1.0000; stroke:none;fill-rule:evenodd;"
d="M 90.9250,63.3575
90.9060,63.4532
90.8518,63.5343
90.7707,63.5885
90.6750,63.6075
90.1500,63.6075
90.0543,63.5885
89.9732,63.5343
89.9190,63.4532
89.9000,63.3575
89.9000,62.4575
89.9190,62.3618
89.9732,62.2807
90.0543,62.2265
90.1500,62.2075
90.6750,62.2075
90.7707,62.2265
90.8518,62.2807
90.9060,62.3618
90.9250,62.4575
Z" /> 
<path style="fill:#000000; fill-opacity:1.0000; stroke:none;fill-rule:evenodd;"
d="M 89.1000,63.3575
89.0810,63.4532
89.0268,63.5343
88.9457,63.5885
88.8500,63.6075
88.3250,63.6075
88.2293,63.5885
88.1482,63.5343
88.0940,63.4532
88.0750,63.3575
88.0750,62.4575
88.0940,62.3618
88.1482,62.2807
88.2293,62.2265
88.3250,62.2075
88.8500,62.2075
88.9457,62.2265
89.0268,62.2807
89.0810,62.3618
89.1000,62.4575
Z" /> 
<path style="fill:#000000; fill-opacity:1.0000; stroke:none;fill-rule:evenodd;"
d="M 62.7250,92.5000
62.8207,92.5190
62.9018,92.5732
62.9560,92.6543
62.9750,92.7500
62.9750,93.2500
62.9560,93.3457
62.9018,93.4268
62.8207,93.4810
62.7250,93.5000
61.7750,93.5000
61.6793,93.4810
61.5982,93.4268
61.5440,93.3457
61.5250,93.2500
61.5250,92.7500
61.5440,92.6543
61.5982,92.5732
61.6793,92.5190
61.7750,92.5000
Z" /> 
<path style="fill:#000000; fill-opacity:1.0000; stroke:none;fill-rule:evenodd;"
d="M 62.7250,94.4000
62.8207,94.4190
62.9018,94.4732
62.9560,94.5543
62.9750,94.6500
62.9750,95.1500
62.9560,95.2457
62.9018,95.3268
62.8207,95.3810
62.7250,95.4000
61.7750,95.4000
61.6793,95.3810
61.5982,95.3268
61.5440,95.2457
61.5250,95.1500
61.5250,94.6500
61.5440,94.5543
61.5982,94.4732
61.6793,94.4190
61.7750,94.4000
Z" /> 
<path style="fill:#000000; fill-opacity:1.0000; stroke:none;fill-rule:evenodd;"
d="M 88.0750,60.2075
88.0940,60.1118
88.1482,60.0307
88.2293,59.9765
88.3250,59.9575
88.8500,59.9575
88.9457,59.9765
89.0268,60.0307
89.0810,60.1118
89.1000,60.2075
89.1000,61.1075
89.0810,61.2032
89.0268,61.2843
88.9457,61.3385
88.8500,61.3575
88.3250,61.3575
88.2293,61.3385
88.1482,61.2843
88.0940,61.2032
88.0750,61.1075
Z" /> 
<path style="fill:#000000; fill-opacity:1.0000; stroke:none;fill-rule:evenodd;"
d="M 89.9000,60.2075
89.9190,60.1118
89.9732,60.0307
90.0543,59.9765
90.1500,59.9575
90.6750,59.9575
90.7707,59.9765
90.8518,60.0307
90.9060,60.1118
90.9250,60.2075
90.9250,61.1075
90.9060,61.2032
90.8518,61.2843
90.7707,61.3385
90.6750,61.3575
90.1500,61.3575
90.0543,61.3385
89.9732,61.2843
89.9190,61.2032
89.9000,61.1075
Z" /> 
<path style="fill:#000000; fill-opacity:1.0000; stroke:none;fill-rule:evenodd;"
d="M 54.5500,82.5375
54.4543,82.5185
54.3732,82.4643
54.3190,82.3832
54.3000,82.2875
54.3000,81.7625
54.3190,81.6668
54.3732,81.5857
54.4543,81.5315
54.5500,81.5125
55.4500,81.5125
55.5457,81.5315
55.6268,81.5857
55.6810,81.6668
55.7000,81.7625
55.7000,82.2875
55.6810,82.3832
55.6268,82.4643
55.5457,82.5185
55.4500,82.5375
Z" /> 
<path style="fill:#000000; fill-opacity:1.0000; stroke:none;fill-rule:evenodd;"
d="M 54.5500,80.7125
54.4543,80.6935
54.3732,80.6393
54.3190,80.5582
54.3000,80.4625
54.3000,79.9375
54.3190,79.8418
54.3732,79.7607
54.4543,79.7065
54.5500,79.6875
55.4500,79.6875
55.5457,79.7065
55.6268,79.7607
55.6810,79.8418
55.7000,79.9375
55.7000,80.4625
55.6810,80.5582
55.6268,80.6393
55.5457,80.6935
55.4500,80.7125
Z" /> 
<path style="fill:#000000; fill-opacity:1.0000; stroke:none;fill-rule:evenodd;"
d="M 69.4500,90.9000
69.4500,95.1000
67.9500,95.1000
67.9500,90.9000
Z" /> 
<path style="fill:#000000; fill-opacity:1.0000; stroke:none;fill-rule:evenodd;"
d="M 65.8500,90.9000
65.8500,95.1000
64.3500,95.1000
64.3500,90.9000
Z" /> 
<path style="fill:#000000; fill-opacity:1.0000; stroke:none;fill-rule:evenodd;"
d="M 90.0750,83.3250
89.9793,83.3060
89.8982,83.2518
89.8440,83.1707
89.8250,83.0750
89.8250,82.3250
89.8440,82.2293
89.8982,82.1482
89.9793,82.0940
90.0750,82.0750
91.3250,82.0750
91.4207,82.0940
91.5018,82.1482
91.5560,82.2293
91.5750,82.3250
91.5750,83.0750
91.5560,83.1707
91.5018,83.2518
91.4207,83.3060
91.3250,83.3250
Z" /> 
<path style="fill:#000000; fill-opacity:1.0000; stroke:none;fill-rule:evenodd;"
d="M 90.0750,80.5250
89.9793,80.5060
89.8982,80.4518
89.8440,80.3707
89.8250,80.2750
89.8250,79.5250
89.8440,79.4293
89.8982,79.3482
89.9793,79.2940
90.0750,79.2750
91.3250,79.2750
91.4207,79.2940
91.5018,79.3482
91.5560,79.4293
91.5750,79.5250
91.5750,80.2750
91.5560,80.3707
91.5018,80.4518
91.4207,80.5060
91.3250,80.5250
Z" /> 
<path style="fill:#000000; fill-opacity:1.0000; stroke:none;fill-rule:evenodd;"
d="M 78.9000,81.8861
78.9957,81.9051
79.0768,81.9593
79.1310,82.0404
79.1500,82.1361
79.1500,82.6611
79.1310,82.7568
79.0768,82.8379
78.9957,82.8921
78.9000,82.9111
78.0000,82.9111
77.9043,82.8921
77.8232,82.8379
77.7690,82.7568
77.7500,82.6611
77.7500,82.1361
77.7690,82.0404
77.8232,81.9593
77.9043,81.9051
78.0000,81.8861
Z" /> 
<path style="fill:#000000; fill-opacity:1.0000; stroke:none;fill-rule:evenodd;"
d="M 78.9000,83.7111
78.9957,83.7301
79.0768,83.7843
79.1310,83.8654
79.1500,83.9611
79.1500,84.4861
79.1310,84.5818
79.0768,84.6629
78.9957,84.7171
78.9000,84.7361
78.0000,84.7361
77.9043,84.7171
77.8232,84.6629
77.7690,84.5818
77.7500,84.4861
77.7500,83.9611
77.7690,83.8654
77.8232,83.7843
77.9043,83.7301
78.0000,83.7111
Z" /> 
<path style="fill:#000000; fill-opacity:1.0000; stroke:none;fill-rule:evenodd;"
d="M 75.3750,95.2756
75.3560,95.3713
75.3018,95.4524
75.2207,95.5066
75.1250,95.5256
74.6000,95.5256
74.5043,95.5066
74.4232,95.4524
74.3690,95.3713
74.3500,95.2756
74.3500,94.3756
74.3690,94.2799
74.4232,94.1988
74.5043,94.1446
74.6000,94.1256
75.1250,94.1256
75.2207,94.1446
75.3018,94.1988
75.3560,94.2799
75.3750,94.3756
Z" /> 
<path style="fill:#000000; fill-opacity:1.0000; stroke:none;fill-rule:evenodd;"
d="M 73.5500,95.2756
73.5310,95.3713
73.4768,95.4524
73.3957,95.5066
73.3000,95.5256
72.7750,95.5256
72.6793,95.5066
72.5982,95.4524
72.5440,95.3713
72.5250,95.2756
72.5250,94.3756
72.5440,94.2799
72.5982,94.1988
72.6793,94.1446
72.7750,94.1256
73.3000,94.1256
73.3957,94.1446
73.4768,94.1988
73.5310,94.2799
73.5500,94.3756
Z" /> 
<path style="fill:#000000; fill-opacity:1.0000; stroke:none;fill-rule:evenodd;"
d="M 102.2250,92.4000
102.1293,92.3810
102.0482,92.3268
101.9940,92.2457
101.9750,92.1500
101.9750,91.6500
101.9940,91.5543
102.0482,91.4732
102.1293,91.4190
102.2250,91.4000
103.1750,91.4000
103.2707,91.4190
103.3518,91.4732
103.4060,91.5543
103.4250,91.6500
103.4250,92.1500
103.4060,92.2457
103.3518,92.3268
103.2707,92.3810
103.1750,92.4000
Z" /> 
<path style="fill:#000000; fill-opacity:1.0000; stroke:none;fill-rule:evenodd;"
d="M 102.2250,90.5000
102.1293,90.4810
102.0482,90.4268
101.9940,90.3457
101.9750,90.2500
101.9750,89.7500
101.9940,89.6543
102.0482,89.5732
102.1293,89.5190
102.2250,89.5000
103.1750,89.5000
103.2707,89.5190
103.3518,89.5732
103.4060,89.6543
103.4250,89.7500
103.4250,90.2500
103.4060,90.3457
103.3518,90.4268
103.2707,90.4810
103.1750,90.5000
Z" /> 
<path style="fill:#000000; fill-opacity:1.0000; stroke:none;fill-rule:evenodd;"
d="M 47.5500,82.0875
47.4543,82.0685
47.3732,82.0143
47.3190,81.9332
47.3000,81.8375
47.3000,81.2125
47.3190,81.1168
47.3732,81.0357
47.4543,80.9815
47.5500,80.9625
50.4500,80.9625
50.5457,80.9815
50.6268,81.0357
50.6810,81.1168
50.7000,81.2125
50.7000,81.8375
50.6810,81.9332
50.6268,82.0143
50.5457,82.0685
50.4500,82.0875
Z" /> 
<path style="fill:#000000; fill-opacity:1.0000; stroke:none;fill-rule:evenodd;"
d="M 47.5500,77.8125
47.4543,77.7935
47.3732,77.7393
47.3190,77.6582
47.3000,77.5625
47.3000,76.9375
47.3190,76.8418
47.3732,76.7607
47.4543,76.7065
47.5500,76.6875
50.4500,76.6875
50.5457,76.7065
50.6268,76.7607
50.6810,76.8418
50.7000,76.9375
50.7000,77.5625
50.6810,77.6582
50.6268,77.7393
50.5457,77.7935
50.4500,77.8125
Z" /> 
<path style="fill:#000000; fill-opacity:1.0000; stroke:none;fill-rule:evenodd;"
d="M 103.1500,85.8625
103.2457,85.8815
103.3268,85.9357
103.3810,86.0168
103.4000,86.1125
103.4000,86.6375
103.3810,86.7332
103.3268,86.8143
103.2457,86.8685
103.1500,86.8875
102.2500,86.8875
102.1543,86.8685
102.0732,86.8143
102.0190,86.7332
102.0000,86.6375
102.0000,86.1125
102.0190,86.0168
102.0732,85.9357
102.1543,85.8815
102.2500,85.8625
Z" /> 
<path style="fill:#000000; fill-opacity:1.0000; stroke:none;fill-rule:evenodd;"
d="M 103.1500,87.6875
103.2457,87.7065
103.3268,87.7607
103.3810,87.8418
103.4000,87.9375
103.4000,88.4625
103.3810,88.5582
103.3268,88.6393
103.2457,88.6935
103.1500,88.7125
102.2500,88.7125
102.1543,88.6935
102.0732,88.6393
102.0190,88.5582
102.0000,88.4625
102.0000,87.9375
102.0190,87.8418
102.0732,87.7607
102.1543,87.7065
102.2500,87.6875
Z" /> 
<path style="fill:#000000; fill-opacity:1.0000; stroke:none;fill-rule:evenodd;"
d="M 56.6125,95.0770
56.5935,95.1727
56.5393,95.2538
56.4582,95.3080
56.3625,95.3270
55.8375,95.3270
55.7418,95.3080
55.6607,95.2538
55.6065,95.1727
55.5875,95.0770
55.5875,94.1770
55.6065,94.0813
55.6607,94.0002
55.7418,93.9460
55.8375,93.9270
56.3625,93.9270
56.4582,93.9460
56.5393,94.0002
56.5935,94.0813
56.6125,94.1770
Z" /> 
<path style="fill:#000000; fill-opacity:1.0000; stroke:none;fill-rule:evenodd;"
d="M 54.7875,95.0770
54.7685,95.1727
54.7143,95.2538
54.6332,95.3080
54.5375,95.3270
54.0125,95.3270
53.9168,95.3080
53.8357,95.2538
53.7815,95.1727
53.7625,95.0770
53.7625,94.1770
53.7815,94.0813
53.8357,94.0002
53.9168,93.9460
54.0125,93.9270
54.5375,93.9270
54.6332,93.9460
54.7143,94.0002
54.7685,94.0813
54.7875,94.1770
Z" /> 
<path style="fill:#000000; fill-opacity:1.0000; stroke:none;fill-rule:evenodd;"
d="M 65.6875,66.8075
65.5918,66.7885
65.5107,66.7343
65.4565,66.6532
65.4375,66.5575
65.4375,66.0575
65.4565,65.9618
65.5107,65.8807
65.5918,65.8265
65.6875,65.8075
66.6375,65.8075
66.7332,65.8265
66.8143,65.8807
66.8685,65.9618
66.8875,66.0575
66.8875,66.5575
66.8685,66.6532
66.8143,66.7343
66.7332,66.7885
66.6375,66.8075
Z" /> 
<path style="fill:#000000; fill-opacity:1.0000; stroke:none;fill-rule:evenodd;"
d="M 65.6875,64.9075
65.5918,64.8885
65.5107,64.8343
65.4565,64.7532
65.4375,64.6575
65.4375,64.1575
65.4565,64.0618
65.5107,63.9807
65.5918,63.9265
65.6875,63.9075
66.6375,63.9075
66.7332,63.9265
66.8143,63.9807
66.8685,64.0618
66.8875,64.1575
66.8875,64.6575
66.8685,64.7532
66.8143,64.8343
66.7332,64.8885
66.6375,64.9075
Z" /> 
<path style="fill:#000000; fill-opacity:1.0000; stroke:none;fill-rule:evenodd;"
d="M 103.9775,94.7520
103.9585,94.8477
103.9043,94.9288
103.8232,94.9830
103.7275,95.0020
103.2025,95.0020
103.1068,94.9830
103.0257,94.9288
102.9715,94.8477
102.9525,94.7520
102.9525,93.8520
102.9715,93.7563
103.0257,93.6752
103.1068,93.6210
103.2025,93.6020
103.7275,93.6020
103.8232,93.6210
103.9043,93.6752
103.9585,93.7563
103.9775,93.8520
Z" /> 
<path style="fill:#000000; fill-opacity:1.0000; stroke:none;fill-rule:evenodd;"
d="M 102.1525,94.7520
102.1335,94.8477
102.0793,94.9288
101.9982,94.9830
101.9025,95.0020
101.3775,95.0020
101.2818,94.9830
101.2007,94.9288
101.1465,94.8477
101.1275,94.7520
101.1275,93.8520
101.1465,93.7563
101.2007,93.6752
101.2818,93.6210
101.3775,93.6020
101.9025,93.6020
101.9982,93.6210
102.0793,93.6752
102.1335,93.7563
102.1525,93.8520
Z" /> 
</g> 
</svg>
