%TF.GenerationSoftware,KiCad,Pcbnew,9.0.7*%
%TF.CreationDate,2026-03-01T11:20:14+10:00*%
%TF.ProjectId,stm32board,73746d33-3262-46f6-9172-642e6b696361,rev?*%
%TF.SameCoordinates,Original*%
%TF.FileFunction,Copper,L1,Top*%
%TF.FilePolarity,Positive*%
%FSLAX46Y46*%
G04 Gerber Fmt 4.6, Leading zero omitted, Abs format (unit mm)*
G04 Created by KiCad (PCBNEW 9.0.7) date 2026-03-01 11:20:14*
%MOMM*%
%LPD*%
G01*
G04 APERTURE LIST*
G04 Aperture macros list*
%AMRoundRect*
0 Rectangle with rounded corners*
0 $1 Rounding radius*
0 $2 $3 $4 $5 $6 $7 $8 $9 X,Y pos of 4 corners*
0 Add a 4 corners polygon primitive as box body*
4,1,4,$2,$3,$4,$5,$6,$7,$8,$9,$2,$3,0*
0 Add four circle primitives for the rounded corners*
1,1,$1+$1,$2,$3*
1,1,$1+$1,$4,$5*
1,1,$1+$1,$6,$7*
1,1,$1+$1,$8,$9*
0 Add four rect primitives between the rounded corners*
20,1,$1+$1,$2,$3,$4,$5,0*
20,1,$1+$1,$4,$5,$6,$7,0*
20,1,$1+$1,$6,$7,$8,$9,0*
20,1,$1+$1,$8,$9,$2,$3,0*%
G04 Aperture macros list end*
%TA.AperFunction,SMDPad,CuDef*%
%ADD10RoundRect,0.250000X0.250000X0.475000X-0.250000X0.475000X-0.250000X-0.475000X0.250000X-0.475000X0*%
%TD*%
%TA.AperFunction,SMDPad,CuDef*%
%ADD11RoundRect,0.250000X-0.262500X-0.450000X0.262500X-0.450000X0.262500X0.450000X-0.262500X0.450000X0*%
%TD*%
%TA.AperFunction,SMDPad,CuDef*%
%ADD12RoundRect,0.243750X-0.243750X-0.456250X0.243750X-0.456250X0.243750X0.456250X-0.243750X0.456250X0*%
%TD*%
%TA.AperFunction,SMDPad,CuDef*%
%ADD13RoundRect,0.150000X0.512500X0.150000X-0.512500X0.150000X-0.512500X-0.150000X0.512500X-0.150000X0*%
%TD*%
%TA.AperFunction,SMDPad,CuDef*%
%ADD14RoundRect,0.250000X-0.250000X-0.475000X0.250000X-0.475000X0.250000X0.475000X-0.250000X0.475000X0*%
%TD*%
%TA.AperFunction,SMDPad,CuDef*%
%ADD15RoundRect,0.250000X0.262500X0.450000X-0.262500X0.450000X-0.262500X-0.450000X0.262500X-0.450000X0*%
%TD*%
%TA.AperFunction,SMDPad,CuDef*%
%ADD16R,0.558800X1.981200*%
%TD*%
%TA.AperFunction,ComponentPad*%
%ADD17R,1.700000X1.700000*%
%TD*%
%TA.AperFunction,ComponentPad*%
%ADD18C,1.700000*%
%TD*%
%TA.AperFunction,SMDPad,CuDef*%
%ADD19RoundRect,0.250000X0.475000X-0.250000X0.475000X0.250000X-0.475000X0.250000X-0.475000X-0.250000X0*%
%TD*%
%TA.AperFunction,SMDPad,CuDef*%
%ADD20RoundRect,0.250000X-0.475000X0.250000X-0.475000X-0.250000X0.475000X-0.250000X0.475000X0.250000X0*%
%TD*%
%TA.AperFunction,SMDPad,CuDef*%
%ADD21RoundRect,0.100000X-0.100000X0.217500X-0.100000X-0.217500X0.100000X-0.217500X0.100000X0.217500X0*%
%TD*%
%TA.AperFunction,SMDPad,CuDef*%
%ADD22R,2.209800X8.001000*%
%TD*%
%TA.AperFunction,SMDPad,CuDef*%
%ADD23RoundRect,0.243750X0.243750X0.456250X-0.243750X0.456250X-0.243750X-0.456250X0.243750X-0.456250X0*%
%TD*%
%TA.AperFunction,SMDPad,CuDef*%
%ADD24RoundRect,0.250000X0.450000X-0.262500X0.450000X0.262500X-0.450000X0.262500X-0.450000X-0.262500X0*%
%TD*%
%TA.AperFunction,SMDPad,CuDef*%
%ADD25RoundRect,0.250000X-0.450000X0.262500X-0.450000X-0.262500X0.450000X-0.262500X0.450000X0.262500X0*%
%TD*%
%TA.AperFunction,SMDPad,CuDef*%
%ADD26RoundRect,0.150000X0.425000X-0.150000X0.425000X0.150000X-0.425000X0.150000X-0.425000X-0.150000X0*%
%TD*%
%TA.AperFunction,SMDPad,CuDef*%
%ADD27RoundRect,0.075000X0.500000X-0.075000X0.500000X0.075000X-0.500000X0.075000X-0.500000X-0.075000X0*%
%TD*%
%TA.AperFunction,HeatsinkPad*%
%ADD28O,2.100000X1.000000*%
%TD*%
%TA.AperFunction,HeatsinkPad*%
%ADD29O,1.800000X1.000000*%
%TD*%
%TA.AperFunction,SMDPad,CuDef*%
%ADD30RoundRect,0.250000X0.275000X0.750000X-0.275000X0.750000X-0.275000X-0.750000X0.275000X-0.750000X0*%
%TD*%
%TA.AperFunction,SMDPad,CuDef*%
%ADD31RoundRect,0.200000X-0.200000X0.250000X-0.200000X-0.250000X0.200000X-0.250000X0.200000X0.250000X0*%
%TD*%
%TA.AperFunction,SMDPad,CuDef*%
%ADD32RoundRect,0.249999X-0.450001X-1.800001X0.450001X-1.800001X0.450001X1.800001X-0.450001X1.800001X0*%
%TD*%
%TA.AperFunction,SMDPad,CuDef*%
%ADD33RoundRect,0.075000X-0.662500X-0.075000X0.662500X-0.075000X0.662500X0.075000X-0.662500X0.075000X0*%
%TD*%
%TA.AperFunction,SMDPad,CuDef*%
%ADD34RoundRect,0.075000X-0.075000X-0.662500X0.075000X-0.662500X0.075000X0.662500X-0.075000X0.662500X0*%
%TD*%
%TA.AperFunction,SMDPad,CuDef*%
%ADD35R,1.000000X1.800000*%
%TD*%
%TA.AperFunction,ComponentPad*%
%ADD36RoundRect,0.250000X0.350000X-0.350000X0.350000X0.350000X-0.350000X0.350000X-0.350000X-0.350000X0*%
%TD*%
%TA.AperFunction,ComponentPad*%
%ADD37C,1.200000*%
%TD*%
%TA.AperFunction,SMDPad,CuDef*%
%ADD38RoundRect,0.250000X0.650000X-1.000000X0.650000X1.000000X-0.650000X1.000000X-0.650000X-1.000000X0*%
%TD*%
%TA.AperFunction,ComponentPad*%
%ADD39R,1.000000X1.000000*%
%TD*%
%TA.AperFunction,ComponentPad*%
%ADD40C,1.000000*%
%TD*%
%TA.AperFunction,SMDPad,CuDef*%
%ADD41R,1.500000X4.200000*%
%TD*%
%TA.AperFunction,SMDPad,CuDef*%
%ADD42RoundRect,0.250000X0.625000X-0.375000X0.625000X0.375000X-0.625000X0.375000X-0.625000X-0.375000X0*%
%TD*%
%TA.AperFunction,SMDPad,CuDef*%
%ADD43RoundRect,0.250000X1.450000X-0.312500X1.450000X0.312500X-1.450000X0.312500X-1.450000X-0.312500X0*%
%TD*%
%TA.AperFunction,ViaPad*%
%ADD44C,0.600000*%
%TD*%
%TA.AperFunction,Conductor*%
%ADD45C,0.300000*%
%TD*%
%TA.AperFunction,Conductor*%
%ADD46C,0.200000*%
%TD*%
%TA.AperFunction,Conductor*%
%ADD47C,0.600000*%
%TD*%
%TA.AperFunction,Conductor*%
%ADD48C,0.400000*%
%TD*%
%TA.AperFunction,Conductor*%
%ADD49C,0.500000*%
%TD*%
%TA.AperFunction,Conductor*%
%ADD50C,1.200000*%
%TD*%
%TA.AperFunction,Conductor*%
%ADD51C,0.700000*%
%TD*%
%TA.AperFunction,Conductor*%
%ADD52C,1.000000*%
%TD*%
%TA.AperFunction,Conductor*%
%ADD53C,0.450000*%
%TD*%
G04 APERTURE END LIST*
D10*
%TO.P,C18,1*%
%TO.N,Net-(U2-COMP)*%
X97850000Y-83700000D03*
%TO.P,C18,2*%
%TO.N,GND*%
X95950000Y-83700000D03*
%TD*%
D11*
%TO.P,R8,1*%
%TO.N,VCC*%
X59250000Y-65000000D03*
%TO.P,R8,2*%
%TO.N,/NRST*%
X61075000Y-65000000D03*
%TD*%
D12*
%TO.P,D2,1,K*%
%TO.N,/PB11*%
X85912500Y-70907500D03*
%TO.P,D2,2,A*%
%TO.N,Net-(D2-A)*%
X87787500Y-70907500D03*
%TD*%
D13*
%TO.P,U5,1*%
%TO.N,GND*%
X68912500Y-71150000D03*
%TO.P,U5,2*%
%TO.N,/PB0*%
X68912500Y-70200000D03*
%TO.P,U5,3,GND*%
%TO.N,GND*%
X68912500Y-69250000D03*
%TO.P,U5,4*%
%TO.N,/DIN*%
X66637500Y-69250000D03*
%TO.P,U5,5,VCC*%
%TO.N,+5V*%
X66637500Y-71150000D03*
%TD*%
D14*
%TO.P,FB1,1*%
%TO.N,VCC*%
X71862500Y-73407500D03*
%TO.P,FB1,2*%
%TO.N,/VDDA*%
X73762500Y-73407500D03*
%TD*%
D15*
%TO.P,R14,1*%
%TO.N,Net-(U3-COMP)*%
X76450000Y-81750000D03*
%TO.P,R14,2*%
%TO.N,Net-(C21-Pad1)*%
X74625000Y-81750000D03*
%TD*%
D10*
%TO.P,C4,1*%
%TO.N,VCC*%
X81612500Y-70907500D03*
%TO.P,C4,2*%
%TO.N,GND*%
X79712500Y-70907500D03*
%TD*%
%TO.P,C8,1*%
%TO.N,GND*%
X68312500Y-58407500D03*
%TO.P,C8,2*%
%TO.N,/OSCIN32*%
X66412500Y-58407500D03*
%TD*%
%TO.P,C23,1*%
%TO.N,Net-(U3-COMP)*%
X75350000Y-84223600D03*
%TO.P,C23,2*%
%TO.N,GND*%
X73450000Y-84223600D03*
%TD*%
D16*
%TO.P,U2,1,BOOT*%
%TO.N,Net-(U2-BOOT)*%
X96640000Y-91302000D03*
%TO.P,U2,2,VIN*%
%TO.N,VBUS*%
X97910000Y-91302000D03*
%TO.P,U2,3,EN*%
%TO.N,Net-(U2-EN)*%
X99180000Y-91302000D03*
%TO.P,U2,4,SS*%
%TO.N,Net-(U2-SS)*%
X100450000Y-91302000D03*
%TO.P,U2,5,VSENSE*%
%TO.N,Net-(U2-VSENSE)*%
X100450000Y-86374400D03*
%TO.P,U2,6,COMP*%
%TO.N,Net-(U2-COMP)*%
X99180000Y-86374400D03*
%TO.P,U2,7,GND*%
%TO.N,GND*%
X97910000Y-86374400D03*
%TO.P,U2,8,PH*%
%TO.N,Net-(D3-K)*%
X96640000Y-86374400D03*
%TD*%
D17*
%TO.P,H6,1,Pin_1*%
%TO.N,VCC*%
X94112500Y-44000000D03*
D18*
%TO.P,H6,2,Pin_2*%
%TO.N,GND*%
X91572500Y-44000000D03*
%TO.P,H6,3,Pin_3*%
%TO.N,/PB5*%
X89032500Y-44000000D03*
%TO.P,H6,4,Pin_4*%
%TO.N,/PB2*%
X86492500Y-44000000D03*
%TO.P,H6,5,Pin_5*%
%TO.N,/PA4*%
X83952500Y-44000000D03*
%TO.P,H6,6,Pin_6*%
%TO.N,/PA7*%
X81412500Y-44000000D03*
%TO.P,H6,7,Pin_7*%
%TO.N,/PA5*%
X78872500Y-44000000D03*
%TO.P,H6,8,Pin_8*%
%TO.N,VCC*%
X76332500Y-44000000D03*
%TO.P,H6,9,Pin_9*%
%TO.N,Net-(H6-Pin_9)*%
X73792500Y-44000000D03*
%TO.P,H6,10,Pin_10*%
%TO.N,/PA5*%
X71252500Y-44000000D03*
%TO.P,H6,11,Pin_11*%
%TO.N,/PB9*%
X68712500Y-44000000D03*
%TO.P,H6,12,Pin_12*%
%TO.N,/PA7*%
X66172500Y-44000000D03*
%TO.P,H6,13,Pin_13*%
%TO.N,/PA6*%
X63632500Y-44000000D03*
%TO.P,H6,14,Pin_14*%
%TO.N,/PB1*%
X61092500Y-44000000D03*
%TD*%
D17*
%TO.P,H7,1,GND*%
%TO.N,GND*%
X42250000Y-86250000D03*
D18*
%TO.P,H7,2,\u002A*%
%TO.N,+12V*%
X42250000Y-88790000D03*
%TO.P,H7,3,D*%
%TO.N,/PB15*%
X42250000Y-91330000D03*
%TO.P,H7,4,5V*%
%TO.N,GND*%
X42250000Y-93870000D03*
%TD*%
D10*
%TO.P,C2,1*%
%TO.N,VCC*%
X81612500Y-75927500D03*
%TO.P,C2,2*%
%TO.N,GND*%
X79712500Y-75927500D03*
%TD*%
D19*
%TO.P,C28,1*%
%TO.N,GND*%
X62750000Y-84700000D03*
%TO.P,C28,2*%
%TO.N,+12V*%
X62750000Y-82800000D03*
%TD*%
D14*
%TO.P,C19,1*%
%TO.N,Net-(D4-K)*%
X67800000Y-89000000D03*
%TO.P,C19,2*%
%TO.N,Net-(U3-BOOT)*%
X69700000Y-89000000D03*
%TD*%
D10*
%TO.P,C29,1*%
%TO.N,Net-(U4-COMP)*%
X56000000Y-84025000D03*
%TO.P,C29,2*%
%TO.N,GND*%
X54100000Y-84025000D03*
%TD*%
D20*
%TO.P,C22,1*%
%TO.N,+5V*%
X80700000Y-84750000D03*
%TO.P,C22,2*%
%TO.N,GND*%
X80700000Y-86650000D03*
%TD*%
D17*
%TO.P,H1,1,Pin_1*%
%TO.N,GND*%
X100912500Y-58947500D03*
D18*
%TO.P,H1,2,Pin_2*%
%TO.N,/SWCLK*%
X100912500Y-56407500D03*
%TO.P,H1,3,Pin_3*%
%TO.N,/SWDIO*%
X100912500Y-53867500D03*
%TO.P,H1,4,Pin_4*%
%TO.N,VCC*%
X100912500Y-51327500D03*
%TD*%
D10*
%TO.P,C14,1*%
%TO.N,GND*%
X77662500Y-70907500D03*
%TO.P,C14,2*%
%TO.N,/VDDA*%
X75762500Y-70907500D03*
%TD*%
D21*
%TO.P,R26,1*%
%TO.N,Net-(H6-Pin_9)*%
X74000000Y-50342500D03*
%TO.P,R26,2*%
%TO.N,/PA6*%
X74000000Y-51157500D03*
%TD*%
D22*
%TO.P,L1,1,1*%
%TO.N,Net-(D3-K)*%
X90200000Y-88700000D03*
%TO.P,L1,2,2*%
%TO.N,VCC*%
X84485000Y-88700000D03*
%TD*%
D11*
%TO.P,R2,1*%
%TO.N,VCC*%
X85962500Y-73407500D03*
%TO.P,R2,2*%
%TO.N,Net-(D2-A)*%
X87787500Y-73407500D03*
%TD*%
D15*
%TO.P,R13,1*%
%TO.N,GND*%
X80450000Y-94750000D03*
%TO.P,R13,2*%
%TO.N,Net-(U3-EN)*%
X78625000Y-94750000D03*
%TD*%
D23*
%TO.P,D1,1,K*%
%TO.N,GND*%
X77662500Y-75907500D03*
%TO.P,D1,2,A*%
%TO.N,Net-(D1-A)*%
X75787500Y-75907500D03*
%TD*%
D11*
%TO.P,R25,1*%
%TO.N,/PA0*%
X50425000Y-73000000D03*
%TO.P,R25,2*%
%TO.N,VCC*%
X52250000Y-73000000D03*
%TD*%
%TO.P,R24,1*%
%TO.N,/PA1*%
X52675000Y-70000000D03*
%TO.P,R24,2*%
%TO.N,VCC*%
X54500000Y-70000000D03*
%TD*%
D10*
%TO.P,C3,1*%
%TO.N,VCC*%
X81612500Y-73407500D03*
%TO.P,C3,2*%
%TO.N,GND*%
X79712500Y-73407500D03*
%TD*%
D14*
%TO.P,C6,1*%
%TO.N,GND*%
X61100000Y-60907500D03*
%TO.P,C6,2*%
%TO.N,/OSCIN*%
X63000000Y-60907500D03*
%TD*%
%TO.P,C20,1*%
%TO.N,Net-(U3-SS)*%
X78450000Y-92223600D03*
%TO.P,C20,2*%
%TO.N,GND*%
X80350000Y-92223600D03*
%TD*%
%TO.P,C11,1*%
%TO.N,GND*%
X59175000Y-67250000D03*
%TO.P,C11,2*%
%TO.N,/NRST*%
X61075000Y-67250000D03*
%TD*%
%TO.P,C9,1*%
%TO.N,GND*%
X62512500Y-58407500D03*
%TO.P,C9,2*%
%TO.N,/OSCOUT32*%
X64412500Y-58407500D03*
%TD*%
D17*
%TO.P,H4,1,GND*%
%TO.N,GND*%
X42250000Y-73460000D03*
D18*
%TO.P,H4,2,\u002A*%
%TO.N,+12V*%
X42250000Y-76000000D03*
%TO.P,H4,3,D*%
%TO.N,/PA0*%
X42250000Y-78540000D03*
%TO.P,H4,4,5V*%
%TO.N,/PB13*%
X42250000Y-81080000D03*
%TD*%
D20*
%TO.P,C15,1*%
%TO.N,GND*%
X105500000Y-79250000D03*
%TO.P,C15,2*%
%TO.N,VBUS*%
X105500000Y-81150000D03*
%TD*%
D24*
%TO.P,R9,1*%
%TO.N,/BOOT0*%
X76162500Y-55407500D03*
%TO.P,R9,2*%
%TO.N,GND*%
X76162500Y-53582500D03*
%TD*%
D16*
%TO.P,U3,1,BOOT*%
%TO.N,Net-(U3-BOOT)*%
X72140000Y-91927600D03*
%TO.P,U3,2,VIN*%
%TO.N,VBUS*%
X73410000Y-91927600D03*
%TO.P,U3,3,EN*%
%TO.N,Net-(U3-EN)*%
X74680000Y-91927600D03*
%TO.P,U3,4,SS*%
%TO.N,Net-(U3-SS)*%
X75950000Y-91927600D03*
%TO.P,U3,5,VSENSE*%
%TO.N,Net-(U3-VSENSE)*%
X75950000Y-87000000D03*
%TO.P,U3,6,COMP*%
%TO.N,Net-(U3-COMP)*%
X74680000Y-87000000D03*
%TO.P,U3,7,GND*%
%TO.N,GND*%
X73410000Y-87000000D03*
%TO.P,U3,8,PH*%
%TO.N,Net-(D4-K)*%
X72140000Y-87000000D03*
%TD*%
D25*
%TO.P,R21,1*%
%TO.N,Net-(U4-VSENSE)*%
X59500000Y-86587500D03*
%TO.P,R21,2*%
%TO.N,GND*%
X59500000Y-88412500D03*
%TD*%
D15*
%TO.P,R18,1*%
%TO.N,GND*%
X60100000Y-94627000D03*
%TO.P,R18,2*%
%TO.N,Net-(U4-EN)*%
X58275000Y-94627000D03*
%TD*%
D26*
%TO.P,J2,A1,GND*%
%TO.N,GND*%
X100662500Y-72212500D03*
%TO.P,J2,A4,VBUS*%
%TO.N,VBUS*%
X100662500Y-71412500D03*
D27*
%TO.P,J2,A5,CC1*%
%TO.N,/CC1*%
X100662500Y-70262500D03*
%TO.P,J2,A6,D+*%
%TO.N,Net-(J2-D+-PadA6)*%
X100662500Y-69262500D03*
%TO.P,J2,A7,D-*%
%TO.N,Net-(J2-D--PadA7)*%
X100662500Y-68762500D03*
%TO.P,J2,A8,SBU1*%
%TO.N,unconnected-(J2-SBU1-PadA8)*%
X100662500Y-67762500D03*
D26*
%TO.P,J2,A9,VBUS*%
%TO.N,VBUS*%
X100662500Y-66612500D03*
%TO.P,J2,A12,GND*%
%TO.N,GND*%
X100662500Y-65812500D03*
%TO.P,J2,B1,GND*%
X100662500Y-65812500D03*
%TO.P,J2,B4,VBUS*%
%TO.N,VBUS*%
X100662500Y-66612500D03*
D27*
%TO.P,J2,B5,CC2*%
%TO.N,/CC2*%
X100662500Y-67262500D03*
%TO.P,J2,B6,D+*%
%TO.N,Net-(J2-D+-PadA6)*%
X100662500Y-68262500D03*
%TO.P,J2,B7,D-*%
%TO.N,Net-(J2-D--PadA7)*%
X100662500Y-69762500D03*
%TO.P,J2,B8,SBU2*%
%TO.N,unconnected-(J2-SBU2-PadB8)*%
X100662500Y-70762500D03*
D26*
%TO.P,J2,B9,VBUS*%
%TO.N,VBUS*%
X100662500Y-71412500D03*
%TO.P,J2,B12,GND*%
%TO.N,GND*%
X100662500Y-72212500D03*
D28*
%TO.P,J2,S1,SHIELD*%
X101237500Y-73332500D03*
D29*
X105417500Y-73332500D03*
D28*
X101237500Y-64692500D03*
D29*
X105417500Y-64692500D03*
%TD*%
D25*
%TO.P,R16,1*%
%TO.N,Net-(U3-VSENSE)*%
X78450000Y-86925000D03*
%TO.P,R16,2*%
%TO.N,GND*%
X78450000Y-88750000D03*
%TD*%
D20*
%TO.P,C27,1*%
%TO.N,Net-(C27-Pad1)*%
X52600000Y-80125000D03*
%TO.P,C27,2*%
%TO.N,GND*%
X52600000Y-82025000D03*
%TD*%
D14*
%TO.P,C13,1*%
%TO.N,/VDDA*%
X75762500Y-73407500D03*
%TO.P,C13,2*%
%TO.N,GND*%
X77662500Y-73407500D03*
%TD*%
D11*
%TO.P,R22,1*%
%TO.N,Net-(H2-D)*%
X49425000Y-49000000D03*
%TO.P,R22,2*%
%TO.N,/DIN*%
X51250000Y-49000000D03*
%TD*%
D19*
%TO.P,C26,1*%
%TO.N,Net-(U4-SS)*%
X59500000Y-92400000D03*
%TO.P,C26,2*%
%TO.N,GND*%
X59500000Y-90500000D03*
%TD*%
D30*
%TO.P,SW1,1,1*%
%TO.N,/NRST*%
X61075000Y-70250000D03*
%TO.P,SW1,2,2*%
%TO.N,GND*%
X56625000Y-70250000D03*
%TD*%
D24*
%TO.P,R12,1*%
%TO.N,Net-(U2-COMP)*%
X96450000Y-81700000D03*
%TO.P,R12,2*%
%TO.N,Net-(C17-Pad1)*%
X96450000Y-79875000D03*
%TD*%
D25*
%TO.P,R20,1*%
%TO.N,+12V*%
X59100000Y-82200000D03*
%TO.P,R20,2*%
%TO.N,Net-(U4-VSENSE)*%
X59100000Y-84025000D03*
%TD*%
D20*
%TO.P,C25,1*%
%TO.N,Net-(D5-K)*%
X50600000Y-88125000D03*
%TO.P,C25,2*%
%TO.N,Net-(U4-BOOT)*%
X50600000Y-90025000D03*
%TD*%
D31*
%TO.P,Y1,1,EN*%
%TO.N,/OSCIN*%
X63062500Y-63007500D03*
%TO.P,Y1,2,GND*%
%TO.N,GND*%
X63062500Y-64407500D03*
%TO.P,Y1,3,OUT*%
%TO.N,/OSCOUT*%
X64162500Y-64407500D03*
%TO.P,Y1,4,Vdd*%
%TO.N,GND*%
X64162500Y-63007500D03*
%TD*%
D11*
%TO.P,R1,1*%
%TO.N,VCC*%
X71837500Y-75907500D03*
%TO.P,R1,2*%
%TO.N,Net-(D1-A)*%
X73662500Y-75907500D03*
%TD*%
D10*
%TO.P,C21,1*%
%TO.N,Net-(C21-Pad1)*%
X72950000Y-81750000D03*
%TO.P,C21,2*%
%TO.N,GND*%
X71050000Y-81750000D03*
%TD*%
D32*
%TO.P,L3,1,1*%
%TO.N,Net-(D5-K)*%
X59300000Y-78500000D03*
%TO.P,L3,2,2*%
%TO.N,+12V*%
X62000000Y-78500000D03*
%TD*%
D11*
%TO.P,R23,1*%
%TO.N,Net-(H3-D)*%
X49675000Y-61500000D03*
%TO.P,R23,2*%
%TO.N,/DIN*%
X51500000Y-61500000D03*
%TD*%
D33*
%TO.P,U1,1,VBAT*%
%TO.N,VCC*%
X73337500Y-59657500D03*
%TO.P,U1,2,PC13*%
%TO.N,unconnected-(U1-PC13-Pad2)*%
X73337500Y-60157500D03*
%TO.P,U1,3,PC14*%
%TO.N,/OSCIN32*%
X73337500Y-60657500D03*
%TO.P,U1,4,PC15*%
%TO.N,/OSCOUT32*%
X73337500Y-61157500D03*
%TO.P,U1,5,PF0*%
%TO.N,/OSCIN*%
X73337500Y-61657500D03*
%TO.P,U1,6,PF1*%
%TO.N,/OSCOUT*%
X73337500Y-62157500D03*
%TO.P,U1,7,PG10*%
%TO.N,/NRST*%
X73337500Y-62657500D03*
%TO.P,U1,8,PA0*%
%TO.N,/PA0*%
X73337500Y-63157500D03*
%TO.P,U1,9,PA1*%
%TO.N,/PA1*%
X73337500Y-63657500D03*
%TO.P,U1,10,PA2*%
%TO.N,Net-(U1-PA2)*%
X73337500Y-64157500D03*
%TO.P,U1,11,PA3*%
%TO.N,Net-(U1-PA3)*%
X73337500Y-64657500D03*
%TO.P,U1,12,PA4*%
%TO.N,/PA4*%
X73337500Y-65157500D03*
D34*
%TO.P,U1,13,PA5*%
%TO.N,/PA5*%
X74750000Y-66570000D03*
%TO.P,U1,14,PA6*%
%TO.N,/PA6*%
X75250000Y-66570000D03*
%TO.P,U1,15,PA7*%
%TO.N,/PA7*%
X75750000Y-66570000D03*
%TO.P,U1,16,PB0*%
%TO.N,/PB0*%
X76250000Y-66570000D03*
%TO.P,U1,17,PB1*%
%TO.N,/PB1*%
X76750000Y-66570000D03*
%TO.P,U1,18,PB2*%
%TO.N,/PB2*%
X77250000Y-66570000D03*
%TO.P,U1,19,VSSA*%
%TO.N,GND*%
X77750000Y-66570000D03*
%TO.P,U1,20,VREF+*%
%TO.N,/VDDA*%
X78250000Y-66570000D03*
%TO.P,U1,21,VDDA*%
X78750000Y-66570000D03*
%TO.P,U1,22,PB10*%
%TO.N,unconnected-(U1-PB10-Pad22)*%
X79250000Y-66570000D03*
%TO.P,U1,23,VSS*%
%TO.N,GND*%
X79750000Y-66570000D03*
%TO.P,U1,24,VDD*%
%TO.N,VCC*%
X80250000Y-66570000D03*
D33*
%TO.P,U1,25,PB11*%
%TO.N,/PB11*%
X81662500Y-65157500D03*
%TO.P,U1,26,PB12*%
%TO.N,unconnected-(U1-PB12-Pad26)*%
X81662500Y-64657500D03*
%TO.P,U1,27,PB13*%
%TO.N,/PB13*%
X81662500Y-64157500D03*
%TO.P,U1,28,PB14*%
%TO.N,/PB14*%
X81662500Y-63657500D03*
%TO.P,U1,29,PB15*%
%TO.N,/PB15*%
X81662500Y-63157500D03*
%TO.P,U1,30,PA8*%
%TO.N,unconnected-(U1-PA8-Pad30)*%
X81662500Y-62657500D03*
%TO.P,U1,31,PA9*%
%TO.N,/CC1*%
X81662500Y-62157500D03*
%TO.P,U1,32,PA10*%
%TO.N,/CC2*%
X81662500Y-61657500D03*
%TO.P,U1,33,PA11*%
%TO.N,/PA11*%
X81662500Y-61157500D03*
%TO.P,U1,34,PA12*%
%TO.N,/PA12*%
X81662500Y-60657500D03*
%TO.P,U1,35,VSS*%
%TO.N,GND*%
X81662500Y-60157500D03*
%TO.P,U1,36,VDD*%
%TO.N,VCC*%
X81662500Y-59657500D03*
D34*
%TO.P,U1,37,PA13*%
%TO.N,/SWDIO*%
X80250000Y-58245000D03*
%TO.P,U1,38,PA14*%
%TO.N,/SWCLK*%
X79750000Y-58245000D03*
%TO.P,U1,39,PA15*%
%TO.N,Net-(U1-PA15)*%
X79250000Y-58245000D03*
%TO.P,U1,40,PB3*%
%TO.N,unconnected-(U1-PB3-Pad40)*%
X78750000Y-58245000D03*
%TO.P,U1,41,PB4*%
%TO.N,/CC2*%
X78250000Y-58245000D03*
%TO.P,U1,42,PB5*%
%TO.N,/PB5*%
X77750000Y-58245000D03*
%TO.P,U1,43,PB6*%
%TO.N,/CC1*%
X77250000Y-58245000D03*
%TO.P,U1,44,PB7*%
%TO.N,unconnected-(U1-PB7-Pad44)*%
X76750000Y-58245000D03*
%TO.P,U1,45,PB8*%
%TO.N,/BOOT0*%
X76250000Y-58245000D03*
%TO.P,U1,46,PB9*%
%TO.N,/PB9*%
X75750000Y-58245000D03*
%TO.P,U1,47,VSS*%
%TO.N,GND*%
X75250000Y-58245000D03*
%TO.P,U1,48,VDD*%
%TO.N,VCC*%
X74750000Y-58245000D03*
%TD*%
D20*
%TO.P,C12,1*%
%TO.N,Net-(D3-K)*%
X93950000Y-87300000D03*
%TO.P,C12,2*%
%TO.N,Net-(U2-BOOT)*%
X93950000Y-89200000D03*
%TD*%
D10*
%TO.P,C1,1*%
%TO.N,VCC*%
X81612500Y-78407500D03*
%TO.P,C1,2*%
%TO.N,GND*%
X79712500Y-78407500D03*
%TD*%
D14*
%TO.P,C10,1*%
%TO.N,GND*%
X82500000Y-94750000D03*
%TO.P,C10,2*%
%TO.N,VBUS*%
X84400000Y-94750000D03*
%TD*%
D35*
%TO.P,Y2,1,1*%
%TO.N,/OSCOUT32*%
X64162500Y-55907500D03*
%TO.P,Y2,2,2*%
%TO.N,/OSCIN32*%
X66662500Y-55907500D03*
%TD*%
D36*
%TO.P,C30,1*%
%TO.N,GND*%
X51250000Y-54222600D03*
D37*
%TO.P,C30,2*%
%TO.N,+5V*%
X51250000Y-52222600D03*
%TD*%
D16*
%TO.P,U4,1,BOOT*%
%TO.N,Net-(U4-BOOT)*%
X53275000Y-91692800D03*
%TO.P,U4,2,VIN*%
%TO.N,VBUS*%
X54545000Y-91692800D03*
%TO.P,U4,3,EN*%
%TO.N,Net-(U4-EN)*%
X55815000Y-91692800D03*
%TO.P,U4,4,SS*%
%TO.N,Net-(U4-SS)*%
X57085000Y-91692800D03*
%TO.P,U4,5,VSENSE*%
%TO.N,Net-(U4-VSENSE)*%
X57085000Y-86765200D03*
%TO.P,U4,6,COMP*%
%TO.N,Net-(U4-COMP)*%
X55815000Y-86765200D03*
%TO.P,U4,7,GND*%
%TO.N,GND*%
X54545000Y-86765200D03*
%TO.P,U4,8,PH*%
%TO.N,Net-(D5-K)*%
X53275000Y-86765200D03*
%TD*%
D38*
%TO.P,D4,1,K*%
%TO.N,Net-(D4-K)*%
X67700000Y-86250000D03*
%TO.P,D4,2,A*%
%TO.N,GND*%
X67700000Y-82250000D03*
%TD*%
D17*
%TO.P,H2,1,GND*%
%TO.N,GND*%
X46750000Y-43920000D03*
D18*
%TO.P,H2,2,\u002A*%
%TO.N,unconnected-(H2-\u002A-Pad2)*%
X46750000Y-46460000D03*
%TO.P,H2,3,D*%
%TO.N,Net-(H2-D)*%
X46750000Y-49000000D03*
%TO.P,H2,4,5V*%
%TO.N,+5V*%
X46750000Y-51540000D03*
%TD*%
D25*
%TO.P,R11,1*%
%TO.N,VCC*%
X100450000Y-81375000D03*
%TO.P,R11,2*%
%TO.N,Net-(U2-VSENSE)*%
X100450000Y-83200000D03*
%TD*%
D20*
%TO.P,C17,1*%
%TO.N,Net-(C17-Pad1)*%
X93950000Y-79837500D03*
%TO.P,C17,2*%
%TO.N,GND*%
X93950000Y-81737500D03*
%TD*%
D15*
%TO.P,R3,1*%
%TO.N,Net-(U2-EN)*%
X99465000Y-94302000D03*
%TO.P,R3,2*%
%TO.N,VBUS*%
X97640000Y-94302000D03*
%TD*%
D14*
%TO.P,C7,1*%
%TO.N,VCC*%
X84550000Y-82700000D03*
%TO.P,C7,2*%
%TO.N,GND*%
X86450000Y-82700000D03*
%TD*%
D15*
%TO.P,R5,1*%
%TO.N,Net-(J2-D--PadA7)*%
X90412500Y-62907500D03*
%TO.P,R5,2*%
%TO.N,/PA11*%
X88587500Y-62907500D03*
%TD*%
D20*
%TO.P,C24,1*%
%TO.N,GND*%
X62250000Y-93000000D03*
%TO.P,C24,2*%
%TO.N,VBUS*%
X62250000Y-94900000D03*
%TD*%
D36*
%TO.P,C31,1*%
%TO.N,GND*%
X56000000Y-54222600D03*
D37*
%TO.P,C31,2*%
%TO.N,+5V*%
X56000000Y-52222600D03*
%TD*%
D11*
%TO.P,R6,1*%
%TO.N,/PA12*%
X88587500Y-60657500D03*
%TO.P,R6,2*%
%TO.N,Net-(J2-D+-PadA6)*%
X90412500Y-60657500D03*
%TD*%
D24*
%TO.P,R19,1*%
%TO.N,Net-(U4-COMP)*%
X55000000Y-82025000D03*
%TO.P,R19,2*%
%TO.N,Net-(C27-Pad1)*%
X55000000Y-80200000D03*
%TD*%
D39*
%TO.P,H5,1,GND*%
%TO.N,GND*%
X46750000Y-67500000D03*
D40*
%TO.P,H5,2,\u002A*%
%TO.N,+12V*%
X46750000Y-68770000D03*
%TO.P,H5,3,D*%
%TO.N,/PA1*%
X46750000Y-70040000D03*
%TO.P,H5,4,5V*%
%TO.N,/PB14*%
X46750000Y-71310000D03*
%TD*%
D41*
%TO.P,L2,1,1*%
%TO.N,Net-(D4-K)*%
X68700000Y-93000000D03*
%TO.P,L2,2,2*%
%TO.N,+5V*%
X65100000Y-93000000D03*
%TD*%
D42*
%TO.P,D3,1,K*%
%TO.N,Net-(D3-K)*%
X90700000Y-82700000D03*
%TO.P,D3,2,A*%
%TO.N,GND*%
X90700000Y-79900000D03*
%TD*%
D25*
%TO.P,R15,1*%
%TO.N,+5V*%
X78450000Y-82398600D03*
%TO.P,R15,2*%
%TO.N,Net-(U3-VSENSE)*%
X78450000Y-84223600D03*
%TD*%
D15*
%TO.P,R7,1*%
%TO.N,Net-(U3-EN)*%
X74862500Y-94825600D03*
%TO.P,R7,2*%
%TO.N,VBUS*%
X73037500Y-94825600D03*
%TD*%
D19*
%TO.P,C16,1*%
%TO.N,Net-(U2-SS)*%
X102700000Y-91900000D03*
%TO.P,C16,2*%
%TO.N,GND*%
X102700000Y-90000000D03*
%TD*%
D17*
%TO.P,H3,1,GND*%
%TO.N,GND*%
X46750000Y-56500000D03*
D18*
%TO.P,H3,2,\u002A*%
%TO.N,unconnected-(H3-\u002A-Pad2)*%
X46750000Y-59040000D03*
%TO.P,H3,3,D*%
%TO.N,Net-(H3-D)*%
X46750000Y-61580000D03*
%TO.P,H3,4,5V*%
%TO.N,+5V*%
X46750000Y-64120000D03*
%TD*%
D43*
%TO.P,D5,1,K*%
%TO.N,Net-(D5-K)*%
X49000000Y-81525000D03*
%TO.P,D5,2,A*%
%TO.N,GND*%
X49000000Y-77250000D03*
%TD*%
D25*
%TO.P,R10,1*%
%TO.N,Net-(U2-VSENSE)*%
X102700000Y-86375000D03*
%TO.P,R10,2*%
%TO.N,GND*%
X102700000Y-88200000D03*
%TD*%
D15*
%TO.P,R17,1*%
%TO.N,Net-(U4-EN)*%
X56100000Y-94627000D03*
%TO.P,R17,2*%
%TO.N,VBUS*%
X54275000Y-94627000D03*
%TD*%
D19*
%TO.P,C5,1*%
%TO.N,GND*%
X66162500Y-66307500D03*
%TO.P,C5,2*%
%TO.N,/OSCOUT*%
X66162500Y-64407500D03*
%TD*%
D15*
%TO.P,R4,1*%
%TO.N,GND*%
X103465000Y-94302000D03*
%TO.P,R4,2*%
%TO.N,Net-(U2-EN)*%
X101640000Y-94302000D03*
%TD*%
D44*
%TO.N,VCC*%
X77785000Y-61785000D03*
X67250000Y-72750000D03*
X79535000Y-60035000D03*
X54000000Y-73500000D03*
X54500000Y-68250000D03*
X59250000Y-63500000D03*
%TO.N,GND*%
X78000000Y-90250000D03*
X76127500Y-60122500D03*
X68000000Y-65500000D03*
X52750000Y-84750000D03*
X78250000Y-53750000D03*
X104750000Y-88750000D03*
X57037500Y-67537500D03*
X80412500Y-60657500D03*
X69250000Y-68000000D03*
X88250000Y-81500000D03*
X78250000Y-78000000D03*
X71750000Y-83500000D03*
X64250000Y-84750000D03*
X78252500Y-64247500D03*
%TO.N,+5V*%
X64250000Y-72000000D03*
X64750000Y-71250000D03*
%TO.N,/PB9*%
X74173162Y-55896838D03*
X72912500Y-54636176D03*
%TO.N,/PA0*%
X58625000Y-73875000D03*
X62500000Y-71750000D03*
%TO.N,/PB13*%
X60325000Y-74075000D03*
X84412500Y-66157500D03*
%TO.N,/PB2*%
X77412500Y-68157500D03*
%TO.N,/PA6*%
X71412500Y-53662500D03*
X74000000Y-52000000D03*
X72037500Y-66782500D03*
%TO.N,/PB5*%
X83500000Y-52000000D03*
%TO.N,/SWDIO*%
X97780000Y-57000000D03*
%TO.N,/PA4*%
X74750000Y-65000000D03*
%TO.N,/PA5*%
X72723497Y-66370902D03*
X71500000Y-48500000D03*
X72250000Y-56500000D03*
%TO.N,/PA7*%
X71153551Y-67160483D03*
X70662500Y-51500000D03*
%TO.N,/PB15*%
X86412500Y-66157500D03*
%TO.N,/PB1*%
X71912500Y-69657500D03*
X65377500Y-51122500D03*
%TO.N,/PB14*%
X85412500Y-66157500D03*
X63000000Y-74500000D03*
%TO.N,+12V*%
X62000000Y-75500000D03*
X62000000Y-74750000D03*
%TO.N,Net-(J2-D+-PadA6)*%
X98162500Y-68157500D03*
X93662500Y-63657500D03*
%TO.N,Net-(J2-D--PadA7)*%
X92912500Y-64157500D03*
X97412500Y-68657500D03*
%TO.N,/DIN*%
X59250000Y-62500000D03*
X65250000Y-69250000D03*
%TD*%
D45*
%TO.N,GND*%
X71750000Y-83500000D02*
X72275000Y-82975000D01*
D46*
X103465000Y-94302000D02*
X104000000Y-93767000D01*
D47*
%TO.N,VBUS*%
X101237499Y-66612500D02*
X102788500Y-68163501D01*
D46*
%TO.N,VCC*%
X81800000Y-79950000D02*
X78450000Y-79950000D01*
X73572162Y-55647895D02*
X73572162Y-56145781D01*
X81800000Y-79950000D02*
X84550000Y-82700000D01*
X68500000Y-72750000D02*
X67250000Y-72750000D01*
X81612500Y-79762500D02*
X81800000Y-79950000D01*
X84485000Y-82765000D02*
X84550000Y-82700000D01*
X77500000Y-79000000D02*
X73000000Y-79000000D01*
X76332500Y-51237500D02*
X76332500Y-44000000D01*
X74662500Y-54557557D02*
X73572162Y-55647895D01*
X80250000Y-65157500D02*
X80250000Y-66570000D01*
X74750000Y-57323619D02*
X74750000Y-58245000D01*
X88800000Y-78450000D02*
X98950000Y-78450000D01*
X76332500Y-51237500D02*
X86532500Y-51237500D01*
X77331250Y-62238750D02*
X77785000Y-61785000D01*
X79535000Y-60035000D02*
X79912500Y-59657500D01*
X94112500Y-44527500D02*
X100912500Y-51327500D01*
X77331250Y-62238750D02*
X77706250Y-62613750D01*
X84150000Y-82700000D02*
X84550000Y-82700000D01*
X80250000Y-66570000D02*
X81612500Y-67932500D01*
X84550000Y-82700000D02*
X88800000Y-78450000D01*
X57750000Y-65000000D02*
X59250000Y-65000000D01*
X71837500Y-75907500D02*
X71837500Y-77837500D01*
X71862500Y-73407500D02*
X71862500Y-75882500D01*
X73337500Y-59657500D02*
X74750000Y-59657500D01*
X54500000Y-68250000D02*
X54500000Y-70000000D01*
X81612500Y-78407500D02*
X81612500Y-79762500D01*
X77706250Y-62613750D02*
X80250000Y-65157500D01*
X100450000Y-79950000D02*
X100450000Y-81375000D01*
X81612500Y-67932500D02*
X81612500Y-78657500D01*
X71837500Y-77837500D02*
X73000000Y-79000000D01*
X71205000Y-72750000D02*
X68500000Y-72750000D01*
X85962500Y-73407500D02*
X81612500Y-73407500D01*
X84485000Y-88700000D02*
X84485000Y-82765000D01*
X53500000Y-73000000D02*
X52250000Y-73000000D01*
X71862500Y-75882500D02*
X71837500Y-75907500D01*
X79912500Y-59657500D02*
X81662500Y-59657500D01*
X71862500Y-73407500D02*
X71205000Y-72750000D01*
X98950000Y-78450000D02*
X100450000Y-79950000D01*
X54000000Y-73500000D02*
X53500000Y-73000000D01*
X86532500Y-51237500D02*
X94112500Y-43657500D01*
X74662500Y-52907500D02*
X74662500Y-54557557D01*
X54500000Y-68250000D02*
X57750000Y-65000000D01*
X74750000Y-59657500D02*
X77331250Y-62238750D01*
X74750000Y-59657500D02*
X74750000Y-58245000D01*
X73572162Y-56145781D02*
X74750000Y-57323619D01*
X76332500Y-51237500D02*
X74662500Y-52907500D01*
X59250000Y-63500000D02*
X59250000Y-65000000D01*
X78450000Y-79950000D02*
X77500000Y-79000000D01*
X94112500Y-43657500D02*
X94112500Y-44527500D01*
%TO.N,GND*%
X62512500Y-58407500D02*
X61012500Y-59907500D01*
X52750000Y-84750000D02*
X53500000Y-84000000D01*
X76127500Y-60122500D02*
X75250000Y-59245000D01*
X67192500Y-66307500D02*
X68000000Y-65500000D01*
X67949000Y-69551001D02*
X67949000Y-70540968D01*
X80891176Y-60157500D02*
X81662500Y-60157500D01*
X78600000Y-88750000D02*
X80700000Y-86650000D01*
D45*
X62750000Y-84700000D02*
X64200000Y-84700000D01*
D46*
X77750000Y-65798676D02*
X78141176Y-65407500D01*
X63062500Y-64312500D02*
X63062500Y-64407500D01*
X75250000Y-59245000D02*
X75250000Y-58245000D01*
D45*
X62000000Y-93000000D02*
X59500000Y-90500000D01*
D46*
X66162500Y-66307500D02*
X67192500Y-66307500D01*
D48*
X105500000Y-79250000D02*
X105500000Y-73415000D01*
D45*
X51500000Y-54222600D02*
X49027400Y-54222600D01*
D46*
X105500000Y-73415000D02*
X105417500Y-73332500D01*
X67949000Y-70540968D02*
X68558032Y-71150000D01*
X79750000Y-78370000D02*
X79712500Y-78407500D01*
X79712500Y-70907500D02*
X77662500Y-70907500D01*
X67461500Y-54706500D02*
X63361500Y-54706500D01*
D45*
X60100000Y-94627000D02*
X60100000Y-94400000D01*
D46*
X42880000Y-93870000D02*
X44250000Y-92500000D01*
X42750000Y-86250000D02*
X42250000Y-86250000D01*
D48*
X87700000Y-80950000D02*
X88250000Y-81500000D01*
D46*
X78657500Y-78407500D02*
X78250000Y-78000000D01*
X73450000Y-84223600D02*
X73450000Y-84150000D01*
X54100000Y-83525000D02*
X52662500Y-82087500D01*
X62750000Y-85162500D02*
X62750000Y-84700000D01*
X100662500Y-65267500D02*
X101237500Y-64692500D01*
X68312500Y-58407500D02*
X68312500Y-57057500D01*
X57037500Y-67537500D02*
X56625000Y-67950000D01*
X79412500Y-65407500D02*
X79750000Y-65745000D01*
X79712500Y-78407500D02*
X78657500Y-78407500D01*
D45*
X61500000Y-93000000D02*
X62250000Y-93000000D01*
X59500000Y-88412500D02*
X59500000Y-90500000D01*
D46*
X93950000Y-81737500D02*
X93700000Y-81737500D01*
X68558032Y-71150000D02*
X68912500Y-71150000D01*
X64512500Y-66307500D02*
X66162500Y-66307500D01*
X64162500Y-63007500D02*
X64162500Y-63157500D01*
X63361500Y-54706500D02*
X63162500Y-54905500D01*
D45*
X104200000Y-88200000D02*
X104750000Y-88750000D01*
D46*
X61012500Y-62262500D02*
X63062500Y-64312500D01*
X63062500Y-64257500D02*
X63062500Y-64407500D01*
X62512500Y-57057500D02*
X62512500Y-58407500D01*
X68950000Y-82250000D02*
X67700000Y-82250000D01*
X100662500Y-72757500D02*
X101237500Y-73332500D01*
D45*
X78450000Y-90225000D02*
X78025000Y-90225000D01*
X78450000Y-90225000D02*
X78450000Y-88750000D01*
D46*
X63162500Y-54905500D02*
X63162500Y-56407500D01*
D45*
X95950000Y-83700000D02*
X97910000Y-85660000D01*
D46*
X68912500Y-68337500D02*
X69250000Y-68000000D01*
D45*
X61750000Y-93000000D02*
X62250000Y-93000000D01*
X80350000Y-92125000D02*
X78450000Y-90225000D01*
D46*
X51250000Y-54222600D02*
X56000000Y-54222600D01*
X79750000Y-65745000D02*
X79750000Y-66570000D01*
X103465000Y-94302000D02*
X103848000Y-94302000D01*
X68250001Y-69250000D02*
X67949000Y-69551001D01*
X61012500Y-59907500D02*
X61012500Y-62262500D01*
D45*
X91862500Y-79900000D02*
X90700000Y-79900000D01*
D46*
X68912500Y-69250000D02*
X68250001Y-69250000D01*
X78141176Y-65407500D02*
X79412500Y-65407500D01*
D45*
X60100000Y-94400000D02*
X61500000Y-93000000D01*
X93950000Y-81737500D02*
X95912500Y-83700000D01*
D46*
X54100000Y-84025000D02*
X54100000Y-83525000D01*
X80150000Y-92748600D02*
X80150000Y-92650000D01*
X63062500Y-64857500D02*
X64512500Y-66307500D01*
X73410000Y-84263600D02*
X73450000Y-84223600D01*
X52662500Y-82087500D02*
X52600000Y-82025000D01*
X104000000Y-93767000D02*
X104000000Y-91300000D01*
X53500000Y-84000000D02*
X54075000Y-84000000D01*
X79750000Y-67070000D02*
X79750000Y-78620000D01*
D45*
X73450000Y-84150000D02*
X72275000Y-82975000D01*
X80450000Y-94750000D02*
X80450000Y-92323600D01*
D46*
X78450000Y-88750000D02*
X78600000Y-88750000D01*
X78025000Y-90225000D02*
X78000000Y-90250000D01*
X67662500Y-54907500D02*
X67461500Y-54706500D01*
X54545000Y-84470000D02*
X54100000Y-84025000D01*
X56625000Y-67950000D02*
X56625000Y-70250000D01*
X78252500Y-64247500D02*
X79412500Y-65407500D01*
D48*
X80450000Y-94750000D02*
X82500000Y-94750000D01*
D46*
X104000000Y-91300000D02*
X102700000Y-90000000D01*
X49000000Y-77250000D02*
X42250000Y-84000000D01*
X78250000Y-53750000D02*
X76330000Y-53750000D01*
X42250000Y-84000000D02*
X42250000Y-86250000D01*
X77662500Y-75907500D02*
X79692500Y-75907500D01*
D45*
X102700000Y-90000000D02*
X102700000Y-88200000D01*
X88750000Y-79900000D02*
X90700000Y-79900000D01*
X49027400Y-54222600D02*
X46750000Y-56500000D01*
D46*
X71050000Y-81750000D02*
X69450000Y-81750000D01*
X59175000Y-67250000D02*
X57325000Y-67250000D01*
X79712500Y-73407500D02*
X77662500Y-73407500D01*
X97910000Y-85660000D02*
X97910000Y-86374400D01*
X63162500Y-56407500D02*
X62512500Y-57057500D01*
X79692500Y-75907500D02*
X79712500Y-75927500D01*
D45*
X93700000Y-81737500D02*
X91862500Y-79900000D01*
D46*
X100662500Y-65812500D02*
X100662500Y-65267500D01*
X42250000Y-93870000D02*
X42880000Y-93870000D01*
X100662500Y-72212500D02*
X100662500Y-72757500D01*
X68912500Y-69250000D02*
X68912500Y-68337500D01*
D45*
X72275000Y-82975000D02*
X71050000Y-81750000D01*
D46*
X44250000Y-87750000D02*
X42750000Y-86250000D01*
D45*
X86450000Y-82200000D02*
X87700000Y-80950000D01*
D46*
X54545000Y-86765200D02*
X54545000Y-84470000D01*
X44250000Y-92500000D02*
X44250000Y-87750000D01*
X59500000Y-88412500D02*
X59562500Y-88412500D01*
D45*
X87700000Y-80950000D02*
X88750000Y-79900000D01*
D46*
X57325000Y-67250000D02*
X57037500Y-67537500D01*
X64162500Y-63157500D02*
X63062500Y-64257500D01*
X76330000Y-53750000D02*
X76162500Y-53582500D01*
X95912500Y-83700000D02*
X95950000Y-83700000D01*
X93950000Y-81737500D02*
X93487500Y-81737500D01*
X54075000Y-84000000D02*
X54100000Y-84025000D01*
X63062500Y-64407500D02*
X63062500Y-64857500D01*
X69450000Y-81750000D02*
X68950000Y-82250000D01*
X73410000Y-87000000D02*
X73410000Y-84263600D01*
X77750000Y-66570000D02*
X77750000Y-65798676D01*
X67662500Y-56407500D02*
X67662500Y-54907500D01*
X86450000Y-82700000D02*
X86450000Y-82200000D01*
D45*
X59500000Y-88412500D02*
X62750000Y-85162500D01*
D46*
X80250000Y-92848600D02*
X80150000Y-92748600D01*
X64200000Y-84700000D02*
X64250000Y-84750000D01*
X80412500Y-60636176D02*
X80891176Y-60157500D01*
D45*
X102700000Y-88200000D02*
X104200000Y-88200000D01*
D46*
X68312500Y-57057500D02*
X67662500Y-56407500D01*
D45*
%TO.N,+5V*%
X80700000Y-84200000D02*
X79000000Y-82500000D01*
X51500000Y-52222600D02*
X47432600Y-52222600D01*
D48*
X65100000Y-81100000D02*
X65975000Y-80225000D01*
D45*
X80700000Y-84750000D02*
X80700000Y-84200000D01*
D48*
X64250000Y-73000000D02*
X65000000Y-72250000D01*
D49*
X78450000Y-81475000D02*
X77200000Y-80225000D01*
X78450000Y-82398600D02*
X78450000Y-81475000D01*
D46*
X66037500Y-71750000D02*
X65500000Y-71750000D01*
D48*
X65000000Y-72250000D02*
X65000000Y-71500000D01*
D49*
X77200000Y-80225000D02*
X65975000Y-80225000D01*
D45*
X47432600Y-52222600D02*
X46750000Y-51540000D01*
D46*
X66637500Y-71150000D02*
X66037500Y-71750000D01*
D48*
X65100000Y-81100000D02*
X65100000Y-93000000D01*
X65000000Y-71500000D02*
X64750000Y-71250000D01*
D45*
X79000000Y-82500000D02*
X78450000Y-82500000D01*
D49*
X65975000Y-80225000D02*
X64250000Y-78500000D01*
D46*
X65500000Y-71750000D02*
X65000000Y-72250000D01*
D49*
X64250000Y-78500000D02*
X64250000Y-73000000D01*
D46*
X78450000Y-82500000D02*
X78450000Y-82398600D01*
D45*
X51250000Y-52222600D02*
X56000000Y-52222600D01*
D48*
X64250000Y-73000000D02*
X64250000Y-72000000D01*
D46*
%TO.N,/PB9*%
X75750000Y-57473676D02*
X75750000Y-58245000D01*
X74173162Y-55896838D02*
X75750000Y-57473676D01*
X68712500Y-44707500D02*
X68712500Y-43657500D01*
X72912500Y-48200000D02*
X68712500Y-44000000D01*
X72912500Y-54636176D02*
X72912500Y-48200000D01*
%TO.N,/PA0*%
X67599000Y-67651000D02*
X64849000Y-67651000D01*
X72092500Y-63157500D02*
X67599000Y-67651000D01*
X73337500Y-63157500D02*
X72092500Y-63157500D01*
X50425000Y-73000000D02*
X47375000Y-73000000D01*
X62500000Y-70000000D02*
X62500000Y-71750000D01*
X42250000Y-78125000D02*
X42250000Y-78540000D01*
X58000000Y-74500000D02*
X51925000Y-74500000D01*
X64849000Y-67651000D02*
X62500000Y-70000000D01*
X47375000Y-73000000D02*
X42250000Y-78125000D01*
X58625000Y-73875000D02*
X58000000Y-74500000D01*
X51925000Y-74500000D02*
X50425000Y-73000000D01*
%TO.N,/PB13*%
X83412500Y-64157500D02*
X84412500Y-65157500D01*
X81662500Y-64157500D02*
X83412500Y-64157500D01*
X60250000Y-74150000D02*
X60250000Y-74250000D01*
X46000000Y-78250000D02*
X43170000Y-81080000D01*
X43170000Y-81080000D02*
X42250000Y-81080000D01*
X46000000Y-76250000D02*
X46000000Y-78250000D01*
X59000000Y-75500000D02*
X46750000Y-75500000D01*
X84412500Y-65157500D02*
X84412500Y-66157500D01*
X46750000Y-75500000D02*
X46000000Y-76250000D01*
X60250000Y-74250000D02*
X59000000Y-75500000D01*
X84412500Y-66157500D02*
X84412500Y-65657500D01*
X60325000Y-74075000D02*
X60250000Y-74150000D01*
%TO.N,/PB0*%
X76250000Y-68070000D02*
X75162500Y-69157500D01*
X69574999Y-70200000D02*
X68912500Y-70200000D01*
X72311500Y-69056500D02*
X70718499Y-69056500D01*
X72412500Y-69157500D02*
X72311500Y-69056500D01*
X76250000Y-66570000D02*
X76250000Y-68070000D01*
X70718499Y-69056500D02*
X69574999Y-70200000D01*
X75162500Y-69157500D02*
X72412500Y-69157500D01*
%TO.N,/PB2*%
X77250000Y-67995000D02*
X77412500Y-68157500D01*
X77250000Y-66570000D02*
X77250000Y-67995000D01*
%TO.N,/OSCOUT*%
X66912500Y-62157500D02*
X66162500Y-62907500D01*
X66162500Y-64407500D02*
X64162500Y-64407500D01*
X63998436Y-64257500D02*
X64062500Y-64257500D01*
X66162500Y-62907500D02*
X66162500Y-64407500D01*
X64212500Y-64407500D02*
X64062500Y-64257500D01*
X73337500Y-62157500D02*
X66912500Y-62157500D01*
%TO.N,/OSCIN32*%
X68662500Y-60657500D02*
X66412500Y-58407500D01*
X73337500Y-60657500D02*
X68662500Y-60657500D01*
X66412500Y-58407500D02*
X66412500Y-57407500D01*
X66412500Y-57407500D02*
X66662500Y-57157500D01*
X66662500Y-57157500D02*
X66662500Y-55907500D01*
D48*
%TO.N,VBUS*%
X73410000Y-93590000D02*
X73410000Y-91927600D01*
D47*
X55795000Y-96750000D02*
X54275000Y-95230000D01*
D50*
X104000000Y-83500000D02*
X105500000Y-83500000D01*
D48*
X73037500Y-94825600D02*
X73037500Y-93962500D01*
D47*
X54275000Y-95230000D02*
X54275000Y-94627000D01*
D48*
X73037500Y-93962500D02*
X73410000Y-93590000D01*
D50*
X102788500Y-78961500D02*
X102788500Y-82288500D01*
D47*
X100662500Y-71412500D02*
X99157500Y-71412500D01*
D50*
X102788500Y-82288500D02*
X104000000Y-83500000D01*
D47*
X55795000Y-96750000D02*
X74961900Y-96750000D01*
D46*
X100662500Y-66612500D02*
X101237499Y-66612500D01*
D48*
X54275000Y-93725000D02*
X54545000Y-93455000D01*
D51*
X99157500Y-71412500D02*
X98412500Y-72157500D01*
D47*
X74961900Y-96750000D02*
X73037500Y-94825600D01*
D50*
X106500000Y-95000000D02*
X106500000Y-84500000D01*
D48*
X54545000Y-93455000D02*
X54545000Y-91692800D01*
D51*
X98412500Y-72157500D02*
X98412500Y-74585500D01*
D46*
X54545000Y-94357000D02*
X54275000Y-94627000D01*
D48*
X64100000Y-96750000D02*
X62250000Y-94900000D01*
D50*
X104750000Y-96750000D02*
X106500000Y-95000000D01*
D48*
X97640000Y-94302000D02*
X97640000Y-93110000D01*
X104500000Y-83500000D02*
X105500000Y-82500000D01*
X105500000Y-82500000D02*
X105500000Y-81150000D01*
D47*
X97640000Y-94302000D02*
X97640000Y-95140000D01*
D46*
X101271492Y-71412500D02*
X100662500Y-71412500D01*
D48*
X97910000Y-92840000D02*
X97910000Y-91302000D01*
D46*
X97640000Y-94302000D02*
X97640000Y-93890000D01*
D51*
X98412500Y-74585500D02*
X102788500Y-78961500D01*
D48*
X97640000Y-93110000D02*
X97910000Y-92840000D01*
D51*
X102788500Y-68163501D02*
X102788500Y-78961500D01*
D52*
X99250000Y-96750000D02*
X74961900Y-96750000D01*
D50*
X106500000Y-84500000D02*
X105500000Y-83500000D01*
D47*
X97640000Y-95140000D02*
X99250000Y-96750000D01*
D48*
X86400000Y-96750000D02*
X84400000Y-94750000D01*
X54275000Y-94627000D02*
X54275000Y-93725000D01*
D50*
X99250000Y-96750000D02*
X104750000Y-96750000D01*
D46*
%TO.N,/PA6*%
X74000000Y-52000000D02*
X74000000Y-51065000D01*
X72037500Y-66782500D02*
X73412500Y-68157500D01*
X73412500Y-68157500D02*
X74662500Y-68157500D01*
X71412500Y-53662500D02*
X69070000Y-51320000D01*
X69070000Y-51320000D02*
X69070000Y-49437500D01*
X75250000Y-67570000D02*
X75250000Y-66570000D01*
X69070000Y-49437500D02*
X63632500Y-44000000D01*
X74662500Y-68157500D02*
X75250000Y-67570000D01*
%TO.N,/PA1*%
X52675000Y-70175000D02*
X52675000Y-69500000D01*
X63250000Y-70000000D02*
X63250000Y-72000000D01*
X72342500Y-63657500D02*
X67948000Y-68052000D01*
X67948000Y-68052000D02*
X65198000Y-68052000D01*
X55000000Y-72500000D02*
X52675000Y-70175000D01*
X52675000Y-69500000D02*
X52675000Y-69575000D01*
X52675000Y-70000000D02*
X46790000Y-70000000D01*
X65198000Y-68052000D02*
X63250000Y-70000000D01*
X73337500Y-63657500D02*
X72342500Y-63657500D01*
X46790000Y-70000000D02*
X46750000Y-70040000D01*
X62750000Y-72500000D02*
X55000000Y-72500000D01*
X63250000Y-72000000D02*
X62750000Y-72500000D01*
%TO.N,/PB11*%
X81662500Y-65157500D02*
X85912500Y-69407500D01*
X85912500Y-69407500D02*
X85912500Y-70907500D01*
%TO.N,/OSCIN*%
X63000000Y-62945000D02*
X63062500Y-63007500D01*
X66162500Y-60907500D02*
X63000000Y-60907500D01*
X63000000Y-60907500D02*
X63000000Y-62945000D01*
X66912500Y-61657500D02*
X66162500Y-60907500D01*
X73337500Y-61657500D02*
X66912500Y-61657500D01*
%TO.N,/PA12*%
X81662500Y-60657500D02*
X88587500Y-60657500D01*
%TO.N,/CC2*%
X90084600Y-67262500D02*
X84479600Y-61657500D01*
X79662500Y-61657500D02*
X78250000Y-60245000D01*
X100662500Y-67262500D02*
X90084600Y-67262500D01*
X84479600Y-61657500D02*
X81662500Y-61657500D01*
X81662500Y-61657500D02*
X79662500Y-61657500D01*
X78250000Y-60245000D02*
X78250000Y-58245000D01*
%TO.N,/PB5*%
X82500000Y-52000000D02*
X77750000Y-56750000D01*
X77750000Y-56750000D02*
X77750000Y-58245000D01*
X83500000Y-52000000D02*
X82500000Y-52000000D01*
%TO.N,/SWDIO*%
X97780000Y-57000000D02*
X81000000Y-57000000D01*
X80250000Y-58245000D02*
X80250000Y-57750000D01*
X81000000Y-57000000D02*
X80250000Y-57750000D01*
%TO.N,/PA4*%
X74592500Y-65157500D02*
X74750000Y-65000000D01*
X73337500Y-65157500D02*
X74592500Y-65157500D01*
%TO.N,/VDDA*%
X78750000Y-66570000D02*
X78750000Y-67920000D01*
X78250000Y-66570000D02*
X78250000Y-68420000D01*
X75762500Y-70907500D02*
X75762500Y-73407500D01*
X78250000Y-68420000D02*
X75762500Y-70907500D01*
X75762500Y-73407500D02*
X73762500Y-73407500D01*
X78750000Y-67920000D02*
X78250000Y-68420000D01*
%TO.N,/PA5*%
X74162500Y-67157500D02*
X74750000Y-66570000D01*
X72723497Y-66370902D02*
X72723497Y-66468497D01*
X72250000Y-49250000D02*
X72250000Y-56500000D01*
X71500000Y-48500000D02*
X72250000Y-49250000D01*
X73412500Y-67157500D02*
X74162500Y-67157500D01*
X72723497Y-66468497D02*
X73412500Y-67157500D01*
%TO.N,/OSCOUT32*%
X64412500Y-57407500D02*
X64162500Y-57157500D01*
X64412500Y-58407500D02*
X67162500Y-61157500D01*
X64412500Y-58407500D02*
X64412500Y-57407500D01*
X64162500Y-57157500D02*
X64162500Y-55907500D01*
X67162500Y-61157500D02*
X73337500Y-61157500D01*
%TO.N,/PA7*%
X71162500Y-67157500D02*
X72662500Y-68657500D01*
X72662500Y-68657500D02*
X74912500Y-68657500D01*
X71153551Y-67160483D02*
X71156534Y-67157500D01*
X71156534Y-67157500D02*
X71162500Y-67157500D01*
X75750000Y-67820000D02*
X75750000Y-66570000D01*
X74912500Y-68657500D02*
X75750000Y-67820000D01*
X70662500Y-51500000D02*
X70662500Y-48490000D01*
X70662500Y-48490000D02*
X66172500Y-44000000D01*
%TO.N,/PB15*%
X81662500Y-63157500D02*
X83912500Y-63157500D01*
X86412500Y-65657500D02*
X86412500Y-66157500D01*
X83912500Y-63157500D02*
X86412500Y-65657500D01*
%TO.N,/PB1*%
X71912500Y-69657500D02*
X75537500Y-69657500D01*
X75537500Y-69657500D02*
X76750000Y-68445000D01*
X61092500Y-46837500D02*
X61092500Y-44000000D01*
X65377500Y-51122500D02*
X61092500Y-46837500D01*
X76750000Y-68445000D02*
X76750000Y-66570000D01*
%TO.N,/PA11*%
X86950000Y-62907500D02*
X88587500Y-62907500D01*
X85200000Y-61157500D02*
X86950000Y-62907500D01*
X81700000Y-61157500D02*
X85200000Y-61157500D01*
%TO.N,/NRST*%
X61075000Y-67250000D02*
X61075000Y-65000000D01*
X67250000Y-67250000D02*
X61075000Y-67250000D01*
X61075000Y-67250000D02*
X61075000Y-70250000D01*
X71842500Y-62657500D02*
X67250000Y-67250000D01*
X73337500Y-62657500D02*
X71842500Y-62657500D01*
%TO.N,/PB14*%
X81662500Y-63657500D02*
X83662500Y-63657500D01*
X83662500Y-63657500D02*
X85412500Y-65407500D01*
X85412500Y-65407500D02*
X85412500Y-66157500D01*
X52810000Y-71310000D02*
X46750000Y-71310000D01*
X61750000Y-73250000D02*
X54750000Y-73250000D01*
X63000000Y-74500000D02*
X61750000Y-73250000D01*
X54750000Y-73250000D02*
X52810000Y-71310000D01*
%TO.N,/CC1*%
X100662500Y-70262500D02*
X92017500Y-70262500D01*
X81662500Y-62157500D02*
X79162500Y-62157500D01*
X83912500Y-62157500D02*
X81662500Y-62157500D01*
X77250000Y-60245000D02*
X77250000Y-58245000D01*
X79162500Y-62157500D02*
X77250000Y-60245000D01*
X92017500Y-70262500D02*
X83912500Y-62157500D01*
%TO.N,/BOOT0*%
X76250000Y-55495000D02*
X76162500Y-55407500D01*
X76250000Y-58245000D02*
X76250000Y-55495000D01*
%TO.N,Net-(D3-K)*%
X90700000Y-82700000D02*
X90700000Y-83450000D01*
X95275600Y-86374400D02*
X96640000Y-86374400D01*
X93950000Y-87300000D02*
X91600000Y-87300000D01*
X94350000Y-87300000D02*
X95275600Y-86374400D01*
X93950000Y-87300000D02*
X94350000Y-87300000D01*
X91600000Y-87300000D02*
X90200000Y-88700000D01*
X90700000Y-83450000D02*
X90200000Y-83950000D01*
X89450000Y-88700000D02*
X89950000Y-88700000D01*
X90200000Y-83950000D02*
X90200000Y-88700000D01*
%TO.N,/SWCLK*%
X79750000Y-57473676D02*
X79750000Y-58245000D01*
X100912500Y-56407500D02*
X100755000Y-56250000D01*
X91935000Y-56410000D02*
X91935000Y-56250000D01*
X91700000Y-55780000D02*
X91380000Y-55780000D01*
X100755000Y-56250000D02*
X93750000Y-56250000D01*
X90590000Y-56250000D02*
X90250000Y-56250000D01*
X80973676Y-56250000D02*
X79750000Y-57473676D01*
X92725000Y-56250000D02*
X92725000Y-56410000D01*
X90250000Y-56250000D02*
X80973676Y-56250000D01*
X93280000Y-55780000D02*
X92960000Y-55780000D01*
X92725000Y-56015000D02*
X92725000Y-56250000D01*
X90910000Y-56250000D02*
X90590000Y-56250000D01*
X91935000Y-56250000D02*
X91935000Y-56015000D01*
X92565000Y-56570000D02*
X92095000Y-56570000D01*
X92095000Y-56570000D02*
G75*
G02*
X91935000Y-56410000I0J160000D01*
G01*
X91145000Y-56015000D02*
G75*
G02*
X90910000Y-56250000I-235000J0D01*
G01*
X93750000Y-56250000D02*
G75*
G02*
X93515000Y-56015000I0J235000D01*
G01*
X93515000Y-56015000D02*
G75*
G03*
X93280000Y-55780000I-235000J0D01*
G01*
X92725000Y-56410000D02*
G75*
G02*
X92565000Y-56570000I-160000J0D01*
G01*
X91380000Y-55780000D02*
G75*
G03*
X91145000Y-56015000I0J-235000D01*
G01*
X92960000Y-55780000D02*
G75*
G03*
X92725000Y-56015000I0J-235000D01*
G01*
X91935000Y-56015000D02*
G75*
G03*
X91700000Y-55780000I-235000J0D01*
G01*
%TO.N,Net-(D1-A)*%
X73662500Y-75907500D02*
X75787500Y-75907500D01*
%TO.N,Net-(D2-A)*%
X87787500Y-70907500D02*
X87787500Y-73407500D01*
%TO.N,Net-(U2-BOOT)*%
X96640000Y-91302000D02*
X96052000Y-91302000D01*
X96052000Y-91302000D02*
X93950000Y-89200000D01*
%TO.N,Net-(U2-SS)*%
X100450000Y-91302000D02*
X101098000Y-91950000D01*
X102650000Y-91950000D02*
X102700000Y-91900000D01*
X101098000Y-91950000D02*
X102650000Y-91950000D01*
%TO.N,Net-(C17-Pad1)*%
X93987500Y-79875000D02*
X93950000Y-79837500D01*
X96450000Y-79875000D02*
X93987500Y-79875000D01*
D48*
%TO.N,+12V*%
X62000000Y-82050000D02*
X59250000Y-82050000D01*
X59250000Y-82050000D02*
X59100000Y-82200000D01*
D53*
X62000000Y-78500000D02*
X62000000Y-74750000D01*
D49*
X62750000Y-82800000D02*
X62000000Y-82050000D01*
D48*
X62000000Y-82000000D02*
X62000000Y-78500000D01*
D46*
X62000000Y-82050000D02*
X62000000Y-82000000D01*
%TO.N,Net-(U2-COMP)*%
X97850000Y-83700000D02*
X99180000Y-85030000D01*
X97850000Y-83700000D02*
X97850000Y-83100000D01*
X99180000Y-85030000D02*
X99180000Y-86374400D01*
X97850000Y-83100000D02*
X96450000Y-81700000D01*
%TO.N,Net-(D4-K)*%
X67800000Y-89850000D02*
X68700000Y-90750000D01*
X67800000Y-87600000D02*
X67800000Y-89000000D01*
X68700000Y-90750000D02*
X68700000Y-93000000D01*
X69700000Y-86250000D02*
X67700000Y-86250000D01*
X67700000Y-86250000D02*
X67700000Y-87500000D01*
X67700000Y-87500000D02*
X67800000Y-87600000D01*
X70450000Y-87000000D02*
X69700000Y-86250000D01*
X67800000Y-89000000D02*
X67800000Y-89850000D01*
X72140000Y-87000000D02*
X70450000Y-87000000D01*
%TO.N,Net-(U3-BOOT)*%
X72140000Y-91927600D02*
X72140000Y-91440000D01*
X72140000Y-91440000D02*
X69700000Y-89000000D01*
%TO.N,Net-(J2-D+-PadA6)*%
X101517500Y-68262500D02*
X100662500Y-68262500D01*
X101271324Y-69262500D02*
X101662500Y-68871324D01*
X90412500Y-60657500D02*
X90662500Y-60657500D01*
X101662500Y-68407500D02*
X101517500Y-68262500D01*
X101662500Y-68871324D02*
X101662500Y-68407500D01*
X98162500Y-68157500D02*
X98267500Y-68262500D01*
X100662500Y-68262500D02*
X98267500Y-68262500D01*
X90662500Y-60657500D02*
X93662500Y-63657500D01*
X100662500Y-69262500D02*
X101271324Y-69262500D01*
%TO.N,Net-(J2-D--PadA7)*%
X92912500Y-64157500D02*
X91662500Y-62907500D01*
X100053676Y-69762500D02*
X99162500Y-68871324D01*
X97412500Y-68657500D02*
X97517500Y-68762500D01*
X91662500Y-62907500D02*
X90412500Y-62907500D01*
X97517500Y-68762500D02*
X99162500Y-68762500D01*
X99162500Y-68871324D02*
X99162500Y-68762500D01*
X100662500Y-69762500D02*
X100053676Y-69762500D01*
X100662500Y-68762500D02*
X99162500Y-68762500D01*
%TO.N,Net-(U3-SS)*%
X77954000Y-92452600D02*
X78250000Y-92748600D01*
X75950000Y-91927600D02*
X78154000Y-91927600D01*
%TO.N,Net-(C21-Pad1)*%
X72950000Y-81750000D02*
X74625000Y-81750000D01*
%TO.N,Net-(U3-COMP)*%
X75350000Y-84223600D02*
X75350000Y-83600000D01*
X76450000Y-81750000D02*
X76450000Y-83123600D01*
X75350000Y-85100000D02*
X75350000Y-84223600D01*
X74680000Y-87000000D02*
X74680000Y-85770000D01*
X74680000Y-85770000D02*
X75350000Y-85100000D01*
X76450000Y-83123600D02*
X75350000Y-84223600D01*
%TO.N,Net-(U4-BOOT)*%
X53275000Y-91692800D02*
X52267800Y-91692800D01*
X52267800Y-91692800D02*
X50600000Y-90025000D01*
%TO.N,Net-(D5-K)*%
X59300000Y-78500000D02*
X51525000Y-78500000D01*
X50600000Y-83125000D02*
X50600000Y-88125000D01*
X51525000Y-78500000D02*
X49000000Y-81025000D01*
X51859800Y-86765200D02*
X53275000Y-86765200D01*
X49000000Y-81025000D02*
X49000000Y-81525000D01*
X49000000Y-81525000D02*
X50600000Y-83125000D01*
X50600000Y-88125000D02*
X50600000Y-88025000D01*
X50600000Y-88025000D02*
X51859800Y-86765200D01*
%TO.N,Net-(U4-SS)*%
X59500000Y-92400000D02*
X57792200Y-92400000D01*
X57792200Y-92400000D02*
X57085000Y-91692800D01*
%TO.N,Net-(C27-Pad1)*%
X55000000Y-80200000D02*
X52675000Y-80200000D01*
X52675000Y-80200000D02*
X52600000Y-80125000D01*
%TO.N,Net-(U4-COMP)*%
X56000000Y-84025000D02*
X56000000Y-83025000D01*
X55815000Y-86765200D02*
X55815000Y-84210000D01*
X56000000Y-83025000D02*
X55000000Y-82025000D01*
X55815000Y-84210000D02*
X56000000Y-84025000D01*
%TO.N,Net-(H2-D)*%
X49425000Y-49000000D02*
X46750000Y-49000000D01*
%TO.N,Net-(H3-D)*%
X49675000Y-61500000D02*
X46830000Y-61500000D01*
X46830000Y-61500000D02*
X46750000Y-61580000D01*
%TO.N,Net-(H6-Pin_9)*%
X74000000Y-50000000D02*
X73792500Y-49792500D01*
X74000000Y-50250000D02*
X74000000Y-50000000D01*
X73792500Y-49792500D02*
X73792500Y-44000000D01*
%TO.N,Net-(U2-EN)*%
X99465000Y-94302000D02*
X101640000Y-94302000D01*
X99180000Y-91302000D02*
X99180000Y-94017000D01*
X99180000Y-94017000D02*
X99465000Y-94302000D01*
%TO.N,Net-(U3-EN)*%
X74680000Y-91927600D02*
X74680000Y-94643100D01*
X78549400Y-94825600D02*
X78625000Y-94750000D01*
X74680000Y-94643100D02*
X74862500Y-94825600D01*
X74862500Y-94825600D02*
X78549400Y-94825600D01*
%TO.N,Net-(U2-VSENSE)*%
X100450000Y-86374400D02*
X100450000Y-83200000D01*
X102699400Y-86374400D02*
X102700000Y-86375000D01*
X100450000Y-86374400D02*
X102699400Y-86374400D01*
%TO.N,Net-(U3-VSENSE)*%
X78450000Y-87000000D02*
X78450000Y-84223600D01*
X75950000Y-87000000D02*
X78450000Y-87000000D01*
%TO.N,Net-(U4-EN)*%
X55815000Y-91692800D02*
X55815000Y-94342000D01*
X55815000Y-94342000D02*
X56100000Y-94627000D01*
X58275000Y-94627000D02*
X56100000Y-94627000D01*
%TO.N,Net-(U4-VSENSE)*%
X57085000Y-86765200D02*
X59359800Y-86765200D01*
X59600000Y-84525000D02*
X59100000Y-84025000D01*
X59600000Y-86525000D02*
X59600000Y-84525000D01*
X59359800Y-86765200D02*
X59600000Y-86525000D01*
%TO.N,/DIN*%
X59750000Y-54500000D02*
X59750000Y-52000000D01*
X58750000Y-61000000D02*
X58750000Y-55500000D01*
X59250000Y-62500000D02*
X58250000Y-61500000D01*
X66637500Y-69250000D02*
X65250000Y-69250000D01*
X58250000Y-61500000D02*
X51500000Y-61500000D01*
X58750000Y-55500000D02*
X59750000Y-54500000D01*
X59750000Y-52000000D02*
X56750000Y-49000000D01*
X56750000Y-49000000D02*
X51250000Y-49000000D01*
X58250000Y-61500000D02*
X58750000Y-61000000D01*
%TD*%
M02*
