M48
; DRILL file {KiCad 9.0.7} date 2026-02-28T23:31:12+1000
; FORMAT={-:-/ absolute / metric / decimal}
; #@! TF.CreationDate,2026-02-28T23:31:12+10:00
; #@! TF.GenerationSoftware,Kicad,Pcbnew,9.0.7
; #@! TF.FileFunction,Plated,1,2,PTH
FMAT,2
METRIC
; #@! TA.AperFunction,Plated,PTH,ViaDrill
T1C0.300
; #@! TA.AperFunction,Plated,PTH,ComponentDrill
T2C0.600
; #@! TA.AperFunction,Plated,PTH,ComponentDrill
T3C0.700
; #@! TA.AperFunction,Plated,PTH,ComponentDrill
T4C1.000
%
G90
G05
T1
X52.75Y-84.75
X54.0Y-73.5
X54.5Y-68.25
X57.037Y-67.537
X58.625Y-73.875
X59.25Y-62.5
X59.25Y-63.5
X60.325Y-74.075
X62.0Y-74.75
X62.0Y-75.5
X62.5Y-71.75
X63.0Y-74.5
X64.25Y-72.0
X64.25Y-84.75
X64.75Y-71.25
X65.25Y-69.25
X65.377Y-51.122
X67.25Y-72.75
X68.0Y-65.5
X69.25Y-68.0
X70.662Y-51.5
X71.154Y-67.16
X71.412Y-53.662
X71.5Y-48.5
X71.5Y-83.5
X71.912Y-69.657
X72.037Y-66.782
X72.25Y-56.5
X72.723Y-66.371
X72.912Y-54.636
X74.0Y-52.0
X74.173Y-55.897
X74.75Y-65.0
X76.127Y-60.122
X77.412Y-68.157
X77.785Y-61.785
X78.0Y-90.25
X78.25Y-53.75
X78.25Y-78.0
X78.252Y-64.248
X79.535Y-60.035
X80.412Y-60.657
X83.5Y-52.0
X84.412Y-66.157
X85.412Y-66.157
X86.412Y-66.157
X88.25Y-81.5
X92.912Y-64.157
X93.662Y-63.657
X97.412Y-68.657
X97.78Y-57.0
X98.162Y-68.157
X104.75Y-88.75
T2
X51.25Y-52.223
X51.25Y-54.223
X56.0Y-52.223
X56.0Y-54.223
T3
X46.75Y-67.5
X46.75Y-68.77
X46.75Y-70.04
X46.75Y-71.31
T4
X42.25Y-73.46
X42.25Y-76.0
X42.25Y-78.54
X42.25Y-81.08
X42.25Y-86.25
X42.25Y-88.79
X42.25Y-91.33
X42.25Y-93.87
X46.75Y-43.92
X46.75Y-46.46
X46.75Y-49.0
X46.75Y-51.54
X46.75Y-56.5
X46.75Y-59.04
X46.75Y-61.58
X46.75Y-64.12
X61.092Y-44.0
X63.633Y-44.0
X66.172Y-44.0
X68.712Y-44.0
X71.252Y-44.0
X73.792Y-44.0
X76.332Y-44.0
X78.873Y-44.0
X81.412Y-44.0
X83.953Y-44.0
X86.492Y-44.0
X89.032Y-44.0
X91.572Y-44.0
X94.112Y-44.0
X100.912Y-51.328
X100.912Y-53.867
X100.912Y-56.407
X100.912Y-58.947
T2
G00X100.688Y-64.692
M15
G01X101.787Y-64.692
M16
G05
G00X100.688Y-73.332
M15
G01X101.787Y-73.332
M16
G05
G00X105.017Y-64.692
M15
G01X105.817Y-64.692
M16
G05
G00X105.017Y-73.332
M15
G01X105.817Y-73.332
M16
G05
M30
